<svg width="416" height="269" viewBox="0 0 416 269" fill="none" xmlns="http://www.w3.org/2000/svg">
<path d="M410.667 78.4865H416V183.135H410.667V78.4865Z" fill="url(#paint0_linear_199_398)" fill-opacity="0.45"/>
<path d="M195.556 1.1233e-05H200.889V220H195.556V1.1233e-05Z" fill="url(#paint1_linear_199_398)" fill-opacity="0.45"/>
<path d="M312.889 0H318.222V110.595H312.889V0Z" fill="url(#paint2_linear_199_398)" fill-opacity="0.45"/>
<path d="M97.7778 1.1233e-05H103.111V126.054H97.7778V1.1233e-05Z" fill="url(#paint3_linear_199_398)" fill-opacity="0.45"/>
<path d="M312.889 68.973H318.222V200.973H312.889V68.973Z" fill="url(#paint4_linear_199_398)" fill-opacity="0.45"/>
<path d="M97.7778 84.4324H103.111V258.5H97.7778V84.4324Z" fill="url(#paint5_linear_199_398)" fill-opacity="0.45"/>
<path d="M371.556 78.4865H376.889V210.487H371.556V78.4865Z" fill="url(#paint6_linear_199_398)" fill-opacity="0.45"/>
<path d="M156.444 1.1233e-05H161.778V189.081H156.444V1.1233e-05Z" fill="url(#paint7_linear_199_398)" fill-opacity="0.45"/>
<path d="M273.778 1.1233e-05H279.111V126.054H273.778V1.1233e-05Z" fill="url(#paint8_linear_199_398)" fill-opacity="0.45"/>
<path d="M58.6667 16.3312H64V147.459H58.6667V16.3312Z" fill="url(#paint9_linear_199_398)" fill-opacity="0.45"/>
<path d="M273.778 29.7297H279.111V210.487H273.778V29.7297Z" fill="url(#paint10_linear_199_398)" fill-opacity="0.45"/>
<path d="M58.6667 45.1892H64V171.243H58.6667V45.1892Z" fill="url(#paint11_linear_199_398)" fill-opacity="0.45"/>
<path d="M332.444 78.4865H337.778V210.487H332.444V78.4865Z" fill="url(#paint12_linear_199_398)" fill-opacity="0.45"/>
<path d="M117.333 1.1233e-05H122.667V268.013H117.333V1.1233e-05Z" fill="url(#paint13_linear_199_398)" fill-opacity="0.45"/>
<path d="M234.667 1.1233e-05H240V228.324H234.667V1.1233e-05Z" fill="url(#paint14_linear_199_398)" fill-opacity="0.45"/>
<path d="M19.5556 63.027H24.8889V189.081H19.5556V63.027Z" fill="url(#paint15_linear_199_398)" fill-opacity="0.45"/>
<path d="M234.667 21.4054H240V249.73H234.667V21.4054Z" fill="url(#paint16_linear_199_398)" fill-opacity="0.45"/>
<path d="M19.5556 84.4324H24.8889V210.487H19.5556V84.4324Z" fill="url(#paint17_linear_199_398)" fill-opacity="0.45"/>
<path d="M391.111 78.4865H396.444V183.135H391.111V78.4865Z" fill="url(#paint18_linear_199_398)" fill-opacity="0.45"/>
<path d="M176 1.1233e-05H181.333V195.027H176V1.1233e-05Z" fill="url(#paint19_linear_199_398)" fill-opacity="0.45"/>
<path d="M293.333 1.1233e-05H298.667V120.108H293.333V1.1233e-05Z" fill="url(#paint20_linear_199_398)" fill-opacity="0.45"/>
<path d="M78.2222 16.3312H83.5556V135.568L78.2222 150.872V16.3312Z" fill="url(#paint21_linear_199_398)" fill-opacity="0.45"/>
<path d="M293.333 57.0811H298.667V183.135H293.333V57.0811Z" fill="url(#paint22_linear_199_398)" fill-opacity="0.45"/>
<path d="M78.2222 72.5406H83.5556V220H78.2222V72.5406Z" fill="url(#paint23_linear_199_398)" fill-opacity="0.45"/>
<path d="M352 78.4865H357.333V210.487H352V78.4865Z" fill="url(#paint24_linear_199_398)" fill-opacity="0.45"/>
<path d="M136.889 1.1233e-05H142.222V268.013H136.889V1.1233e-05Z" fill="url(#paint25_linear_199_398)" fill-opacity="0.45"/>
<path d="M254.222 1.1233e-05H259.556V210.487H254.222V1.1233e-05Z" fill="url(#paint26_linear_199_398)" fill-opacity="0.45"/>
<path d="M39.1111 45.1892H44.4445V171.243H39.1111V45.1892Z" fill="url(#paint27_linear_199_398)" fill-opacity="0.45"/>
<path d="M254.222 68.973H259.556V249.73H254.222V68.973Z" fill="url(#paint28_linear_199_398)" fill-opacity="0.45"/>
<path d="M39.1111 84.4324H44.4445V183.5H39.1111V84.4324Z" fill="url(#paint29_linear_199_398)" fill-opacity="0.45"/>
<path d="M312.889 57.0811H318.222V183.135H312.889V57.0811Z" fill="url(#paint30_linear_199_398)" fill-opacity="0.45"/>
<path d="M97.7778 72.5406H103.111V220H97.7778V72.5406Z" fill="url(#paint31_linear_199_398)" fill-opacity="0.45"/>
<path d="M215.111 1.1233e-05H220.444V249.73H215.111V1.1233e-05Z" fill="url(#paint32_linear_199_398)" fill-opacity="0.45"/>
<path d="M0 84.4324H5.33333V255.5H0V84.4324Z" fill="url(#paint33_linear_199_398)" fill-opacity="0.45"/>
<path d="M215.111 1.1233e-05H220.444V249.73H215.111V1.1233e-05Z" fill="url(#paint34_linear_199_398)" fill-opacity="0.45"/>
<path d="M0 84.4324H5.33333V255.5H0V84.4324Z" fill="url(#paint35_linear_199_398)" fill-opacity="0.45"/>
<defs>
<linearGradient id="paint0_linear_199_398" x1="2.66667" y1="84.4323" x2="2.66667" y2="210.486" gradientUnits="userSpaceOnUse">
<stop stop-color="#9B8F67" stop-opacity="0.2"/>
<stop offset="1" stop-color="#D9D9D9" stop-opacity="0"/>
</linearGradient>
<linearGradient id="paint1_linear_199_398" x1="2.66667" y1="84.4323" x2="2.66667" y2="210.486" gradientUnits="userSpaceOnUse">
<stop stop-color="#9B8F67" stop-opacity="0.2"/>
<stop offset="1" stop-color="#D9D9D9" stop-opacity="0"/>
</linearGradient>
<linearGradient id="paint2_linear_199_398" x1="2.66667" y1="84.4323" x2="2.66667" y2="210.486" gradientUnits="userSpaceOnUse">
<stop stop-color="#9B8F67" stop-opacity="0.2"/>
<stop offset="1" stop-color="#D9D9D9" stop-opacity="0"/>
</linearGradient>
<linearGradient id="paint3_linear_199_398" x1="2.66667" y1="84.4323" x2="2.66667" y2="210.486" gradientUnits="userSpaceOnUse">
<stop stop-color="#9B8F67" stop-opacity="0.2"/>
<stop offset="1" stop-color="#D9D9D9" stop-opacity="0"/>
</linearGradient>
<linearGradient id="paint4_linear_199_398" x1="2.66667" y1="84.4323" x2="2.66667" y2="210.486" gradientUnits="userSpaceOnUse">
<stop stop-color="#9B8F67" stop-opacity="0.2"/>
<stop offset="1" stop-color="#D9D9D9" stop-opacity="0"/>
</linearGradient>
<linearGradient id="paint5_linear_199_398" x1="2.66667" y1="84.4323" x2="2.66667" y2="210.486" gradientUnits="userSpaceOnUse">
<stop stop-color="#9B8F67" stop-opacity="0.2"/>
<stop offset="1" stop-color="#D9D9D9" stop-opacity="0"/>
</linearGradient>
<linearGradient id="paint6_linear_199_398" x1="2.66667" y1="84.4323" x2="2.66667" y2="210.486" gradientUnits="userSpaceOnUse">
<stop stop-color="#9B8F67" stop-opacity="0.2"/>
<stop offset="1" stop-color="#D9D9D9" stop-opacity="0"/>
</linearGradient>
<linearGradient id="paint7_linear_199_398" x1="2.66667" y1="84.4323" x2="2.66667" y2="210.486" gradientUnits="userSpaceOnUse">
<stop stop-color="#9B8F67" stop-opacity="0.2"/>
<stop offset="1" stop-color="#D9D9D9" stop-opacity="0"/>
</linearGradient>
<linearGradient id="paint8_linear_199_398" x1="2.66667" y1="84.4323" x2="2.66667" y2="210.486" gradientUnits="userSpaceOnUse">
<stop stop-color="#9B8F67" stop-opacity="0.2"/>
<stop offset="1" stop-color="#D9D9D9" stop-opacity="0"/>
</linearGradient>
<linearGradient id="paint9_linear_199_398" x1="2.66667" y1="84.4323" x2="2.66667" y2="210.486" gradientUnits="userSpaceOnUse">
<stop stop-color="#9B8F67" stop-opacity="0.2"/>
<stop offset="1" stop-color="#D9D9D9" stop-opacity="0"/>
</linearGradient>
<linearGradient id="paint10_linear_199_398" x1="2.66667" y1="84.4323" x2="2.66667" y2="210.486" gradientUnits="userSpaceOnUse">
<stop stop-color="#9B8F67" stop-opacity="0.2"/>
<stop offset="1" stop-color="#D9D9D9" stop-opacity="0"/>
</linearGradient>
<linearGradient id="paint11_linear_199_398" x1="2.66667" y1="84.4323" x2="2.66667" y2="210.486" gradientUnits="userSpaceOnUse">
<stop stop-color="#9B8F67" stop-opacity="0.2"/>
<stop offset="1" stop-color="#D9D9D9" stop-opacity="0"/>
</linearGradient>
<linearGradient id="paint12_linear_199_398" x1="2.66667" y1="84.4323" x2="2.66667" y2="210.486" gradientUnits="userSpaceOnUse">
<stop stop-color="#9B8F67" stop-opacity="0.2"/>
<stop offset="1" stop-color="#D9D9D9" stop-opacity="0"/>
</linearGradient>
<linearGradient id="paint13_linear_199_398" x1="2.66667" y1="84.4323" x2="2.66667" y2="210.486" gradientUnits="userSpaceOnUse">
<stop stop-color="#9B8F67" stop-opacity="0.2"/>
<stop offset="1" stop-color="#D9D9D9" stop-opacity="0"/>
</linearGradient>
<linearGradient id="paint14_linear_199_398" x1="2.66667" y1="84.4323" x2="2.66667" y2="210.486" gradientUnits="userSpaceOnUse">
<stop stop-color="#9B8F67" stop-opacity="0.2"/>
<stop offset="1" stop-color="#D9D9D9" stop-opacity="0"/>
</linearGradient>
<linearGradient id="paint15_linear_199_398" x1="2.66667" y1="84.4323" x2="2.66667" y2="210.486" gradientUnits="userSpaceOnUse">
<stop stop-color="#9B8F67" stop-opacity="0.2"/>
<stop offset="1" stop-color="#D9D9D9" stop-opacity="0"/>
</linearGradient>
<linearGradient id="paint16_linear_199_398" x1="2.66667" y1="84.4323" x2="2.66667" y2="210.486" gradientUnits="userSpaceOnUse">
<stop stop-color="#9B8F67" stop-opacity="0.2"/>
<stop offset="1" stop-color="#D9D9D9" stop-opacity="0"/>
</linearGradient>
<linearGradient id="paint17_linear_199_398" x1="2.66667" y1="84.4323" x2="2.66667" y2="210.486" gradientUnits="userSpaceOnUse">
<stop stop-color="#9B8F67" stop-opacity="0.2"/>
<stop offset="1" stop-color="#D9D9D9" stop-opacity="0"/>
</linearGradient>
<linearGradient id="paint18_linear_199_398" x1="2.66667" y1="84.4323" x2="2.66667" y2="210.486" gradientUnits="userSpaceOnUse">
<stop stop-color="#9B8F67" stop-opacity="0.2"/>
<stop offset="1" stop-color="#D9D9D9" stop-opacity="0"/>
</linearGradient>
<linearGradient id="paint19_linear_199_398" x1="2.66667" y1="84.4323" x2="2.66667" y2="210.486" gradientUnits="userSpaceOnUse">
<stop stop-color="#9B8F67" stop-opacity="0.2"/>
<stop offset="1" stop-color="#D9D9D9" stop-opacity="0"/>
</linearGradient>
<linearGradient id="paint20_linear_199_398" x1="2.66667" y1="84.4323" x2="2.66667" y2="210.486" gradientUnits="userSpaceOnUse">
<stop stop-color="#9B8F67" stop-opacity="0.2"/>
<stop offset="1" stop-color="#D9D9D9" stop-opacity="0"/>
</linearGradient>
<linearGradient id="paint21_linear_199_398" x1="2.66667" y1="84.4323" x2="2.66667" y2="210.486" gradientUnits="userSpaceOnUse">
<stop stop-color="#9B8F67" stop-opacity="0.2"/>
<stop offset="1" stop-color="#D9D9D9" stop-opacity="0"/>
</linearGradient>
<linearGradient id="paint22_linear_199_398" x1="2.66667" y1="84.4323" x2="2.66667" y2="210.486" gradientUnits="userSpaceOnUse">
<stop stop-color="#9B8F67" stop-opacity="0.2"/>
<stop offset="1" stop-color="#D9D9D9" stop-opacity="0"/>
</linearGradient>
<linearGradient id="paint23_linear_199_398" x1="2.66667" y1="84.4323" x2="2.66667" y2="210.486" gradientUnits="userSpaceOnUse">
<stop stop-color="#9B8F67" stop-opacity="0.2"/>
<stop offset="1" stop-color="#D9D9D9" stop-opacity="0"/>
</linearGradient>
<linearGradient id="paint24_linear_199_398" x1="2.66667" y1="84.4323" x2="2.66667" y2="210.486" gradientUnits="userSpaceOnUse">
<stop stop-color="#9B8F67" stop-opacity="0.2"/>
<stop offset="1" stop-color="#D9D9D9" stop-opacity="0"/>
</linearGradient>
<linearGradient id="paint25_linear_199_398" x1="2.66667" y1="84.4323" x2="2.66667" y2="210.486" gradientUnits="userSpaceOnUse">
<stop stop-color="#9B8F67" stop-opacity="0.2"/>
<stop offset="1" stop-color="#D9D9D9" stop-opacity="0"/>
</linearGradient>
<linearGradient id="paint26_linear_199_398" x1="2.66667" y1="84.4323" x2="2.66667" y2="210.486" gradientUnits="userSpaceOnUse">
<stop stop-color="#9B8F67" stop-opacity="0.2"/>
<stop offset="1" stop-color="#D9D9D9" stop-opacity="0"/>
</linearGradient>
<linearGradient id="paint27_linear_199_398" x1="2.66667" y1="84.4323" x2="2.66667" y2="210.486" gradientUnits="userSpaceOnUse">
<stop stop-color="#9B8F67" stop-opacity="0.2"/>
<stop offset="1" stop-color="#D9D9D9" stop-opacity="0"/>
</linearGradient>
<linearGradient id="paint28_linear_199_398" x1="2.66667" y1="84.4323" x2="2.66667" y2="210.486" gradientUnits="userSpaceOnUse">
<stop stop-color="#9B8F67" stop-opacity="0.2"/>
<stop offset="1" stop-color="#D9D9D9" stop-opacity="0"/>
</linearGradient>
<linearGradient id="paint29_linear_199_398" x1="2.66667" y1="84.4323" x2="2.66667" y2="210.486" gradientUnits="userSpaceOnUse">
<stop stop-color="#9B8F67" stop-opacity="0.2"/>
<stop offset="1" stop-color="#D9D9D9" stop-opacity="0"/>
</linearGradient>
<linearGradient id="paint30_linear_199_398" x1="2.66667" y1="84.4323" x2="2.66667" y2="210.486" gradientUnits="userSpaceOnUse">
<stop stop-color="#9B8F67" stop-opacity="0.2"/>
<stop offset="1" stop-color="#D9D9D9" stop-opacity="0"/>
</linearGradient>
<linearGradient id="paint31_linear_199_398" x1="2.66667" y1="84.4323" x2="2.66667" y2="210.486" gradientUnits="userSpaceOnUse">
<stop stop-color="#9B8F67" stop-opacity="0.2"/>
<stop offset="1" stop-color="#D9D9D9" stop-opacity="0"/>
</linearGradient>
<linearGradient id="paint32_linear_199_398" x1="2.66667" y1="84.4323" x2="2.66667" y2="210.486" gradientUnits="userSpaceOnUse">
<stop stop-color="#9B8F67" stop-opacity="0.2"/>
<stop offset="1" stop-color="#D9D9D9" stop-opacity="0"/>
</linearGradient>
<linearGradient id="paint33_linear_199_398" x1="2.66667" y1="84.4323" x2="2.66667" y2="210.486" gradientUnits="userSpaceOnUse">
<stop stop-color="#9B8F67" stop-opacity="0.2"/>
<stop offset="1" stop-color="#D9D9D9" stop-opacity="0"/>
</linearGradient>
<linearGradient id="paint34_linear_199_398" x1="2.66667" y1="84.4323" x2="2.66667" y2="210.486" gradientUnits="userSpaceOnUse">
<stop stop-color="#9B8F67" stop-opacity="0.2"/>
<stop offset="1" stop-color="#D9D9D9" stop-opacity="0"/>
</linearGradient>
<linearGradient id="paint35_linear_199_398" x1="2.66667" y1="84.4323" x2="2.66667" y2="210.486" gradientUnits="userSpaceOnUse">
<stop stop-color="#9B8F67" stop-opacity="0.2"/>
<stop offset="1" stop-color="#D9D9D9" stop-opacity="0"/>
</linearGradient>
</defs>
</svg>
