<svg width="320" height="1081" viewBox="0 0 320 1081" fill="none" xmlns="http://www.w3.org/2000/svg">
<path d="M0 1080V0H320V1080L158 1007.5L0 1080Z" fill="#0A0A0A"/>
<path d="M0 1080V0H320V1080L158 1007.5L0 1080Z" fill="#0A0A0A"/>
<path d="M1 631.064L90.6 591.384V601.624L6.248 638.744V633.112L90.6 670.488V680.088L1 640.408V631.064ZM1 660.262L90.6 701.222L90.6 710.566L1 751.526V741.542L85.096 703.91V707.75L1 670.118V660.262ZM24.936 676.39L32.616 679.206V731.302L24.936 734.118L24.936 676.39ZM1 750.604H90.6V758.412L12.776 820.236V816.14H90.6V825.484H1V817.676L78.824 755.98V760.076H1V750.604ZM1 824.649L90.6 865.609V874.953L1 915.913V905.929L85.096 868.297V872.137L1 834.505V824.649ZM24.936 840.777L32.616 843.593L32.616 895.689L24.936 898.505V840.777ZM1 914.991H90.6V922.799L12.776 984.623V980.527H90.6V989.871H1V982.063L78.824 920.367V924.463H1V914.991ZM1 989.036L90.6 1030V1039.34L1 1080.3V1070.32L85.096 1032.68V1036.52L1 998.892V989.036ZM24.936 1005.16L32.616 1007.98V1060.08L24.936 1062.89V1005.16Z" fill="url(#paint0_linear_917_108)"/>
<path d="M63.5952 47.0895C63.348 46.3139 63.0156 45.6193 62.598 45.0057C62.1889 44.3835 61.6989 43.8551 61.1278 43.4205C60.5568 42.9773 59.9048 42.6406 59.1719 42.4105C58.4474 42.1804 57.6506 42.0653 56.7812 42.0653C55.3068 42.0653 53.9773 42.4446 52.7926 43.2031C51.608 43.9616 50.6705 45.0739 49.9801 46.5398C49.2983 47.9972 48.9574 49.7827 48.9574 51.8963C48.9574 54.0185 49.3026 55.8125 49.9929 57.2784C50.6832 58.7443 51.6293 59.8565 52.831 60.6151C54.0327 61.3736 55.4006 61.7528 56.9347 61.7528C58.358 61.7528 59.598 61.4631 60.6548 60.8835C61.7202 60.304 62.5426 59.4858 63.1222 58.429C63.7102 57.3636 64.0043 56.1108 64.0043 54.6705L65.027 54.8622H57.5355V51.6023H67.8267V54.581C67.8267 56.7798 67.358 58.6889 66.4205 60.3082C65.4915 61.919 64.2045 63.1634 62.5597 64.0412C60.9233 64.919 59.0483 65.358 56.9347 65.358C54.5653 65.358 52.4858 64.8125 50.696 63.7216C48.9148 62.6307 47.5256 61.0838 46.5284 59.081C45.5313 57.0696 45.0327 54.6832 45.0327 51.9219C45.0327 49.8338 45.3224 47.9588 45.902 46.2969C46.4815 44.6349 47.2955 43.2244 48.3438 42.0653C49.4006 40.8977 50.6406 40.0071 52.0639 39.3935C53.4957 38.7713 55.0597 38.4602 56.7557 38.4602C58.1705 38.4602 59.4872 38.669 60.706 39.0866C61.9332 39.5043 63.0241 40.0966 63.9787 40.8636C64.9418 41.6307 65.7386 42.5426 66.3693 43.5994C67 44.6477 67.4261 45.8111 67.6477 47.0895H63.5952ZM78.2489 65.4347C77.0046 65.4347 75.8796 65.2045 74.8739 64.7443C73.8683 64.2756 73.0714 63.598 72.4833 62.7116C71.9038 61.8253 71.614 60.7386 71.614 59.4517C71.614 58.3437 71.8271 57.4318 72.2532 56.7159C72.6793 56 73.2546 55.4332 73.979 55.0156C74.7035 54.598 75.5131 54.2827 76.408 54.0696C77.3029 53.8565 78.2148 53.6946 79.1438 53.5838C80.32 53.4474 81.2745 53.3366 82.0075 53.2514C82.7404 53.1577 83.2731 53.0085 83.6055 52.804C83.9379 52.5994 84.104 52.267 84.104 51.8068V51.7173C84.104 50.6009 83.7887 49.7358 83.158 49.1222C82.5359 48.5085 81.6069 48.2017 80.3711 48.2017C79.0842 48.2017 78.07 48.4872 77.3285 49.0582C76.5955 49.6207 76.0884 50.2472 75.8072 50.9375L72.2148 50.1193C72.641 48.9261 73.2631 47.9631 74.0813 47.2301C74.908 46.4886 75.8583 45.9517 76.9322 45.6193C78.006 45.2784 79.1353 45.108 80.32 45.108C81.104 45.108 81.935 45.2017 82.8129 45.3892C83.6992 45.5682 84.5259 45.9006 85.293 46.3864C86.0685 46.8722 86.7035 47.5668 87.1978 48.4702C87.6921 49.3651 87.9393 50.5284 87.9393 51.9602V65H84.2063V62.3153H84.0529C83.8058 62.8097 83.435 63.2955 82.9407 63.7727C82.4464 64.25 81.8114 64.6463 81.0359 64.9616C80.2603 65.277 79.3313 65.4347 78.2489 65.4347ZM79.0799 62.3665C80.1367 62.3665 81.0401 62.1577 81.7901 61.7401C82.5487 61.3224 83.1239 60.777 83.516 60.1037C83.9165 59.4219 84.1168 58.6932 84.1168 57.9176V55.3864C83.9805 55.5227 83.7163 55.6506 83.3242 55.7699C82.9407 55.8807 82.5018 55.9787 82.0075 56.0639C81.5131 56.1406 81.0316 56.2131 80.5629 56.2812C80.0941 56.3409 79.7021 56.392 79.3867 56.4347C78.6452 56.5284 77.9677 56.6861 77.354 56.9077C76.7489 57.1293 76.2631 57.4489 75.8967 57.8665C75.5387 58.2756 75.3597 58.821 75.3597 59.5028C75.3597 60.4489 75.7092 61.1648 76.408 61.6506C77.1069 62.1278 77.9975 62.3665 79.0799 62.3665ZM94.7436 72.3636C94.1726 72.3636 93.6527 72.3168 93.1839 72.223C92.7152 72.1378 92.3658 72.044 92.1357 71.9418L93.0561 68.8097C93.755 68.9972 94.3771 69.0781 94.9226 69.0526C95.468 69.027 95.9496 68.8224 96.3672 68.4389C96.7933 68.0554 97.1683 67.429 97.4922 66.5597L97.9652 65.2557L90.7805 45.3636H94.8714L99.8445 60.6023H100.049L105.022 45.3636H109.126L101.033 67.6207C100.658 68.6435 100.181 69.5085 99.6016 70.2159C99.022 70.9318 98.3317 71.4688 97.5305 71.8267C96.7294 72.1847 95.8004 72.3636 94.7436 72.3636ZM112.718 65V45.3636H116.413V48.483H116.617C116.975 47.4261 117.606 46.5952 118.509 45.9901C119.421 45.3764 120.452 45.0696 121.603 45.0696C121.842 45.0696 122.123 45.0781 122.447 45.0952C122.779 45.1122 123.039 45.1335 123.227 45.1591V48.8153C123.073 48.7727 122.8 48.7259 122.408 48.6747C122.016 48.6151 121.624 48.5852 121.232 48.5852C120.329 48.5852 119.523 48.777 118.816 49.1605C118.117 49.5355 117.563 50.0597 117.154 50.733C116.745 51.3977 116.54 52.1562 116.54 53.0085V65H112.718ZM126.534 65V45.3636H130.357V65H126.534ZM128.465 42.3338C127.8 42.3338 127.229 42.1122 126.752 41.669C126.283 41.2173 126.049 40.6804 126.049 40.0582C126.049 39.4276 126.283 38.8906 126.752 38.4474C127.229 37.9957 127.8 37.7699 128.465 37.7699C129.13 37.7699 129.696 37.9957 130.165 38.4474C130.642 38.8906 130.881 39.4276 130.881 40.0582C130.881 40.6804 130.642 41.2173 130.165 41.669C129.696 42.1122 129.13 42.3338 128.465 42.3338ZM135.499 65V45.3636H139.168V48.5597H139.411C139.82 47.4773 140.489 46.6335 141.418 46.0284C142.347 45.4148 143.46 45.108 144.755 45.108C146.067 45.108 147.167 45.4148 148.053 46.0284C148.948 46.642 149.609 47.4858 150.035 48.5597H150.239C150.708 47.5114 151.454 46.6761 152.477 46.054C153.499 45.4233 154.718 45.108 156.133 45.108C157.914 45.108 159.367 45.6662 160.492 46.7827C161.626 47.8991 162.192 49.5824 162.192 51.8324V65H158.37V52.1903C158.37 50.8608 158.008 49.8977 157.283 49.3011C156.559 48.7045 155.694 48.4062 154.688 48.4062C153.444 48.4062 152.477 48.7898 151.786 49.5568C151.096 50.3153 150.751 51.2912 150.751 52.4844V65H146.941V51.9474C146.941 50.8821 146.609 50.0256 145.944 49.3778C145.279 48.7301 144.414 48.4062 143.349 48.4062C142.624 48.4062 141.955 48.598 141.342 48.9815C140.737 49.3565 140.246 49.8807 139.871 50.554C139.505 51.2273 139.322 52.0071 139.322 52.8935V65H135.499ZM175.779 65.3963C173.844 65.3963 172.178 64.983 170.78 64.1562C169.391 63.321 168.317 62.1491 167.559 60.6406C166.809 59.1236 166.434 57.3466 166.434 55.3097C166.434 53.2983 166.809 51.5256 167.559 49.9915C168.317 48.4574 169.374 47.2599 170.729 46.3991C172.093 45.5384 173.686 45.108 175.51 45.108C176.618 45.108 177.692 45.2912 178.732 45.6577C179.772 46.0241 180.705 46.5994 181.532 47.3835C182.358 48.1676 183.01 49.1861 183.488 50.4389C183.965 51.6832 184.203 53.196 184.203 54.9773V56.3324H168.594V53.4688H180.458C180.458 52.4631 180.253 51.5724 179.844 50.7969C179.435 50.0128 178.86 49.3949 178.118 48.9432C177.385 48.4915 176.525 48.2656 175.536 48.2656C174.462 48.2656 173.525 48.5298 172.723 49.0582C171.931 49.5781 171.317 50.2599 170.882 51.1037C170.456 51.9389 170.243 52.8466 170.243 53.8267V56.0639C170.243 57.3764 170.473 58.4929 170.934 59.4134C171.402 60.3338 172.054 61.0369 172.89 61.5227C173.725 62 174.701 62.2386 175.817 62.2386C176.542 62.2386 177.202 62.1364 177.799 61.9318C178.395 61.7187 178.911 61.4034 179.346 60.9858C179.78 60.5682 180.113 60.0526 180.343 59.4389L183.961 60.0909C183.671 61.1562 183.151 62.0895 182.401 62.8906C181.659 63.6832 180.726 64.3011 179.601 64.7443C178.485 65.179 177.211 65.3963 175.779 65.3963ZM192.267 53.3409V65H188.445V45.3636H192.114V48.5597H192.357C192.808 47.5199 193.516 46.6847 194.479 46.054C195.45 45.4233 196.673 45.108 198.148 45.108C199.486 45.108 200.658 45.3892 201.663 45.9517C202.669 46.5057 203.449 47.3324 204.003 48.4318C204.557 49.5312 204.834 50.8906 204.834 52.5099V65H201.011V52.9702C201.011 51.5469 200.641 50.4347 199.899 49.6335C199.158 48.8239 198.139 48.419 196.844 48.419C195.957 48.419 195.169 48.6108 194.479 48.9943C193.797 49.3778 193.256 49.9403 192.855 50.6818C192.463 51.4148 192.267 52.3011 192.267 53.3409ZM213.476 58.3395L213.45 53.6733H214.115L221.939 45.3636H226.516L217.592 54.8239H216.991L213.476 58.3395ZM209.96 65V38.8182H213.783V65H209.96ZM222.361 65L215.33 55.6676L217.963 52.9957L227.053 65H222.361ZM242.438 56.8565V45.3636H246.273V65H242.515V61.5994H242.31C241.859 62.6477 241.134 63.5213 240.137 64.2202C239.148 64.9105 237.917 65.2557 236.442 65.2557C235.181 65.2557 234.065 64.9787 233.093 64.4247C232.13 63.8622 231.371 63.0312 230.817 61.9318C230.272 60.8324 229.999 59.473 229.999 57.8537V45.3636H233.822V57.3935C233.822 58.7315 234.192 59.7969 234.934 60.5895C235.675 61.3821 236.638 61.7784 237.823 61.7784C238.539 61.7784 239.251 61.5994 239.958 61.2415C240.674 60.8835 241.266 60.3423 241.735 59.6179C242.212 58.8935 242.447 57.973 242.438 56.8565ZM255.232 38.8182V65H251.409V38.8182H255.232ZM45.5696 116.364V89.3636H49.3026V92.5469H49.6222C49.8438 92.1378 50.1634 91.6648 50.581 91.1278C50.9986 90.5909 51.5781 90.1222 52.3196 89.7216C53.0611 89.3125 54.0412 89.108 55.2599 89.108C56.8452 89.108 58.2599 89.5085 59.5043 90.3097C60.7486 91.1108 61.7244 92.2656 62.4318 93.7741C63.1477 95.2827 63.5057 97.098 63.5057 99.2202C63.5057 101.342 63.152 103.162 62.4446 104.679C61.7372 106.187 60.7656 107.351 59.5298 108.169C58.294 108.979 56.8835 109.384 55.2983 109.384C54.1051 109.384 53.1293 109.183 52.3707 108.783C51.6207 108.382 51.0327 107.913 50.6065 107.376C50.1804 106.839 49.8523 106.362 49.6222 105.945H49.392V116.364H45.5696ZM49.3153 99.1818C49.3153 100.562 49.5156 101.773 49.9162 102.812C50.3168 103.852 50.8963 104.666 51.6548 105.254C52.4134 105.834 53.3423 106.124 54.4418 106.124C55.5838 106.124 56.5384 105.821 57.3054 105.216C58.0724 104.602 58.652 103.771 59.044 102.723C59.4446 101.675 59.6449 100.494 59.6449 99.1818C59.6449 97.8864 59.4489 96.723 59.0568 95.6918C58.6733 94.6605 58.0938 93.8466 57.3182 93.25C56.5511 92.6534 55.5923 92.3551 54.4418 92.3551C53.3338 92.3551 52.3963 92.6406 51.6293 93.2116C50.8707 93.7827 50.2955 94.5795 49.9034 95.6023C49.5114 96.625 49.3153 97.8182 49.3153 99.1818ZM67.7884 109V89.3636H71.483V92.483H71.6875C72.0455 91.4261 72.6761 90.5952 73.5795 89.9901C74.4915 89.3764 75.5227 89.0696 76.6733 89.0696C76.9119 89.0696 77.1932 89.0781 77.517 89.0952C77.8494 89.1122 78.1094 89.1335 78.2969 89.1591V92.8153C78.1435 92.7727 77.8707 92.7259 77.4787 92.6747C77.0866 92.6151 76.6946 92.5852 76.3026 92.5852C75.3991 92.5852 74.5938 92.777 73.8864 93.1605C73.1875 93.5355 72.6335 94.0597 72.2244 94.733C71.8153 95.3977 71.6108 96.1562 71.6108 97.0085V109H67.7884ZM89.1729 109.396C87.332 109.396 85.7255 108.974 84.3533 108.131C82.9812 107.287 81.9158 106.107 81.1573 104.589C80.3988 103.072 80.0195 101.3 80.0195 99.2713C80.0195 97.2344 80.3988 95.4531 81.1573 93.9276C81.9158 92.402 82.9812 91.2173 84.3533 90.3736C85.7255 89.5298 87.332 89.108 89.1729 89.108C91.0138 89.108 92.6204 89.5298 93.9925 90.3736C95.3647 91.2173 96.43 92.402 97.1886 93.9276C97.9471 95.4531 98.3264 97.2344 98.3264 99.2713C98.3264 101.3 97.9471 103.072 97.1886 104.589C96.43 106.107 95.3647 107.287 93.9925 108.131C92.6204 108.974 91.0138 109.396 89.1729 109.396ZM89.1857 106.188C90.3789 106.188 91.3675 105.872 92.1516 105.241C92.9357 104.611 93.5153 103.771 93.8903 102.723C94.2738 101.675 94.4656 100.52 94.4656 99.2585C94.4656 98.0057 94.2738 96.8551 93.8903 95.8068C93.5153 94.75 92.9357 93.902 92.1516 93.2628C91.3675 92.6236 90.3789 92.304 89.1857 92.304C87.984 92.304 86.9869 92.6236 86.1942 93.2628C85.4102 93.902 84.8263 94.75 84.4428 95.8068C84.0678 96.8551 83.8803 98.0057 83.8803 99.2585C83.8803 100.52 84.0678 101.675 84.4428 102.723C84.8263 103.771 85.4102 104.611 86.1942 105.241C86.9869 105.872 87.984 106.188 89.1857 106.188ZM102.593 89.3636H106.415V110.278C106.415 111.591 106.177 112.699 105.7 113.602C105.231 114.506 104.532 115.192 103.603 115.661C102.683 116.129 101.545 116.364 100.19 116.364C100.053 116.364 99.9254 116.364 99.8061 116.364C99.6783 116.364 99.5462 116.359 99.4098 116.351V113.065C99.5291 113.065 99.6357 113.065 99.7294 113.065C99.8146 113.065 99.9126 113.065 100.023 113.065C100.927 113.065 101.579 112.822 101.979 112.337C102.388 111.859 102.593 111.165 102.593 110.253V89.3636ZM104.485 86.3338C103.82 86.3338 103.249 86.1122 102.772 85.669C102.303 85.2173 102.069 84.6804 102.069 84.0582C102.069 83.4276 102.303 82.8906 102.772 82.4474C103.249 81.9957 103.82 81.7699 104.485 81.7699C105.15 81.7699 105.717 81.9957 106.185 82.4474C106.663 82.8906 106.901 83.4276 106.901 84.0582C106.901 84.6804 106.663 85.2173 106.185 85.669C105.717 86.1122 105.15 86.3338 104.485 86.3338ZM120.021 109.396C118.086 109.396 116.42 108.983 115.022 108.156C113.633 107.321 112.559 106.149 111.801 104.641C111.051 103.124 110.676 101.347 110.676 99.3097C110.676 97.2983 111.051 95.5256 111.801 93.9915C112.559 92.4574 113.616 91.2599 114.971 90.3991C116.335 89.5384 117.929 89.108 119.752 89.108C120.86 89.108 121.934 89.2912 122.974 89.6577C124.014 90.0241 124.947 90.5994 125.774 91.3835C126.6 92.1676 127.252 93.1861 127.73 94.4389C128.207 95.6832 128.446 97.196 128.446 98.9773V100.332H112.836V97.4688H124.7C124.7 96.4631 124.495 95.5724 124.086 94.7969C123.677 94.0128 123.102 93.3949 122.36 92.9432C121.627 92.4915 120.767 92.2656 119.778 92.2656C118.704 92.2656 117.767 92.5298 116.966 93.0582C116.173 93.5781 115.559 94.2599 115.125 95.1037C114.699 95.9389 114.485 96.8466 114.485 97.8267V100.064C114.485 101.376 114.716 102.493 115.176 103.413C115.645 104.334 116.297 105.037 117.132 105.523C117.967 106 118.943 106.239 120.059 106.239C120.784 106.239 121.444 106.136 122.041 105.932C122.637 105.719 123.153 105.403 123.588 104.986C124.022 104.568 124.355 104.053 124.585 103.439L128.203 104.091C127.913 105.156 127.393 106.089 126.643 106.891C125.902 107.683 124.968 108.301 123.843 108.744C122.727 109.179 121.453 109.396 120.021 109.396ZM136.509 97.3409V109H132.687V89.3636H136.356V92.5597H136.599C137.05 91.5199 137.758 90.6847 138.721 90.054C139.692 89.4233 140.915 89.108 142.39 89.108C143.728 89.108 144.9 89.3892 145.906 89.9517C146.911 90.5057 147.691 91.3324 148.245 92.4318C148.799 93.5312 149.076 94.8906 149.076 96.5099V109H145.254V96.9702C145.254 95.5469 144.883 94.4347 144.141 93.6335C143.4 92.8239 142.381 92.419 141.086 92.419C140.2 92.419 139.411 92.6108 138.721 92.9943C138.039 93.3778 137.498 93.9403 137.097 94.6818C136.705 95.4148 136.509 96.3011 136.509 97.3409ZM154.202 109V89.3636H158.025V109H154.202ZM156.133 86.3338C155.468 86.3338 154.897 86.1122 154.42 85.669C153.951 85.2173 153.717 84.6804 153.717 84.0582C153.717 83.4276 153.951 82.8906 154.42 82.4474C154.897 81.9957 155.468 81.7699 156.133 81.7699C156.798 81.7699 157.364 81.9957 157.833 82.4474C158.31 82.8906 158.549 83.4276 158.549 84.0582C158.549 84.6804 158.31 85.2173 157.833 85.669C157.364 86.1122 156.798 86.3338 156.133 86.3338ZM162.758 109V106.379L173.395 92.8665V92.6875H163.103V89.3636H178.163V92.1506L167.936 105.497V105.676H178.521V109H162.758ZM189.819 109.384C188.234 109.384 186.819 108.979 185.575 108.169C184.339 107.351 183.367 106.187 182.66 104.679C181.961 103.162 181.612 101.342 181.612 99.2202C181.612 97.098 181.965 95.2827 182.673 93.7741C183.388 92.2656 184.369 91.1108 185.613 90.3097C186.857 89.5085 188.268 89.108 189.844 89.108C191.063 89.108 192.043 89.3125 192.785 89.7216C193.535 90.1222 194.114 90.5909 194.523 91.1278C194.941 91.6648 195.265 92.1378 195.495 92.5469H195.725V82.8182H199.548V109H195.815V105.945H195.495C195.265 106.362 194.933 106.839 194.498 107.376C194.072 107.913 193.484 108.382 192.734 108.783C191.984 109.183 191.012 109.384 189.819 109.384ZM190.663 106.124C191.762 106.124 192.691 105.834 193.45 105.254C194.217 104.666 194.796 103.852 195.188 102.812C195.589 101.773 195.789 100.562 195.789 99.1818C195.789 97.8182 195.593 96.625 195.201 95.6023C194.809 94.5795 194.234 93.7827 193.475 93.2116C192.717 92.6406 191.779 92.3551 190.663 92.3551C189.512 92.3551 188.553 92.6534 187.786 93.25C187.019 93.8466 186.44 94.6605 186.048 95.6918C185.664 96.723 185.472 97.8864 185.472 99.1818C185.472 100.494 185.668 101.675 186.06 102.723C186.452 103.771 187.032 104.602 187.799 105.216C188.575 105.821 189.529 106.124 190.663 106.124ZM213.466 109.396C211.532 109.396 209.865 108.983 208.468 108.156C207.078 107.321 206.005 106.149 205.246 104.641C204.496 103.124 204.121 101.347 204.121 99.3097C204.121 97.2983 204.496 95.5256 205.246 93.9915C206.005 92.4574 207.061 91.2599 208.417 90.3991C209.78 89.5384 211.374 89.108 213.198 89.108C214.306 89.108 215.38 89.2912 216.419 89.6577C217.459 90.0241 218.392 90.5994 219.219 91.3835C220.046 92.1676 220.698 93.1861 221.175 94.4389C221.652 95.6832 221.891 97.196 221.891 98.9773V100.332H206.282V97.4688H218.145C218.145 96.4631 217.941 95.5724 217.532 94.7969C217.123 94.0128 216.547 93.3949 215.806 92.9432C215.073 92.4915 214.212 92.2656 213.223 92.2656C212.15 92.2656 211.212 92.5298 210.411 93.0582C209.618 93.5781 209.005 94.2599 208.57 95.1037C208.144 95.9389 207.931 96.8466 207.931 97.8267V100.064C207.931 101.376 208.161 102.493 208.621 103.413C209.09 104.334 209.742 105.037 210.577 105.523C211.412 106 212.388 106.239 213.505 106.239C214.229 106.239 214.89 106.136 215.486 105.932C216.083 105.719 216.598 105.403 217.033 104.986C217.468 104.568 217.8 104.053 218.03 103.439L221.648 104.091C221.358 105.156 220.838 106.089 220.088 106.891C219.347 107.683 218.414 108.301 217.289 108.744C216.172 109.179 214.898 109.396 213.466 109.396ZM49.0852 146.339L49.0597 141.673H49.7244L57.5483 133.364H62.125L53.2017 142.824H52.6009L49.0852 146.339ZM45.5696 153V126.818H49.392V153H45.5696ZM57.9702 153L50.9389 143.668L53.5724 140.996L62.6619 153H57.9702ZM71.3232 153.435C70.0788 153.435 68.9538 153.205 67.9482 152.744C66.9425 152.276 66.1456 151.598 65.5575 150.712C64.978 149.825 64.6882 148.739 64.6882 147.452C64.6882 146.344 64.9013 145.432 65.3274 144.716C65.7536 144 66.3288 143.433 67.0533 143.016C67.7777 142.598 68.5874 142.283 69.4822 142.07C70.3771 141.857 71.2891 141.695 72.218 141.584C73.3942 141.447 74.3487 141.337 75.0817 141.251C75.8146 141.158 76.3473 141.009 76.6797 140.804C77.0121 140.599 77.1783 140.267 77.1783 139.807V139.717C77.1783 138.601 76.8629 137.736 76.2322 137.122C75.6101 136.509 74.6811 136.202 73.4453 136.202C72.1584 136.202 71.1442 136.487 70.4027 137.058C69.6697 137.621 69.1626 138.247 68.8814 138.938L65.2891 138.119C65.7152 136.926 66.3374 135.963 67.1555 135.23C67.9822 134.489 68.9325 133.952 70.0064 133.619C71.0803 133.278 72.2095 133.108 73.3942 133.108C74.1783 133.108 75.0092 133.202 75.8871 133.389C76.7734 133.568 77.6001 133.901 78.3672 134.386C79.1428 134.872 79.7777 135.567 80.272 136.47C80.7663 137.365 81.0135 138.528 81.0135 139.96V153H77.2805V150.315H77.1271C76.88 150.81 76.5092 151.295 76.0149 151.773C75.5206 152.25 74.8857 152.646 74.1101 152.962C73.3345 153.277 72.4055 153.435 71.3232 153.435ZM72.1541 150.366C73.2109 150.366 74.1143 150.158 74.8643 149.74C75.6229 149.322 76.1982 148.777 76.5902 148.104C76.9908 147.422 77.1911 146.693 77.1911 145.918V143.386C77.0547 143.523 76.7905 143.651 76.3984 143.77C76.0149 143.881 75.576 143.979 75.0817 144.064C74.5874 144.141 74.1058 144.213 73.6371 144.281C73.1683 144.341 72.7763 144.392 72.4609 144.435C71.7195 144.528 71.0419 144.686 70.4283 144.908C69.8232 145.129 69.3374 145.449 68.9709 145.866C68.6129 146.276 68.4339 146.821 68.4339 147.503C68.4339 148.449 68.7834 149.165 69.4822 149.651C70.1811 150.128 71.0717 150.366 72.1541 150.366ZM85.6957 153V150.379L96.332 136.866V136.688H86.0408V133.364H101.1V136.151L90.8732 149.497V149.676H101.458V153H85.6957ZM111.683 153.435C110.438 153.435 109.313 153.205 108.308 152.744C107.302 152.276 106.505 151.598 105.917 150.712C105.337 149.825 105.048 148.739 105.048 147.452C105.048 146.344 105.261 145.432 105.687 144.716C106.113 144 106.688 143.433 107.413 143.016C108.137 142.598 108.947 142.283 109.842 142.07C110.737 141.857 111.648 141.695 112.577 141.584C113.754 141.447 114.708 141.337 115.441 141.251C116.174 141.158 116.707 141.009 117.039 140.804C117.371 140.599 117.538 140.267 117.538 139.807V139.717C117.538 138.601 117.222 137.736 116.592 137.122C115.969 136.509 115.04 136.202 113.805 136.202C112.518 136.202 111.504 136.487 110.762 137.058C110.029 137.621 109.522 138.247 109.241 138.938L105.648 138.119C106.075 136.926 106.697 135.963 107.515 135.23C108.342 134.489 109.292 133.952 110.366 133.619C111.44 133.278 112.569 133.108 113.754 133.108C114.538 133.108 115.369 133.202 116.246 133.389C117.133 133.568 117.96 133.901 118.727 134.386C119.502 134.872 120.137 135.567 120.631 136.47C121.126 137.365 121.373 138.528 121.373 139.96V153H117.64V150.315H117.487C117.239 150.81 116.869 151.295 116.374 151.773C115.88 152.25 115.245 152.646 114.469 152.962C113.694 153.277 112.765 153.435 111.683 153.435ZM112.513 150.366C113.57 150.366 114.474 150.158 115.224 149.74C115.982 149.322 116.558 148.777 116.95 148.104C117.35 147.422 117.55 146.693 117.55 145.918V143.386C117.414 143.523 117.15 143.651 116.758 143.77C116.374 143.881 115.935 143.979 115.441 144.064C114.947 144.141 114.465 144.213 113.996 144.281C113.528 144.341 113.136 144.392 112.82 144.435C112.079 144.528 111.401 144.686 110.788 144.908C110.183 145.129 109.697 145.449 109.33 145.866C108.972 146.276 108.793 146.821 108.793 147.503C108.793 148.449 109.143 149.165 109.842 149.651C110.54 150.128 111.431 150.366 112.513 150.366ZM130.287 141.341V153H126.464V133.364H130.133V136.56H130.376C130.828 135.52 131.535 134.685 132.498 134.054C133.47 133.423 134.693 133.108 136.167 133.108C137.505 133.108 138.677 133.389 139.683 133.952C140.689 134.506 141.468 135.332 142.022 136.432C142.576 137.531 142.853 138.891 142.853 140.51V153H139.031V140.97C139.031 139.547 138.66 138.435 137.919 137.634C137.177 136.824 136.159 136.419 134.863 136.419C133.977 136.419 133.189 136.611 132.498 136.994C131.816 137.378 131.275 137.94 130.875 138.682C130.483 139.415 130.287 140.301 130.287 141.341ZM156.251 153.396C154.35 153.396 152.714 152.966 151.342 152.105C149.978 151.236 148.93 150.038 148.197 148.513C147.464 146.987 147.098 145.24 147.098 143.271C147.098 141.277 147.473 139.517 148.223 137.991C148.973 136.457 150.029 135.26 151.393 134.399C152.757 133.538 154.363 133.108 156.213 133.108C157.704 133.108 159.034 133.385 160.201 133.939C161.369 134.484 162.311 135.251 163.027 136.24C163.751 137.229 164.181 138.384 164.318 139.705H160.598C160.393 138.784 159.924 137.991 159.191 137.327C158.467 136.662 157.495 136.33 156.277 136.33C155.211 136.33 154.278 136.611 153.477 137.173C152.684 137.727 152.066 138.52 151.623 139.551C151.18 140.574 150.958 141.784 150.958 143.182C150.958 144.614 151.176 145.849 151.61 146.889C152.045 147.929 152.659 148.734 153.451 149.305C154.252 149.876 155.194 150.162 156.277 150.162C157.001 150.162 157.657 150.03 158.245 149.766C158.842 149.493 159.341 149.105 159.741 148.602C160.15 148.099 160.436 147.494 160.598 146.787H164.318C164.181 148.057 163.768 149.19 163.078 150.188C162.387 151.185 161.463 151.969 160.304 152.54C159.153 153.111 157.802 153.396 156.251 153.396ZM168.406 153V133.364H172.228V153H168.406ZM181.193 141.341V153H177.37V133.364H181.039V136.56H181.282C181.734 135.52 182.441 134.685 183.404 134.054C184.376 133.423 185.599 133.108 187.074 133.108C188.412 133.108 189.583 133.389 190.589 133.952C191.595 134.506 192.375 135.332 192.929 136.432C193.483 137.531 193.76 138.891 193.76 140.51V153H189.937V140.97C189.937 139.547 189.566 138.435 188.825 137.634C188.083 136.824 187.065 136.419 185.77 136.419C184.883 136.419 184.095 136.611 183.404 136.994C182.723 137.378 182.181 137.94 181.781 138.682C181.389 139.415 181.193 140.301 181.193 141.341ZM198.886 153V133.364H202.708V153H198.886ZM207.442 153V150.379L218.078 136.866V136.688H207.787V133.364H222.847V136.151L212.619 149.497V149.676H223.205V153H207.442ZM227.714 153V133.364H231.537V153H227.714ZM51.2841 197.435C50.0398 197.435 48.9148 197.205 47.9091 196.744C46.9034 196.276 46.1065 195.598 45.5185 194.712C44.9389 193.825 44.6491 192.739 44.6491 191.452C44.6491 190.344 44.8622 189.432 45.2884 188.716C45.7145 188 46.2898 187.433 47.0142 187.016C47.7386 186.598 48.5483 186.283 49.4432 186.07C50.3381 185.857 51.25 185.695 52.179 185.584C53.3551 185.447 54.3097 185.337 55.0426 185.251C55.7756 185.158 56.3082 185.009 56.6406 184.804C56.973 184.599 57.1392 184.267 57.1392 183.807V183.717C57.1392 182.601 56.8239 181.736 56.1932 181.122C55.571 180.509 54.642 180.202 53.4062 180.202C52.1193 180.202 51.1051 180.487 50.3636 181.058C49.6307 181.621 49.1236 182.247 48.8423 182.938L45.25 182.119C45.6761 180.926 46.2983 179.963 47.1165 179.23C47.9432 178.489 48.8935 177.952 49.9673 177.619C51.0412 177.278 52.1705 177.108 53.3551 177.108C54.1392 177.108 54.9702 177.202 55.848 177.389C56.7344 177.568 57.5611 177.901 58.3281 178.386C59.1037 178.872 59.7386 179.567 60.233 180.47C60.7273 181.365 60.9744 182.528 60.9744 183.96V197H57.2415V194.315H57.0881C56.8409 194.81 56.4702 195.295 55.9759 195.773C55.4815 196.25 54.8466 196.646 54.071 196.962C53.2955 197.277 52.3665 197.435 51.2841 197.435ZM52.1151 194.366C53.1719 194.366 54.0753 194.158 54.8253 193.74C55.5838 193.322 56.1591 192.777 56.5511 192.104C56.9517 191.422 57.152 190.693 57.152 189.918V187.386C57.0156 187.523 56.7514 187.651 56.3594 187.77C55.9759 187.881 55.5369 187.979 55.0426 188.064C54.5483 188.141 54.0668 188.213 53.598 188.281C53.1293 188.341 52.7372 188.392 52.4219 188.435C51.6804 188.528 51.0028 188.686 50.3892 188.908C49.7841 189.129 49.2983 189.449 48.9318 189.866C48.5739 190.276 48.3949 190.821 48.3949 191.503C48.3949 192.449 48.7443 193.165 49.4432 193.651C50.142 194.128 51.0327 194.366 52.1151 194.366ZM66.0657 197V177.364H69.7603V180.483H69.9648C70.3228 179.426 70.9535 178.595 71.8569 177.99C72.7688 177.376 73.8001 177.07 74.9506 177.07C75.1893 177.07 75.4705 177.078 75.7944 177.095C76.1268 177.112 76.3867 177.134 76.5742 177.159V180.815C76.4208 180.773 76.1481 180.726 75.756 180.675C75.364 180.615 74.9719 180.585 74.5799 180.585C73.6765 180.585 72.8711 180.777 72.1637 181.161C71.4648 181.536 70.9109 182.06 70.5018 182.733C70.0927 183.398 69.8881 184.156 69.8881 185.009V197H66.0657ZM90.2085 177.364V180.432H79.4826V177.364H90.2085ZM82.359 172.659H86.1815V191.234C86.1815 191.976 86.2923 192.534 86.5138 192.909C86.7354 193.276 87.021 193.527 87.3704 193.663C87.7283 193.791 88.1161 193.855 88.5337 193.855C88.8406 193.855 89.109 193.834 89.3391 193.791C89.5692 193.749 89.7482 193.714 89.8761 193.689L90.5664 196.847C90.3448 196.932 90.0295 197.017 89.6204 197.102C89.2113 197.196 88.6999 197.247 88.0863 197.256C87.0806 197.273 86.1431 197.094 85.2738 196.719C84.4045 196.344 83.7013 195.764 83.1644 194.98C82.6275 194.196 82.359 193.212 82.359 192.027V172.659ZM103.603 177.364V180.432H92.8771V177.364H103.603ZM95.7536 172.659H99.576V191.234C99.576 191.976 99.6868 192.534 99.9084 192.909C100.13 193.276 100.415 193.527 100.765 193.663C101.123 193.791 101.511 193.855 101.928 193.855C102.235 193.855 102.504 193.834 102.734 193.791C102.964 193.749 103.143 193.714 103.271 193.689L103.961 196.847C103.739 196.932 103.424 197.017 103.015 197.102C102.606 197.196 102.094 197.247 101.481 197.256C100.475 197.273 99.5376 197.094 98.6683 196.719C97.799 196.344 97.0959 195.764 96.5589 194.98C96.022 194.196 95.7536 193.212 95.7536 192.027V172.659ZM107.831 197V177.364H111.654V197H107.831ZM116.796 197V177.364H120.491V180.483H120.695C121.053 179.426 121.684 178.595 122.587 177.99C123.499 177.376 124.531 177.07 125.681 177.07C125.92 177.07 126.201 177.078 126.525 177.095C126.857 177.112 127.117 177.134 127.305 177.159V180.815C127.151 180.773 126.879 180.726 126.487 180.675C126.094 180.615 125.702 180.585 125.31 180.585C124.407 180.585 123.602 180.777 122.894 181.161C122.195 181.536 121.641 182.06 121.232 182.733C120.823 183.398 120.619 184.156 120.619 185.009V197H116.796ZM130.613 197V177.364H134.282V180.56H134.525C134.934 179.477 135.603 178.634 136.532 178.028C137.461 177.415 138.573 177.108 139.868 177.108C141.181 177.108 142.28 177.415 143.167 178.028C144.061 178.642 144.722 179.486 145.148 180.56H145.353C145.821 179.511 146.567 178.676 147.59 178.054C148.613 177.423 149.831 177.108 151.246 177.108C153.027 177.108 154.48 177.666 155.605 178.783C156.739 179.899 157.306 181.582 157.306 183.832V197H153.483V184.19C153.483 182.861 153.121 181.898 152.397 181.301C151.672 180.705 150.807 180.406 149.801 180.406C148.557 180.406 147.59 180.79 146.9 181.557C146.209 182.315 145.864 183.291 145.864 184.484V197H142.054V183.947C142.054 182.882 141.722 182.026 141.057 181.378C140.392 180.73 139.527 180.406 138.462 180.406C137.738 180.406 137.069 180.598 136.455 180.982C135.85 181.357 135.36 181.881 134.985 182.554C134.618 183.227 134.435 184.007 134.435 184.893V197H130.613ZM168.143 197.435C166.899 197.435 165.774 197.205 164.768 196.744C163.763 196.276 162.966 195.598 162.378 194.712C161.798 193.825 161.509 192.739 161.509 191.452C161.509 190.344 161.722 189.432 162.148 188.716C162.574 188 163.149 187.433 163.874 187.016C164.598 186.598 165.408 186.283 166.303 186.07C167.197 185.857 168.109 185.695 169.038 185.584C170.214 185.447 171.169 185.337 171.902 185.251C172.635 185.158 173.168 185.009 173.5 184.804C173.832 184.599 173.999 184.267 173.999 183.807V183.717C173.999 182.601 173.683 181.736 173.053 181.122C172.43 180.509 171.501 180.202 170.266 180.202C168.979 180.202 167.964 180.487 167.223 181.058C166.49 181.621 165.983 182.247 165.702 182.938L162.109 182.119C162.536 180.926 163.158 179.963 163.976 179.23C164.803 178.489 165.753 177.952 166.827 177.619C167.901 177.278 169.03 177.108 170.214 177.108C170.999 177.108 171.83 177.202 172.707 177.389C173.594 177.568 174.42 177.901 175.188 178.386C175.963 178.872 176.598 179.567 177.092 180.47C177.587 181.365 177.834 182.528 177.834 183.96V197H174.101V194.315H173.947C173.7 194.81 173.33 195.295 172.835 195.773C172.341 196.25 171.706 196.646 170.93 196.962C170.155 197.277 169.226 197.435 168.143 197.435ZM168.974 194.366C170.031 194.366 170.935 194.158 171.685 193.74C172.443 193.322 173.018 192.777 173.411 192.104C173.811 191.422 174.011 190.693 174.011 189.918V187.386C173.875 187.523 173.611 187.651 173.219 187.77C172.835 187.881 172.396 187.979 171.902 188.064C171.408 188.141 170.926 188.213 170.457 188.281C169.989 188.341 169.597 188.392 169.281 188.435C168.54 188.528 167.862 188.686 167.249 188.908C166.643 189.129 166.158 189.449 165.791 189.866C165.433 190.276 165.254 190.821 165.254 191.503C165.254 192.449 165.604 193.165 166.303 193.651C167.001 194.128 167.892 194.366 168.974 194.366ZM186.441 190.339L186.415 185.673H187.08L194.904 177.364H199.48L190.557 186.824H189.956L186.441 190.339ZM182.925 197V170.818H186.748V197H182.925ZM195.326 197L188.294 187.668L190.928 184.996L200.017 197H195.326ZM45.5696 241V221.364H49.392V241H45.5696ZM47.5 218.334C46.8352 218.334 46.2642 218.112 45.7869 217.669C45.3182 217.217 45.0838 216.68 45.0838 216.058C45.0838 215.428 45.3182 214.891 45.7869 214.447C46.2642 213.996 46.8352 213.77 47.5 213.77C48.1648 213.77 48.7315 213.996 49.2003 214.447C49.6776 214.891 49.9162 215.428 49.9162 216.058C49.9162 216.68 49.6776 217.217 49.2003 217.669C48.7315 218.112 48.1648 218.334 47.5 218.334ZM69.2489 226.158L65.7844 226.771C65.6396 226.328 65.4094 225.906 65.0941 225.506C64.7873 225.105 64.3697 224.777 63.8413 224.521C63.3129 224.266 62.6523 224.138 61.8597 224.138C60.7773 224.138 59.8739 224.381 59.1495 224.866C58.4251 225.344 58.0629 225.962 58.0629 226.72C58.0629 227.376 58.3058 227.905 58.7915 228.305C59.2773 228.706 60.0614 229.034 61.1438 229.29L64.2631 230.006C66.07 230.423 67.4165 231.067 68.3029 231.936C69.1893 232.805 69.6325 233.935 69.6325 235.324C69.6325 236.5 69.2915 237.548 68.6097 238.469C67.9364 239.381 66.9947 240.097 65.7844 240.616C64.5827 241.136 63.1893 241.396 61.604 241.396C59.4052 241.396 57.6112 240.928 56.2219 239.99C54.8327 239.044 53.9805 237.702 53.6651 235.963L57.3597 235.401C57.5898 236.364 58.0629 237.092 58.7788 237.587C59.4947 238.072 60.4279 238.315 61.5785 238.315C62.8313 238.315 63.8327 238.055 64.5827 237.536C65.3327 237.007 65.7077 236.364 65.7077 235.605C65.7077 234.991 65.4776 234.476 65.0174 234.058C64.5657 233.641 63.8711 233.325 62.9336 233.112L59.6097 232.384C57.7773 231.966 56.4222 231.301 55.5444 230.389C54.6751 229.477 54.2404 228.322 54.2404 226.925C54.2404 225.766 54.5643 224.751 55.212 223.882C55.8597 223.013 56.7546 222.335 57.8967 221.849C59.0387 221.355 60.3469 221.108 61.8214 221.108C63.9435 221.108 65.614 221.568 66.8327 222.489C68.0515 223.401 68.8569 224.624 69.2489 226.158ZM83.0014 221.364V224.432H72.2756V221.364H83.0014ZM75.152 216.659H78.9744V235.234C78.9744 235.976 79.0852 236.534 79.3068 236.909C79.5284 237.276 79.8139 237.527 80.1634 237.663C80.5213 237.791 80.9091 237.855 81.3267 237.855C81.6335 237.855 81.902 237.834 82.1321 237.791C82.3622 237.749 82.5412 237.714 82.669 237.689L83.3594 240.847C83.1378 240.932 82.8224 241.017 82.4134 241.102C82.0043 241.196 81.4929 241.247 80.8793 241.256C79.8736 241.273 78.9361 241.094 78.0668 240.719C77.1974 240.344 76.4943 239.764 75.9574 238.98C75.4205 238.196 75.152 237.212 75.152 236.027V216.659ZM95.4819 241.396C93.5472 241.396 91.881 240.983 90.4833 240.156C89.0941 239.321 88.0202 238.149 87.2617 236.641C86.5117 235.124 86.1367 233.347 86.1367 231.31C86.1367 229.298 86.5117 227.526 87.2617 225.991C88.0202 224.457 89.0771 223.26 90.4322 222.399C91.7958 221.538 93.3896 221.108 95.2134 221.108C96.3214 221.108 97.3952 221.291 98.435 221.658C99.4748 222.024 100.408 222.599 101.235 223.384C102.061 224.168 102.713 225.186 103.191 226.439C103.668 227.683 103.907 229.196 103.907 230.977V232.332H88.2972V229.469H100.161C100.161 228.463 99.9563 227.572 99.5472 226.797C99.1381 226.013 98.5629 225.395 97.8214 224.943C97.0884 224.491 96.2276 224.266 95.239 224.266C94.1651 224.266 93.2276 224.53 92.4265 225.058C91.6339 225.578 91.0202 226.26 90.5856 227.104C90.1594 227.939 89.9464 228.847 89.9464 229.827V232.064C89.9464 233.376 90.1765 234.493 90.6367 235.413C91.1055 236.334 91.7575 237.037 92.5927 237.523C93.4279 238 94.4038 238.239 95.5202 238.239C96.2447 238.239 96.9052 238.136 97.5018 237.932C98.0984 237.719 98.614 237.403 99.0487 236.986C99.4833 236.568 99.8157 236.053 100.046 235.439L103.664 236.091C103.374 237.156 102.854 238.089 102.104 238.891C101.363 239.683 100.429 240.301 99.3043 240.744C98.1879 241.179 96.9137 241.396 95.4819 241.396ZM108.148 241V221.364H111.842V224.483H112.047C112.405 223.426 113.036 222.595 113.939 221.99C114.851 221.376 115.882 221.07 117.033 221.07C117.271 221.07 117.553 221.078 117.876 221.095C118.209 221.112 118.469 221.134 118.656 221.159V224.815C118.503 224.773 118.23 224.726 117.838 224.675C117.446 224.615 117.054 224.585 116.662 224.585C115.759 224.585 114.953 224.777 114.246 225.161C113.547 225.536 112.993 226.06 112.584 226.733C112.175 227.398 111.97 228.156 111.97 229.009V241H108.148ZM131.491 241V221.364H135.161V224.56H135.403C135.813 223.477 136.482 222.634 137.411 222.028C138.339 221.415 139.452 221.108 140.747 221.108C142.06 221.108 143.159 221.415 144.045 222.028C144.94 222.642 145.601 223.486 146.027 224.56H146.232C146.7 223.511 147.446 222.676 148.469 222.054C149.491 221.423 150.71 221.108 152.125 221.108C153.906 221.108 155.359 221.666 156.484 222.783C157.618 223.899 158.185 225.582 158.185 227.832V241H154.362V228.19C154.362 226.861 154 225.898 153.276 225.301C152.551 224.705 151.686 224.406 150.68 224.406C149.436 224.406 148.469 224.79 147.778 225.557C147.088 226.315 146.743 227.291 146.743 228.484V241H142.933V227.947C142.933 226.882 142.601 226.026 141.936 225.378C141.271 224.73 140.406 224.406 139.341 224.406C138.616 224.406 137.947 224.598 137.334 224.982C136.729 225.357 136.239 225.881 135.864 226.554C135.497 227.227 135.314 228.007 135.314 228.893V241H131.491ZM163.308 241V221.364H167.13V241H163.308ZM165.238 218.334C164.574 218.334 164.002 218.112 163.525 217.669C163.056 217.217 162.822 216.68 162.822 216.058C162.822 215.428 163.056 214.891 163.525 214.447C164.002 213.996 164.574 213.77 165.238 213.77C165.903 213.77 166.47 213.996 166.939 214.447C167.416 214.891 167.654 215.428 167.654 216.058C167.654 216.68 167.416 217.217 166.939 217.669C166.47 218.112 165.903 218.334 165.238 218.334ZM186.987 226.158L183.523 226.771C183.378 226.328 183.148 225.906 182.832 225.506C182.526 225.105 182.108 224.777 181.58 224.521C181.051 224.266 180.391 224.138 179.598 224.138C178.516 224.138 177.612 224.381 176.888 224.866C176.163 225.344 175.801 225.962 175.801 226.72C175.801 227.376 176.044 227.905 176.53 228.305C177.016 228.706 177.8 229.034 178.882 229.29L182.001 230.006C183.808 230.423 185.155 231.067 186.041 231.936C186.928 232.805 187.371 233.935 187.371 235.324C187.371 236.5 187.03 237.548 186.348 238.469C185.675 239.381 184.733 240.097 183.523 240.616C182.321 241.136 180.928 241.396 179.342 241.396C177.143 241.396 175.349 240.928 173.96 239.99C172.571 239.044 171.719 237.702 171.403 235.963L175.098 235.401C175.328 236.364 175.801 237.092 176.517 237.587C177.233 238.072 178.166 238.315 179.317 238.315C180.57 238.315 181.571 238.055 182.321 237.536C183.071 237.007 183.446 236.364 183.446 235.605C183.446 234.991 183.216 234.476 182.756 234.058C182.304 233.641 181.609 233.325 180.672 233.112L177.348 232.384C175.516 231.966 174.161 231.301 173.283 230.389C172.413 229.477 171.979 228.322 171.979 226.925C171.979 225.766 172.303 224.751 172.95 223.882C173.598 223.013 174.493 222.335 175.635 221.849C176.777 221.355 178.085 221.108 179.56 221.108C181.682 221.108 183.352 221.568 184.571 222.489C185.79 223.401 186.595 224.624 186.987 226.158ZM191.574 241V221.364H195.396V241H191.574ZM193.504 218.334C192.839 218.334 192.268 218.112 191.791 217.669C191.322 217.217 191.088 216.68 191.088 216.058C191.088 215.428 191.322 214.891 191.791 214.447C192.268 213.996 192.839 213.77 193.504 213.77C194.169 213.77 194.735 213.996 195.204 214.447C195.681 214.891 195.92 215.428 195.92 216.058C195.92 216.68 195.681 217.217 195.204 217.669C194.735 218.112 194.169 218.334 193.504 218.334ZM204.361 229.341V241H200.538V221.364H204.207V224.56H204.45C204.902 223.52 205.609 222.685 206.572 222.054C207.544 221.423 208.767 221.108 210.241 221.108C211.58 221.108 212.751 221.389 213.757 221.952C214.763 222.506 215.543 223.332 216.097 224.432C216.651 225.531 216.928 226.891 216.928 228.51V241H213.105V228.97C213.105 227.547 212.734 226.435 211.993 225.634C211.251 224.824 210.233 224.419 208.938 224.419C208.051 224.419 207.263 224.611 206.572 224.994C205.891 225.378 205.349 225.94 204.949 226.682C204.557 227.415 204.361 228.301 204.361 229.341ZM222.054 241V221.364H225.876V241H222.054ZM223.984 218.334C223.32 218.334 222.749 218.112 222.271 217.669C221.803 217.217 221.568 216.68 221.568 216.058C221.568 215.428 221.803 214.891 222.271 214.447C222.749 213.996 223.32 213.77 223.984 213.77C224.649 213.77 225.216 213.996 225.685 214.447C226.162 214.891 226.401 215.428 226.401 216.058C226.401 216.68 226.162 217.217 225.685 217.669C225.216 218.112 224.649 218.334 223.984 218.334ZM230.61 241V238.379L241.246 224.866V224.688H230.955V221.364H246.015V224.151L235.787 237.497V237.676H246.373V241H230.61ZM264.59 233.47V233.227C264.607 231.642 264.765 230.381 265.063 229.443C265.37 228.506 265.804 227.747 266.367 227.168C266.929 226.588 267.607 226.06 268.4 225.582C268.911 225.259 269.371 224.896 269.78 224.496C270.189 224.095 270.513 223.635 270.752 223.115C270.99 222.595 271.11 222.02 271.11 221.389C271.11 220.631 270.931 219.974 270.573 219.42C270.215 218.866 269.738 218.44 269.141 218.142C268.553 217.835 267.897 217.682 267.172 217.682C266.516 217.682 265.89 217.818 265.293 218.091C264.696 218.364 264.202 218.79 263.81 219.369C263.418 219.94 263.192 220.678 263.132 221.581H259.246C259.306 220.047 259.694 218.751 260.409 217.695C261.125 216.629 262.071 215.824 263.248 215.278C264.432 214.733 265.74 214.46 267.172 214.46C268.74 214.46 270.113 214.754 271.289 215.342C272.465 215.922 273.377 216.736 274.025 217.784C274.681 218.824 275.009 220.038 275.009 221.428C275.009 222.382 274.86 223.243 274.561 224.01C274.263 224.768 273.837 225.446 273.283 226.043C272.738 226.639 272.081 227.168 271.314 227.628C270.59 228.08 270.002 228.548 269.55 229.034C269.107 229.52 268.783 230.095 268.578 230.76C268.374 231.425 268.263 232.247 268.246 233.227V233.47H264.59ZM266.52 241.243C265.821 241.243 265.221 240.996 264.718 240.501C264.215 239.999 263.963 239.393 263.963 238.686C263.963 237.987 264.215 237.391 264.718 236.896C265.221 236.393 265.821 236.142 266.52 236.142C267.211 236.142 267.807 236.393 268.31 236.896C268.821 237.391 269.077 237.987 269.077 238.686C269.077 239.155 268.958 239.585 268.719 239.977C268.489 240.361 268.182 240.668 267.799 240.898C267.415 241.128 266.989 241.243 266.52 241.243Z" fill="white"/>
<path d="M47.864 370V326.096H71.8C74.1467 326.096 76.2373 326.544 78.072 327.44C79.9493 328.336 81.4213 329.595 82.488 331.216C83.5547 332.837 84.088 334.736 84.088 336.912C84.088 338.576 83.768 340.091 83.128 341.456C82.488 342.821 81.6133 343.973 80.504 344.912C79.4373 345.808 78.2213 346.491 76.856 346.96V347.216C78.4773 347.557 79.928 348.219 81.208 349.2C82.488 350.139 83.4907 351.355 84.216 352.848C84.9413 354.299 85.304 355.984 85.304 357.904C85.304 360.635 84.6853 362.896 83.448 364.688C82.2533 366.48 80.632 367.824 78.584 368.72C76.5787 369.573 74.3173 370 71.8 370H47.864ZM56.184 362.896H70.712C72.4613 362.896 73.8907 362.427 75 361.488C76.152 360.507 76.728 358.992 76.728 356.944C76.728 355.749 76.4933 354.704 76.024 353.808C75.5547 352.912 74.8293 352.229 73.848 351.76C72.9093 351.248 71.6933 350.992 70.2 350.992H56.184V362.896ZM56.184 344.016H69.624C70.904 344.016 71.9707 343.781 72.824 343.312C73.72 342.843 74.3813 342.203 74.808 341.392C75.2773 340.581 75.512 339.685 75.512 338.704C75.512 336.827 75 335.44 73.976 334.544C72.9947 333.648 71.6933 333.2 70.072 333.2H56.184V344.016ZM92.3475 331.152V323.728H100.156V331.152H92.3475ZM92.3475 370V336.336H100.156V370H92.3475ZM105.849 370V366.352L122.873 342.736H106.937V336.336H134.265V339.92L117.177 363.6H134.969V370H105.849ZM154.249 370.768C150.665 370.768 147.678 370.149 145.289 368.912C142.9 367.632 141.108 365.691 139.913 363.088C138.718 360.485 138.121 357.179 138.121 353.168C138.121 349.115 138.718 345.808 139.913 343.248C141.108 340.645 142.9 338.725 145.289 337.488C147.678 336.208 150.665 335.568 154.249 335.568C157.492 335.568 160.201 336.187 162.377 337.424C164.596 338.619 166.26 340.475 167.369 342.992C168.478 345.509 169.033 348.773 169.033 352.784V355.088H146.121C146.206 357.179 146.526 358.949 147.081 360.4C147.636 361.808 148.489 362.875 149.641 363.6C150.836 364.283 152.393 364.624 154.313 364.624C155.294 364.624 156.212 364.496 157.065 364.24C157.918 363.984 158.665 363.6 159.305 363.088C159.945 362.533 160.436 361.851 160.777 361.04C161.161 360.229 161.353 359.291 161.353 358.224H169.033C169.033 360.357 168.649 362.213 167.881 363.792C167.156 365.371 166.11 366.672 164.745 367.696C163.422 368.72 161.865 369.488 160.073 370C158.281 370.512 156.34 370.768 154.249 370.768ZM146.249 349.584H160.905C160.905 348.176 160.734 346.981 160.393 346C160.094 345.019 159.646 344.208 159.049 343.568C158.494 342.928 157.812 342.48 157.001 342.224C156.19 341.925 155.273 341.776 154.249 341.776C152.585 341.776 151.177 342.053 150.025 342.608C148.916 343.163 148.062 344.016 147.465 345.168C146.868 346.32 146.462 347.792 146.249 349.584ZM66.104 440.768C62.264 440.768 58.9573 440.149 56.184 438.912C53.4107 437.675 51.2773 435.797 49.784 433.28C48.3333 430.72 47.608 427.541 47.608 423.744V396.096H55.928V423.488C55.928 426.859 56.8027 429.419 58.552 431.168C60.344 432.875 62.8613 433.728 66.104 433.728C69.3467 433.728 71.864 432.875 73.656 431.168C75.4907 429.419 76.408 426.859 76.408 423.488V396.096H84.728V423.744C84.728 427.541 83.9813 430.72 82.488 433.28C80.9947 435.797 78.8613 437.675 76.088 438.912C73.3147 440.149 69.9867 440.768 66.104 440.768ZM93.4725 440V393.728H101.281V440H93.4725ZM118.238 440.768C117.299 440.768 116.211 440.64 114.974 440.384C113.779 440.171 112.606 439.744 111.454 439.104C110.344 438.464 109.427 437.525 108.702 436.288C107.976 435.008 107.614 433.344 107.614 431.296C107.614 428.992 108.126 427.093 109.15 425.6C110.174 424.064 111.603 422.869 113.438 422.016C115.315 421.12 117.534 420.501 120.094 420.16C122.696 419.776 125.534 419.584 128.606 419.584V416.832C128.606 415.851 128.456 414.976 128.158 414.208C127.859 413.44 127.304 412.843 126.494 412.416C125.726 411.947 124.552 411.712 122.974 411.712C121.395 411.712 120.158 411.904 119.262 412.288C118.366 412.672 117.747 413.141 117.406 413.696C117.064 414.251 116.894 414.827 116.894 415.424V416.32H109.342C109.299 416.107 109.278 415.893 109.278 415.68C109.278 415.467 109.278 415.211 109.278 414.912C109.278 412.992 109.854 411.328 111.006 409.92C112.158 408.512 113.758 407.445 115.806 406.72C117.854 405.952 120.222 405.568 122.91 405.568C125.982 405.568 128.499 405.995 130.462 406.848C132.467 407.701 133.96 408.917 134.942 410.496C135.923 412.075 136.414 413.995 136.414 416.256V432.128C136.414 432.939 136.648 433.515 137.118 433.856C137.587 434.197 138.099 434.368 138.654 434.368H140.701V439.744C140.275 439.915 139.656 440.107 138.846 440.32C138.035 440.576 137.032 440.704 135.838 440.704C134.728 440.704 133.726 440.512 132.83 440.128C131.976 439.787 131.251 439.275 130.654 438.592C130.056 437.909 129.63 437.099 129.374 436.16H128.99C128.264 437.056 127.39 437.867 126.366 438.592C125.384 439.275 124.211 439.808 122.846 440.192C121.523 440.576 119.987 440.768 118.238 440.768ZM120.606 434.368C121.886 434.368 123.016 434.176 123.998 433.792C125.022 433.408 125.854 432.875 126.494 432.192C127.176 431.509 127.688 430.677 128.03 429.696C128.414 428.715 128.606 427.648 128.606 426.496V424.96C126.259 424.96 124.083 425.109 122.078 425.408C120.115 425.707 118.536 426.261 117.342 427.072C116.19 427.883 115.614 429.035 115.614 430.528C115.614 431.296 115.784 431.979 116.126 432.576C116.51 433.131 117.064 433.579 117.79 433.92C118.558 434.219 119.496 434.368 120.606 434.368ZM158.28 440.768C155.848 440.768 153.715 440.512 151.88 440C150.045 439.445 148.509 438.699 147.272 437.76C146.035 436.821 145.096 435.733 144.456 434.496C143.859 433.216 143.56 431.829 143.56 430.336C143.56 430.123 143.56 429.931 143.56 429.76C143.603 429.589 143.624 429.461 143.624 429.376H151.304C151.304 429.461 151.304 429.547 151.304 429.632C151.304 429.717 151.304 429.803 151.304 429.888C151.347 431.04 151.709 431.979 152.392 432.704C153.075 433.387 153.971 433.877 155.08 434.176C156.189 434.475 157.363 434.624 158.6 434.624C159.709 434.624 160.755 434.517 161.736 434.304C162.76 434.048 163.592 433.664 164.232 433.152C164.915 432.597 165.256 431.893 165.256 431.04C165.256 429.931 164.829 429.077 163.976 428.48C163.123 427.883 161.992 427.392 160.584 427.008C159.219 426.624 157.747 426.219 156.168 425.792C154.76 425.408 153.352 424.981 151.944 424.512C150.536 424.043 149.256 423.445 148.104 422.72C146.995 421.995 146.077 421.056 145.352 419.904C144.669 418.752 144.328 417.323 144.328 415.616C144.328 413.952 144.691 412.501 145.416 411.264C146.141 410.027 147.144 409.003 148.424 408.192C149.704 407.339 151.219 406.699 152.968 406.272C154.717 405.845 156.616 405.632 158.664 405.632C160.669 405.632 162.483 405.845 164.104 406.272C165.768 406.699 167.197 407.317 168.392 408.128C169.629 408.896 170.568 409.856 171.208 411.008C171.891 412.117 172.232 413.355 172.232 414.72C172.232 415.019 172.211 415.317 172.168 415.616C172.168 415.915 172.168 416.085 172.168 416.128H164.552V415.68C164.552 414.869 164.296 414.187 163.784 413.632C163.315 413.035 162.611 412.565 161.672 412.224C160.776 411.883 159.645 411.712 158.28 411.712C157.256 411.712 156.36 411.797 155.592 411.968C154.824 412.139 154.184 412.373 153.672 412.672C153.203 412.971 152.84 413.312 152.584 413.696C152.328 414.08 152.2 414.507 152.2 414.976C152.2 415.787 152.52 416.427 153.16 416.896C153.8 417.365 154.653 417.771 155.72 418.112C156.829 418.453 158.024 418.816 159.304 419.2C160.84 419.627 162.419 420.075 164.04 420.544C165.661 420.971 167.155 421.525 168.52 422.208C169.928 422.891 171.059 423.851 171.912 425.088C172.765 426.325 173.192 427.968 173.192 430.016C173.192 431.979 172.808 433.664 172.04 435.072C171.315 436.437 170.269 437.547 168.904 438.4C167.581 439.211 166.003 439.808 164.168 440.192C162.376 440.576 160.413 440.768 158.28 440.768ZM158.088 451.648C157.021 451.648 155.912 451.605 154.76 451.52C153.608 451.435 152.563 451.307 151.624 451.136V448H157.512C158.365 448 159.027 447.893 159.496 447.68C160.008 447.467 160.264 447.061 160.264 446.464C160.264 445.952 160.072 445.568 159.688 445.312C159.347 445.056 158.664 444.928 157.64 444.928H154.824L155.72 439.296H160.712L160.328 442.176C161.437 442.219 162.461 442.389 163.4 442.688C164.339 443.029 165.085 443.499 165.64 444.096C166.195 444.693 166.472 445.483 166.472 446.464C166.472 447.531 166.195 448.405 165.64 449.088C165.085 449.771 164.381 450.283 163.528 450.624C162.675 451.008 161.757 451.264 160.776 451.392C159.837 451.563 158.941 451.648 158.088 451.648ZM179.785 440V406.336H187.593V440H179.785ZM195.91 440V406.336H202.438L203.078 410.816H203.526C204.294 409.792 205.19 408.896 206.214 408.128C207.281 407.317 208.475 406.699 209.798 406.272C211.163 405.803 212.657 405.568 214.278 405.568C216.411 405.568 218.289 405.952 219.91 406.72C221.574 407.488 222.875 408.725 223.814 410.432C224.753 412.139 225.222 414.421 225.222 417.28V440H217.35V418.688C217.35 417.493 217.201 416.512 216.902 415.744C216.646 414.933 216.241 414.293 215.686 413.824C215.174 413.312 214.534 412.949 213.766 412.736C212.998 412.523 212.145 412.416 211.206 412.416C209.798 412.416 208.518 412.757 207.366 413.44C206.257 414.123 205.361 415.061 204.678 416.256C204.038 417.451 203.718 418.837 203.718 420.416V440H195.91Z" fill="url(#paint1_linear_917_108)"/>
<path d="M64 499L69.3883 515.584H86.8254L72.7185 525.833L78.1068 542.416L64 532.167L49.8932 542.416L55.2815 525.833L41.1746 515.584H58.6117L64 499Z" fill="url(#paint2_linear_917_108)"/>
<path d="M112 499L117.388 515.584H134.825L120.719 525.833L126.107 542.416L112 532.167L97.8932 542.416L103.281 525.833L89.1746 515.584H106.612L112 499Z" fill="url(#paint3_linear_917_108)"/>
<path d="M160 499L165.388 515.584H182.825L168.719 525.833L174.107 542.416L160 532.167L145.893 542.416L151.281 525.833L137.175 515.584H154.612L160 499Z" fill="url(#paint4_linear_917_108)"/>
<path d="M208 499L213.388 515.584H230.825L216.719 525.833L222.107 542.416L208 532.167L193.893 542.416L199.281 525.833L185.175 515.584H202.612L208 499Z" fill="url(#paint5_linear_917_108)"/>
<path d="M256 499L261.388 515.584H278.825L264.719 525.833L270.107 542.416L256 532.167L241.893 542.416L247.281 525.833L233.175 515.584H250.612L256 499Z" fill="url(#paint6_linear_917_108)"/>
<defs>
<linearGradient id="paint0_linear_917_108" x1="27.4079" y1="1081" x2="134.928" y2="605.098" gradientUnits="userSpaceOnUse">
<stop stop-color="#706338" stop-opacity="0.32"/>
<stop offset="0.461913" stop-color="#BFB286"/>
<stop offset="1" stop-color="#BFB286"/>
</linearGradient>
<linearGradient id="paint1_linear_917_108" x1="160.5" y1="314" x2="160.5" y2="454" gradientUnits="userSpaceOnUse">
<stop stop-color="#A59564"/>
<stop offset="1" stop-color="#F6F6F6"/>
</linearGradient>
<linearGradient id="paint2_linear_917_108" x1="64" y1="499" x2="64" y2="547" gradientUnits="userSpaceOnUse">
<stop stop-color="#706338"/>
<stop offset="1" stop-color="#BFB286"/>
</linearGradient>
<linearGradient id="paint3_linear_917_108" x1="112" y1="499" x2="112" y2="547" gradientUnits="userSpaceOnUse">
<stop stop-color="#706338"/>
<stop offset="1" stop-color="#BFB286"/>
</linearGradient>
<linearGradient id="paint4_linear_917_108" x1="160" y1="499" x2="160" y2="547" gradientUnits="userSpaceOnUse">
<stop stop-color="#706338"/>
<stop offset="1" stop-color="#BFB286"/>
</linearGradient>
<linearGradient id="paint5_linear_917_108" x1="208" y1="499" x2="208" y2="547" gradientUnits="userSpaceOnUse">
<stop stop-color="#706338"/>
<stop offset="1" stop-color="#BFB286"/>
</linearGradient>
<linearGradient id="paint6_linear_917_108" x1="256" y1="499" x2="256" y2="547" gradientUnits="userSpaceOnUse">
<stop stop-color="#706338"/>
<stop offset="1" stop-color="#BFB286"/>
</linearGradient>
</defs>
</svg>
