<svg width="420" height="154" viewBox="0 0 420 154" fill="none" xmlns="http://www.w3.org/2000/svg">
<path d="M414.615 79.0682H420V184.493H414.615V79.0682Z" fill="url(#paint0_linear_344_53)" fill-opacity="0.45"/>
<path d="M197.436 1.13162e-05H202.821V221.631H197.436V1.13162e-05Z" fill="url(#paint1_linear_344_53)" fill-opacity="0.45"/>
<path d="M315.897 0H321.282V111.414H315.897V0Z" fill="url(#paint2_linear_344_53)" fill-opacity="0.45"/>
<path d="M98.718 1.13162e-05H104.103V126.988H98.718V1.13162e-05Z" fill="url(#paint3_linear_344_53)" fill-opacity="0.45"/>
<path d="M315.897 69.4842H321.282V202.463H315.897V69.4842Z" fill="url(#paint4_linear_344_53)" fill-opacity="0.45"/>
<path d="M98.718 85.0583H104.103V260.416H98.718V85.0583Z" fill="url(#paint5_linear_344_53)" fill-opacity="0.45"/>
<path d="M375.128 79.0682H380.513V212.047H375.128V79.0682Z" fill="url(#paint6_linear_344_53)" fill-opacity="0.45"/>
<path d="M157.949 1.13162e-05H163.333V190.483H157.949V1.13162e-05Z" fill="url(#paint7_linear_344_53)" fill-opacity="0.45"/>
<path d="M276.41 1.13162e-05H281.795V126.988H276.41V1.13162e-05Z" fill="url(#paint8_linear_344_53)" fill-opacity="0.45"/>
<path d="M59.2308 16.4523H64.6154V148.552H59.2308V16.4523Z" fill="url(#paint9_linear_344_53)" fill-opacity="0.45"/>
<path d="M276.41 29.9501H281.795V212.047H276.41V29.9501Z" fill="url(#paint10_linear_344_53)" fill-opacity="0.45"/>
<path d="M59.2308 45.5241H64.6154V172.512H59.2308V45.5241Z" fill="url(#paint11_linear_344_53)" fill-opacity="0.45"/>
<path d="M335.641 79.0682H341.026V212.047H335.641V79.0682Z" fill="url(#paint12_linear_344_53)" fill-opacity="0.45"/>
<path d="M118.462 1.13162e-05H123.846V270H118.462V1.13162e-05Z" fill="url(#paint13_linear_344_53)" fill-opacity="0.45"/>
<path d="M236.923 1.13162e-05H242.308V230.017H236.923V1.13162e-05Z" fill="url(#paint14_linear_344_53)" fill-opacity="0.45"/>
<path d="M19.7436 63.4942H25.1282V190.483H19.7436V63.4942Z" fill="url(#paint15_linear_344_53)" fill-opacity="0.45"/>
<path d="M236.923 21.5641H242.308V251.581H236.923V21.5641Z" fill="url(#paint16_linear_344_53)" fill-opacity="0.45"/>
<path d="M19.7436 85.0583H25.1282V212.047H19.7436V85.0583Z" fill="url(#paint17_linear_344_53)" fill-opacity="0.45"/>
<path d="M394.872 79.0682H400.256V184.493H394.872V79.0682Z" fill="url(#paint18_linear_344_53)" fill-opacity="0.45"/>
<path d="M177.692 1.13162e-05H183.077V196.473H177.692V1.13162e-05Z" fill="url(#paint19_linear_344_53)" fill-opacity="0.45"/>
<path d="M296.154 1.13162e-05H301.538V120.998H296.154V1.13162e-05Z" fill="url(#paint20_linear_344_53)" fill-opacity="0.45"/>
<path d="M78.9744 16.4523H84.359V136.572L78.9744 151.99V16.4523Z" fill="url(#paint21_linear_344_53)" fill-opacity="0.45"/>
<path d="M296.154 57.5042H301.538V184.493H296.154V57.5042Z" fill="url(#paint22_linear_344_53)" fill-opacity="0.45"/>
<path d="M78.9744 73.0782H84.359V221.631H78.9744V73.0782Z" fill="url(#paint23_linear_344_53)" fill-opacity="0.45"/>
<path d="M355.385 79.0682H360.769V212.047H355.385V79.0682Z" fill="url(#paint24_linear_344_53)" fill-opacity="0.45"/>
<path d="M138.205 1.13162e-05H143.59V270H138.205V1.13162e-05Z" fill="url(#paint25_linear_344_53)" fill-opacity="0.45"/>
<path d="M256.667 1.13162e-05H262.051V212.047H256.667V1.13162e-05Z" fill="url(#paint26_linear_344_53)" fill-opacity="0.45"/>
<path d="M39.4872 45.5241H44.8718V172.512H39.4872V45.5241Z" fill="url(#paint27_linear_344_53)" fill-opacity="0.45"/>
<path d="M256.667 69.4842H262.051V251.581H256.667V69.4842Z" fill="url(#paint28_linear_344_53)" fill-opacity="0.45"/>
<path d="M39.4872 85.0583H44.8718V184.86H39.4872V85.0583Z" fill="url(#paint29_linear_344_53)" fill-opacity="0.45"/>
<path d="M315.897 57.5042H321.282V184.493H315.897V57.5042Z" fill="url(#paint30_linear_344_53)" fill-opacity="0.45"/>
<path d="M98.718 73.0782H104.103V221.631H98.718V73.0782Z" fill="url(#paint31_linear_344_53)" fill-opacity="0.45"/>
<path d="M217.18 1.13162e-05H222.564V251.581H217.18V1.13162e-05Z" fill="url(#paint32_linear_344_53)" fill-opacity="0.45"/>
<path d="M0 85.0583H5.38462V257.394H0V85.0583Z" fill="url(#paint33_linear_344_53)" fill-opacity="0.45"/>
<path d="M217.18 1.13162e-05H222.564V251.581H217.18V1.13162e-05Z" fill="url(#paint34_linear_344_53)" fill-opacity="0.45"/>
<path d="M0 85.0583H5.38462V257.394H0V85.0583Z" fill="url(#paint35_linear_344_53)" fill-opacity="0.45"/>
<defs>
<linearGradient id="paint0_linear_344_53" x1="2.69231" y1="85.0581" x2="2.69231" y2="212.046" gradientUnits="userSpaceOnUse">
<stop stop-color="#9B8F67" stop-opacity="0.2"/>
<stop offset="1" stop-color="#D9D9D9" stop-opacity="0"/>
</linearGradient>
<linearGradient id="paint1_linear_344_53" x1="2.69231" y1="85.0581" x2="2.69231" y2="212.046" gradientUnits="userSpaceOnUse">
<stop stop-color="#9B8F67" stop-opacity="0.2"/>
<stop offset="1" stop-color="#D9D9D9" stop-opacity="0"/>
</linearGradient>
<linearGradient id="paint2_linear_344_53" x1="2.69231" y1="85.0581" x2="2.69231" y2="212.046" gradientUnits="userSpaceOnUse">
<stop stop-color="#9B8F67" stop-opacity="0.2"/>
<stop offset="1" stop-color="#D9D9D9" stop-opacity="0"/>
</linearGradient>
<linearGradient id="paint3_linear_344_53" x1="2.69231" y1="85.0581" x2="2.69231" y2="212.046" gradientUnits="userSpaceOnUse">
<stop stop-color="#9B8F67" stop-opacity="0.2"/>
<stop offset="1" stop-color="#D9D9D9" stop-opacity="0"/>
</linearGradient>
<linearGradient id="paint4_linear_344_53" x1="2.69231" y1="85.0581" x2="2.69231" y2="212.046" gradientUnits="userSpaceOnUse">
<stop stop-color="#9B8F67" stop-opacity="0.2"/>
<stop offset="1" stop-color="#D9D9D9" stop-opacity="0"/>
</linearGradient>
<linearGradient id="paint5_linear_344_53" x1="2.69231" y1="85.0581" x2="2.69231" y2="212.046" gradientUnits="userSpaceOnUse">
<stop stop-color="#9B8F67" stop-opacity="0.2"/>
<stop offset="1" stop-color="#D9D9D9" stop-opacity="0"/>
</linearGradient>
<linearGradient id="paint6_linear_344_53" x1="2.69231" y1="85.0581" x2="2.69231" y2="212.046" gradientUnits="userSpaceOnUse">
<stop stop-color="#9B8F67" stop-opacity="0.2"/>
<stop offset="1" stop-color="#D9D9D9" stop-opacity="0"/>
</linearGradient>
<linearGradient id="paint7_linear_344_53" x1="2.69231" y1="85.0581" x2="2.69231" y2="212.046" gradientUnits="userSpaceOnUse">
<stop stop-color="#9B8F67" stop-opacity="0.2"/>
<stop offset="1" stop-color="#D9D9D9" stop-opacity="0"/>
</linearGradient>
<linearGradient id="paint8_linear_344_53" x1="2.69231" y1="85.0581" x2="2.69231" y2="212.046" gradientUnits="userSpaceOnUse">
<stop stop-color="#9B8F67" stop-opacity="0.2"/>
<stop offset="1" stop-color="#D9D9D9" stop-opacity="0"/>
</linearGradient>
<linearGradient id="paint9_linear_344_53" x1="2.69231" y1="85.0581" x2="2.69231" y2="212.046" gradientUnits="userSpaceOnUse">
<stop stop-color="#9B8F67" stop-opacity="0.2"/>
<stop offset="1" stop-color="#D9D9D9" stop-opacity="0"/>
</linearGradient>
<linearGradient id="paint10_linear_344_53" x1="2.69231" y1="85.0581" x2="2.69231" y2="212.046" gradientUnits="userSpaceOnUse">
<stop stop-color="#9B8F67" stop-opacity="0.2"/>
<stop offset="1" stop-color="#D9D9D9" stop-opacity="0"/>
</linearGradient>
<linearGradient id="paint11_linear_344_53" x1="2.69231" y1="85.0581" x2="2.69231" y2="212.046" gradientUnits="userSpaceOnUse">
<stop stop-color="#9B8F67" stop-opacity="0.2"/>
<stop offset="1" stop-color="#D9D9D9" stop-opacity="0"/>
</linearGradient>
<linearGradient id="paint12_linear_344_53" x1="2.69231" y1="85.0581" x2="2.69231" y2="212.046" gradientUnits="userSpaceOnUse">
<stop stop-color="#9B8F67" stop-opacity="0.2"/>
<stop offset="1" stop-color="#D9D9D9" stop-opacity="0"/>
</linearGradient>
<linearGradient id="paint13_linear_344_53" x1="2.69231" y1="85.0581" x2="2.69231" y2="212.046" gradientUnits="userSpaceOnUse">
<stop stop-color="#9B8F67" stop-opacity="0.2"/>
<stop offset="1" stop-color="#D9D9D9" stop-opacity="0"/>
</linearGradient>
<linearGradient id="paint14_linear_344_53" x1="2.69231" y1="85.0581" x2="2.69231" y2="212.046" gradientUnits="userSpaceOnUse">
<stop stop-color="#9B8F67" stop-opacity="0.2"/>
<stop offset="1" stop-color="#D9D9D9" stop-opacity="0"/>
</linearGradient>
<linearGradient id="paint15_linear_344_53" x1="2.69231" y1="85.0581" x2="2.69231" y2="212.046" gradientUnits="userSpaceOnUse">
<stop stop-color="#9B8F67" stop-opacity="0.2"/>
<stop offset="1" stop-color="#D9D9D9" stop-opacity="0"/>
</linearGradient>
<linearGradient id="paint16_linear_344_53" x1="2.69231" y1="85.0581" x2="2.69231" y2="212.046" gradientUnits="userSpaceOnUse">
<stop stop-color="#9B8F67" stop-opacity="0.2"/>
<stop offset="1" stop-color="#D9D9D9" stop-opacity="0"/>
</linearGradient>
<linearGradient id="paint17_linear_344_53" x1="2.69231" y1="85.0581" x2="2.69231" y2="212.046" gradientUnits="userSpaceOnUse">
<stop stop-color="#9B8F67" stop-opacity="0.2"/>
<stop offset="1" stop-color="#D9D9D9" stop-opacity="0"/>
</linearGradient>
<linearGradient id="paint18_linear_344_53" x1="2.69231" y1="85.0581" x2="2.69231" y2="212.046" gradientUnits="userSpaceOnUse">
<stop stop-color="#9B8F67" stop-opacity="0.2"/>
<stop offset="1" stop-color="#D9D9D9" stop-opacity="0"/>
</linearGradient>
<linearGradient id="paint19_linear_344_53" x1="2.69231" y1="85.0581" x2="2.69231" y2="212.046" gradientUnits="userSpaceOnUse">
<stop stop-color="#9B8F67" stop-opacity="0.2"/>
<stop offset="1" stop-color="#D9D9D9" stop-opacity="0"/>
</linearGradient>
<linearGradient id="paint20_linear_344_53" x1="2.69231" y1="85.0581" x2="2.69231" y2="212.046" gradientUnits="userSpaceOnUse">
<stop stop-color="#9B8F67" stop-opacity="0.2"/>
<stop offset="1" stop-color="#D9D9D9" stop-opacity="0"/>
</linearGradient>
<linearGradient id="paint21_linear_344_53" x1="2.69231" y1="85.0581" x2="2.69231" y2="212.046" gradientUnits="userSpaceOnUse">
<stop stop-color="#9B8F67" stop-opacity="0.2"/>
<stop offset="1" stop-color="#D9D9D9" stop-opacity="0"/>
</linearGradient>
<linearGradient id="paint22_linear_344_53" x1="2.69231" y1="85.0581" x2="2.69231" y2="212.046" gradientUnits="userSpaceOnUse">
<stop stop-color="#9B8F67" stop-opacity="0.2"/>
<stop offset="1" stop-color="#D9D9D9" stop-opacity="0"/>
</linearGradient>
<linearGradient id="paint23_linear_344_53" x1="2.69231" y1="85.0581" x2="2.69231" y2="212.046" gradientUnits="userSpaceOnUse">
<stop stop-color="#9B8F67" stop-opacity="0.2"/>
<stop offset="1" stop-color="#D9D9D9" stop-opacity="0"/>
</linearGradient>
<linearGradient id="paint24_linear_344_53" x1="2.69231" y1="85.0581" x2="2.69231" y2="212.046" gradientUnits="userSpaceOnUse">
<stop stop-color="#9B8F67" stop-opacity="0.2"/>
<stop offset="1" stop-color="#D9D9D9" stop-opacity="0"/>
</linearGradient>
<linearGradient id="paint25_linear_344_53" x1="2.69231" y1="85.0581" x2="2.69231" y2="212.046" gradientUnits="userSpaceOnUse">
<stop stop-color="#9B8F67" stop-opacity="0.2"/>
<stop offset="1" stop-color="#D9D9D9" stop-opacity="0"/>
</linearGradient>
<linearGradient id="paint26_linear_344_53" x1="2.69231" y1="85.0581" x2="2.69231" y2="212.046" gradientUnits="userSpaceOnUse">
<stop stop-color="#9B8F67" stop-opacity="0.2"/>
<stop offset="1" stop-color="#D9D9D9" stop-opacity="0"/>
</linearGradient>
<linearGradient id="paint27_linear_344_53" x1="2.69231" y1="85.0581" x2="2.69231" y2="212.046" gradientUnits="userSpaceOnUse">
<stop stop-color="#9B8F67" stop-opacity="0.2"/>
<stop offset="1" stop-color="#D9D9D9" stop-opacity="0"/>
</linearGradient>
<linearGradient id="paint28_linear_344_53" x1="2.69231" y1="85.0581" x2="2.69231" y2="212.046" gradientUnits="userSpaceOnUse">
<stop stop-color="#9B8F67" stop-opacity="0.2"/>
<stop offset="1" stop-color="#D9D9D9" stop-opacity="0"/>
</linearGradient>
<linearGradient id="paint29_linear_344_53" x1="2.69231" y1="85.0581" x2="2.69231" y2="212.046" gradientUnits="userSpaceOnUse">
<stop stop-color="#9B8F67" stop-opacity="0.2"/>
<stop offset="1" stop-color="#D9D9D9" stop-opacity="0"/>
</linearGradient>
<linearGradient id="paint30_linear_344_53" x1="2.69231" y1="85.0581" x2="2.69231" y2="212.046" gradientUnits="userSpaceOnUse">
<stop stop-color="#9B8F67" stop-opacity="0.2"/>
<stop offset="1" stop-color="#D9D9D9" stop-opacity="0"/>
</linearGradient>
<linearGradient id="paint31_linear_344_53" x1="2.69231" y1="85.0581" x2="2.69231" y2="212.046" gradientUnits="userSpaceOnUse">
<stop stop-color="#9B8F67" stop-opacity="0.2"/>
<stop offset="1" stop-color="#D9D9D9" stop-opacity="0"/>
</linearGradient>
<linearGradient id="paint32_linear_344_53" x1="2.69231" y1="85.0581" x2="2.69231" y2="212.046" gradientUnits="userSpaceOnUse">
<stop stop-color="#9B8F67" stop-opacity="0.2"/>
<stop offset="1" stop-color="#D9D9D9" stop-opacity="0"/>
</linearGradient>
<linearGradient id="paint33_linear_344_53" x1="2.69231" y1="85.0581" x2="2.69231" y2="212.046" gradientUnits="userSpaceOnUse">
<stop stop-color="#9B8F67" stop-opacity="0.2"/>
<stop offset="1" stop-color="#D9D9D9" stop-opacity="0"/>
</linearGradient>
<linearGradient id="paint34_linear_344_53" x1="2.69231" y1="85.0581" x2="2.69231" y2="212.046" gradientUnits="userSpaceOnUse">
<stop stop-color="#9B8F67" stop-opacity="0.2"/>
<stop offset="1" stop-color="#D9D9D9" stop-opacity="0"/>
</linearGradient>
<linearGradient id="paint35_linear_344_53" x1="2.69231" y1="85.0581" x2="2.69231" y2="212.046" gradientUnits="userSpaceOnUse">
<stop stop-color="#9B8F67" stop-opacity="0.2"/>
<stop offset="1" stop-color="#D9D9D9" stop-opacity="0"/>
</linearGradient>
</defs>
</svg>
