<svg width="968" height="252" viewBox="0 0 968 252" fill="none" xmlns="http://www.w3.org/2000/svg">
<g filter="url(#filter0_d_1049_251)">
<path d="M26.9737 242.592C23.3257 241.55 20.6332 240.247 18.896 238.684C14.7269 234.862 15.248 227.827 20.4595 217.577C25.6709 207.676 34.096 196.297 45.7349 183.443C52.6835 175.973 61.6298 167.548 72.5738 158.167C83.6915 148.613 94.2013 140.361 104.103 133.413C105.666 132.37 106.709 131.589 107.23 131.068C107.925 130.546 108.359 130.112 108.533 129.765C108.88 129.244 109.228 128.375 109.575 127.159C111.138 121.426 112.094 115.173 112.441 108.398C112.615 105.792 112.702 104.229 112.702 103.708C112.702 103.013 112.441 102.665 111.92 102.665C111.225 102.665 107.838 105.705 101.758 111.785C70.1418 142.706 46.6903 158.167 31.4035 158.167C27.7555 158.167 24.1075 157.472 20.4595 156.082C16.8114 154.519 13.6846 152.521 11.0789 150.089C8.29943 147.657 6.30172 145.052 5.08572 142.272C4.21714 140.014 3.86971 136.279 4.04343 131.068C4.04343 125.682 4.56457 120.818 5.60686 116.476C9.94972 99.799 18.1143 83.2092 30.1006 66.7064C42.2606 50.2035 57.0264 35.5246 74.3978 22.6697C83.9521 15.5474 93.4196 9.98858 102.8 5.99315C112.354 1.99772 120.866 0 128.336 0C136.848 0 144.144 3.04 150.224 9.12C154.046 12.9417 156.391 17.024 157.26 21.3669C157.433 22.7566 157.433 24.8412 157.26 27.6206C157.086 30.4 156.825 32.1372 156.478 32.832C155.957 33.7006 154.567 33.44 152.309 32.0503C150.224 30.6606 148.574 29.0972 147.358 27.36C146.489 26.144 146.055 23.5383 146.055 19.5429C146.055 15.7212 145.708 13.376 145.013 12.5074C144.492 11.6389 142.841 11.0309 140.062 10.6834C130.16 9.29373 117.74 12.6812 102.8 20.8457C87.8607 28.8366 73.4424 39.9543 59.5452 54.1989C50.6858 63.2321 43.2161 72.4389 37.136 81.8195C28.9715 94.1533 23.0652 106.313 19.4172 118.3C15.9429 130.112 15.3349 139.406 17.5932 146.181C18.288 148.092 19.0697 149.308 19.9383 149.829C20.9806 150.176 22.7177 150.176 25.1497 149.829C39.3943 147.57 60.5875 132.631 88.7293 105.01C102.8 91.4607 109.836 83.8172 109.836 82.0801C109.836 81.2115 109.314 79.9087 108.272 78.1715C107.056 76.2607 106.622 74.9578 106.969 74.2629C107.49 73.5681 108.793 73.6549 110.878 74.5235C111.92 74.8709 113.744 75.1315 116.35 75.3052C118.956 75.3052 121.214 75.9132 123.125 77.1292C125.209 78.1715 126.599 79.2138 127.294 80.2561C128.336 81.6458 127.728 83.8172 125.47 86.7704L123.646 88.855L124.428 92.7635C124.949 95.543 125.296 100.581 125.47 107.877C125.644 115.173 125.817 118.821 125.991 118.821C126.338 118.821 129.205 117.431 134.59 114.652C144.144 109.614 150.311 107.095 153.09 107.095C154.306 107.095 155.87 107.529 157.781 108.398C159.692 109.266 161.168 110.309 162.21 111.525C163.426 112.567 163.774 113.349 163.253 113.87C162.905 114.217 161.168 114.999 158.041 116.215C151.44 118.647 142.146 123.598 130.16 131.068L121.822 136.279L120.258 140.709C110.704 168.677 96.0253 193.171 76.2218 214.19C64.7567 226.524 54.3338 235.036 44.9532 239.726C37.8309 243.2 31.8378 244.156 26.9737 242.592ZM36.0938 231.388C44.9532 226.176 54.5075 217.838 64.7567 206.373C75.1795 194.908 84.1258 182.661 91.5955 169.632C97.1544 159.904 99.5864 154.693 98.8916 153.998C98.5441 153.65 97.8493 153.824 96.807 154.519C95.7647 155.214 93.0721 157.385 88.7293 161.033C66.8412 179.447 50.3384 197.079 39.2206 213.929C34.0092 221.747 31.056 227.566 30.3612 231.388C30.1875 232.43 30.1006 233.038 30.1006 233.212C30.2743 233.385 30.7086 233.472 31.4035 233.472C32.272 233.472 33.8355 232.777 36.0938 231.388Z" fill="url(#paint0_linear_1049_251)" shape-rendering="crispEdges"/>
<path d="M183.123 161.033C179.302 160.165 176.783 158.514 175.567 156.082C174.351 153.65 174.177 149.916 175.046 144.878C175.567 141.404 175.567 139.666 175.046 139.666C174.525 139.493 172.614 141.143 169.313 144.617C160.627 153.65 153.592 158.167 148.207 158.167C139.521 158.341 134.744 155.388 133.875 149.308C133.528 146.354 134.31 141.751 136.22 135.497C138.479 128.549 141.779 121.687 146.122 114.912C150.291 108.485 154.895 102.839 159.933 97.975C165.144 92.9373 169.747 89.6367 173.743 88.0733C176.87 87.031 180.431 86.9441 184.426 87.8127C188.422 88.5075 191.722 90.071 194.328 92.503C195.544 93.5453 197.194 94.2401 199.279 94.5875C201.537 94.7613 203.535 95.2824 205.272 96.151C207.009 96.8458 207.878 97.6275 207.878 98.4961C207.878 99.3647 206.749 101.71 204.49 105.532C198.931 115.26 194.675 124.119 191.722 132.11C189.985 136.8 188.682 141.404 187.814 145.92C186.945 150.437 186.858 152.956 187.553 153.477C189.29 154.519 199.105 145.486 216.998 126.377C224.815 117.865 228.984 113.522 229.505 113.349C230.895 112.828 233.066 113.001 236.019 113.87C238.973 114.565 240.449 115.433 240.449 116.476C240.449 116.997 235.933 122.121 226.899 131.849C217.866 141.577 211.96 147.744 209.181 150.35C203.274 155.561 198.497 158.949 194.849 160.512C191.201 161.902 187.293 162.076 183.123 161.033ZM153.939 144.357C163.494 135.15 174.264 122.642 186.25 106.834C188.509 104.055 189.638 101.884 189.638 100.32C189.638 98.7567 189.203 97.4538 188.335 96.4115C187.64 95.1955 186.771 94.5007 185.729 94.327C184.687 93.9795 183.645 94.0664 182.602 94.5875C177.043 97.367 171.137 102.578 164.883 110.222C160.541 115.433 156.719 121.253 153.418 127.68C150.291 133.934 148.207 139.493 147.165 144.357C146.47 147.831 146.47 149.568 147.165 149.568C148.033 149.568 150.291 147.831 153.939 144.357Z" fill="url(#paint1_linear_1049_251)" shape-rendering="crispEdges"/>
<path d="M233.361 229.303C229.539 227.913 227.628 226.263 227.628 224.352C227.628 222.615 228.931 219.141 231.537 213.929C234.837 207.328 241.091 197.774 250.298 185.267C253.077 181.619 255.683 176.755 258.115 170.675C259.679 166.679 262.284 159.296 265.932 148.526C269.754 137.582 271.665 131.762 271.665 131.068C271.665 129.678 268.972 131.936 263.587 137.842C256.291 145.66 250.385 151.045 245.868 153.998C241.004 157.125 235.88 157.472 230.495 155.04C227.194 153.477 225.023 151.566 223.98 149.308C222.938 146.876 222.677 143.401 223.199 138.885C224.067 131.762 226.673 122.99 231.016 112.567C235.532 101.97 240.309 93.2847 245.347 86.5098C248.3 82.6881 250.906 80.7772 253.164 80.7772C256.986 80.7772 260.2 82.0801 262.805 84.6858C263.848 86.0755 263.674 86.9441 262.284 87.2915C260.373 87.8127 257.855 90.5921 254.728 95.6298C250.037 102.578 245.868 110.309 242.22 118.821C238.746 127.333 236.401 134.716 235.185 140.969C234.664 144.791 234.751 146.789 235.445 146.962C236.314 147.136 238.572 145.573 242.22 142.272C247.779 137.234 254.554 130.025 262.545 120.645C270.536 111.264 277.571 102.144 283.651 93.2847C284.867 91.5475 285.649 90.5053 285.996 90.1578C286.517 89.8104 287.299 89.6367 288.341 89.6367C290.947 89.6367 293.466 90.679 295.898 92.7635C297.114 93.6321 297.635 94.5875 297.461 95.6298C297.461 96.4984 296.68 98.7567 295.116 102.405C293.553 106.226 290.687 114.478 286.517 127.159C282.348 139.84 280.264 146.615 280.264 147.484C280.264 148.178 280.437 148.526 280.785 148.526C281.132 148.526 284.172 145.66 289.905 139.927C298.07 132.11 307.45 124.119 318.047 115.954C323.432 111.959 326.819 109.701 328.209 109.18C329.599 108.658 331.596 109.093 334.202 110.482C337.676 112.393 338.979 113.87 338.111 114.912C337.763 115.433 334.289 118.213 327.688 123.25C321.26 128.114 316.396 131.936 313.096 134.716C309.622 137.495 304.063 142.706 296.419 150.35C288.949 157.82 283.391 163.726 279.743 168.069C273.663 175.191 269.754 179.968 268.017 182.4C266.453 184.832 264.456 188.567 262.024 193.605C259.244 199.859 256.899 204.983 254.988 208.979C253.251 212.279 250.993 215.927 248.213 219.923C245.608 224.092 243.61 226.784 242.22 228C240.136 230.085 237.183 230.519 233.361 229.303Z" fill="url(#paint2_linear_1049_251)" shape-rendering="crispEdges"/>
<path d="M331.985 190.739C331.29 190.565 329.727 189.87 327.295 188.654C325.037 187.438 323.56 186.222 322.865 185.006C322.17 183.964 321.823 182.487 321.823 180.576C321.823 172.412 328.858 157.038 342.929 134.455C349.704 123.511 354.308 115.52 356.74 110.482C360.909 101.623 361.69 95.7167 359.085 92.7635C358.564 92.2424 357.261 91.7213 355.176 91.2001C353.265 90.679 351.962 90.5053 351.268 90.679C350.746 90.8527 350.138 92.0687 349.444 94.327C346.664 102.665 342.234 111.438 336.154 120.645L333.288 124.814H330.682C329.119 124.64 327.469 124.206 325.732 123.511C323.994 122.642 322.865 121.861 322.344 121.166C321.997 120.471 322.952 118.213 325.21 114.391C328.511 109.18 331.464 103.708 334.07 97.975C336.849 92.2424 338.065 88.9418 337.718 88.0733C337.544 87.7258 336.241 86.8572 333.809 85.4675C325.645 81.2984 324.516 76.3475 330.422 70.6149C333.549 67.6618 336.589 66.1852 339.542 66.1852C343.711 66.1852 347.359 67.8355 350.486 71.1361C352.223 73.0469 353.005 76.4344 352.831 81.2984L352.57 84.9464L355.697 85.9887C364.036 88.9418 369.247 92.6767 371.332 97.1933C372.721 100.668 372.634 104.924 371.071 109.961C369.16 115.346 364.991 123.25 358.564 133.673C353.005 142.706 349.27 148.873 347.359 152.174C345.448 155.301 343.537 158.601 341.626 162.076C337.11 170.935 335.286 175.712 336.154 176.407C336.328 176.754 337.457 175.886 339.542 173.801C341.626 171.89 344.145 169.372 347.098 166.245C350.052 162.944 353.005 159.557 355.958 156.082C366.554 143.401 376.282 129.938 385.142 115.694L389.311 108.658H391.656C393.393 108.832 395.304 109.527 397.389 110.743C399.473 111.959 400.516 113.088 400.516 114.13C400.516 114.999 397.997 119.342 392.959 127.159C388.095 134.802 383.492 141.49 379.149 147.223C374.111 153.998 368.378 161.033 361.951 168.329C355.524 175.625 350.573 180.837 347.098 183.964C341.018 189.175 335.981 191.433 331.985 190.739Z" fill="url(#paint3_linear_1049_251)" shape-rendering="crispEdges"/>
<path d="M384.627 165.984C383.411 165.637 381.847 164.942 379.937 163.9C377.852 162.684 376.549 161.728 376.028 161.033C375.333 160.165 374.812 159.209 374.465 158.167C373.596 154.693 375.159 147.744 379.155 137.321C383.15 126.725 388.014 116.736 393.747 107.356C398.263 100.407 401.13 96.6721 402.346 96.151C403.735 95.8035 405.82 96.4115 408.599 97.975C411.553 99.3647 413.029 100.754 413.029 102.144C413.029 102.839 412.595 103.447 411.726 103.968C409.642 105.705 405.82 111.525 400.261 121.426C398.698 124.38 396.874 128.114 394.789 132.631C392.878 136.974 391.228 140.969 389.838 144.617C388.622 148.265 388.014 150.524 388.014 151.392C388.014 152.956 389.057 152.782 391.141 150.871C392.357 149.829 395.658 146.354 401.043 140.448C406.428 134.542 410.076 130.46 411.987 128.201C413.724 126.117 414.766 124.988 415.114 124.814C415.635 124.466 416.33 124.293 417.198 124.293C418.588 124.466 420.151 125.074 421.889 126.117C423.799 127.159 425.015 128.028 425.537 128.722C426.058 129.591 425.623 130.894 424.234 132.631C421.107 136.974 415.027 143.749 405.994 152.956C400.609 158.514 396.353 162.249 393.226 164.16C390.099 166.071 387.233 166.679 384.627 165.984ZM422.67 74.7841C419.543 73.0469 417.98 71.5704 417.98 70.3544C417.98 70.1807 418.501 69.3989 419.543 68.0092C420.586 66.4458 421.715 64.8824 422.931 63.3189C424.147 61.7555 425.102 60.6264 425.797 59.9315C427.013 58.7155 428.142 58.1944 429.185 58.3681C430.748 58.3681 432.659 59.0629 434.917 60.4526C437.175 61.6686 438.305 62.7978 438.305 63.8401C438.305 64.3612 437.697 65.2298 436.481 66.4458C435.438 67.4881 434.222 69.0515 432.833 71.1361C431.443 73.0469 430.401 74.3498 429.706 75.0447C428.316 76.6081 425.971 76.5212 422.67 74.7841Z" fill="url(#paint4_linear_1049_251)" shape-rendering="crispEdges"/>
<path d="M514.453 167.287C512.542 166.592 510.978 165.637 509.762 164.421C508.546 163.031 507.938 161.815 507.938 160.773C507.938 157.125 511.76 148.178 519.404 133.934C523.399 126.464 526.352 120.905 528.263 117.257C530.174 113.609 531.65 110.743 532.693 108.658C533.735 106.921 534.169 105.705 533.996 105.01C533.822 104.316 532.953 104.663 531.39 106.053L530.869 106.574C524.615 111.785 512.281 124.814 493.867 145.66C484.661 155.909 478.841 161.554 476.409 162.597C474.846 163.292 473.195 163.465 471.458 163.118C465.726 161.902 462.859 159.991 462.859 157.385C462.859 153.39 467.897 140.188 477.973 117.778C483.358 105.618 485.703 99.4516 485.008 99.2778C483.271 99.2778 473.543 107.877 455.824 125.074C438.105 142.098 426.814 153.824 421.95 160.252C420.907 161.641 419.865 162.51 418.823 162.857C417.781 163.031 415.957 162.944 413.351 162.597C409.182 162.076 406.142 161.207 404.231 159.991C402.494 158.775 402.059 157.298 402.928 155.561C403.102 155.388 406.663 149.742 413.611 138.624C427.335 116.389 436.021 102.578 439.669 97.1933C442.969 92.1555 445.227 89.0287 446.443 87.8127C447.138 87.1178 447.573 86.6835 447.746 86.5098C448.094 86.1624 448.528 85.9887 449.049 85.9887C449.57 85.815 450.178 85.815 450.873 85.9887C452.263 86.1624 453.826 86.6835 455.563 87.5521C457.474 88.4207 458.69 89.2892 459.211 90.1578C459.559 90.8527 458.951 92.2424 457.387 94.327C454.608 97.8013 449.223 105.792 441.232 118.3C438.105 123.337 436.629 126.117 436.802 126.638C436.802 126.638 436.889 126.638 437.063 126.638C437.237 126.464 437.497 126.204 437.845 125.856C438.366 125.509 438.974 125.074 439.669 124.553C440.363 124.032 441.145 123.337 442.014 122.469C443.056 121.426 444.185 120.297 445.401 119.081C446.791 117.865 448.267 116.476 449.831 114.912C465.291 99.9727 476.409 90.7658 483.184 87.2915C485.616 85.9018 487.701 85.2938 489.438 85.4675C491.349 85.6412 493.346 86.3361 495.431 87.5521C497.515 88.5944 498.992 89.7235 499.861 90.9395C501.077 92.6767 501.077 95.2824 499.861 98.7567C498.818 102.231 495.605 109.788 490.219 121.426C488.656 124.901 487.44 127.68 486.571 129.765C485.703 131.676 485.008 133.326 484.487 134.716C483.966 136.105 483.705 136.974 483.705 137.321C483.705 137.495 483.792 137.669 483.966 137.842C484.313 137.842 486.05 136.192 489.177 132.892C499.774 121.253 507.938 112.567 513.671 106.834C523.399 97.1064 530.869 90.5053 536.08 87.031C538.86 85.1201 541.118 84.1647 542.855 84.1647C545.461 84.1647 547.98 85.0332 550.412 86.7704C553.017 88.3338 554.32 89.9841 554.32 91.7213C554.32 94.5007 549.369 105.184 539.468 123.772C535.298 131.762 532.866 136.366 532.172 137.582C527.134 146.441 524.615 151.566 524.615 152.956C524.615 153.477 524.876 153.737 525.397 153.737C526.613 153.737 534.777 146.268 549.89 131.328L562.658 118.3L564.743 118.821C566.48 118.994 568.304 119.689 570.215 120.905C572.3 122.121 573.342 123.164 573.342 124.032C573.342 124.553 569.173 128.983 560.834 137.321C543.463 154.866 531.65 164.942 525.397 167.548C522.096 168.937 518.448 168.85 514.453 167.287Z" fill="url(#paint5_linear_1049_251)" shape-rendering="crispEdges"/>
<path d="M571.424 164.942C566.56 163.378 563.086 161.294 561.001 158.688C558.743 155.909 557.527 152.261 557.353 147.744C557.006 140.448 558.743 132.37 562.565 123.511C566.213 114.652 571.077 106.921 577.157 100.32C588.101 88.5075 598.35 85.815 607.904 92.2424C609.989 93.4584 611.465 94.7613 612.334 96.151C613.376 97.5407 613.897 99.3647 613.897 101.623C613.897 103.708 613.376 105.966 612.334 108.398C611.118 110.83 609.12 113.349 606.341 115.954C603.735 118.386 601.129 120.297 598.524 121.687C595.918 122.903 593.052 123.511 589.925 123.511C586.798 123.511 584.105 123.077 581.847 122.208C579.936 121.34 578.633 121.079 577.939 121.426C577.417 121.6 576.636 122.729 575.593 124.814C573.509 128.809 571.859 133.413 570.643 138.624C569.427 143.836 568.992 148.092 569.34 151.392C569.687 155.735 570.643 158.601 572.206 159.991C573.248 160.86 575.68 160.512 579.502 158.949C583.324 157.212 587.406 154.78 591.749 151.653C592.965 150.784 594.615 149.394 596.7 147.484C598.958 145.399 601.216 143.228 603.475 140.969C605.733 138.711 607.991 136.453 610.249 134.194C612.508 131.936 614.245 130.025 615.461 128.462C620.151 122.903 623.017 119.516 624.06 118.3C625.276 117.084 626.318 116.476 627.187 116.476C627.881 116.476 628.663 116.736 629.532 117.257C630.574 117.605 631.529 118.126 632.398 118.821C633.44 119.516 634.222 120.21 634.743 120.905L635.525 122.208L634.222 124.553C633.353 126.117 629.792 130.286 623.539 137.061C617.285 143.836 612.681 148.439 609.728 150.871C601.564 157.993 594.615 162.597 588.883 164.681C583.15 166.766 577.331 166.853 571.424 164.942ZM587.84 115.433C590.099 114.391 592.531 112.567 595.136 109.961C597.742 107.182 599.653 104.663 600.869 102.405C602.259 99.6253 602.606 97.975 601.911 97.4538C601.216 96.9327 599.479 97.5407 596.7 99.2778C593.747 101.362 590.359 104.489 586.537 108.658C582.716 112.828 580.979 115.346 581.326 116.215C581.847 117.605 584.019 117.344 587.84 115.433Z" fill="url(#paint6_linear_1049_251)" shape-rendering="crispEdges"/>
<path d="M624.339 165.724C619.475 164.16 617.39 161.815 618.085 158.688C619.475 152.956 623.123 144.096 629.029 132.11C634.935 119.95 642.058 106.921 650.396 93.0241C657.518 81.0378 661.861 74.6104 663.424 73.7418C664.119 73.2207 665.422 73.1338 667.333 73.4812C668.896 73.8287 670.46 74.4367 672.023 75.3052C673.76 76.1738 674.716 76.8687 674.89 77.3898C674.89 77.9109 673.326 80.6035 670.199 85.4675C659.082 102.318 649.788 118.213 642.318 133.152C639.712 138.537 638.844 141.23 639.712 141.23C640.06 141.23 643.36 137.842 649.614 131.068C673.934 104.142 689.395 89.0287 695.996 85.7281C697.559 84.8595 699.644 84.7727 702.25 85.4675C704.855 85.9887 706.94 86.9441 708.503 88.3338C709.893 89.5498 710.24 91.3738 709.546 93.8058C709.024 96.2378 706.679 102.231 702.51 111.785C697.472 123.945 694.432 132.892 693.39 138.624C692.695 142.967 692.608 145.312 693.13 145.66C694.519 146.354 703.205 138.798 719.187 122.99C728.394 113.783 733.518 108.919 734.56 108.398C736.471 107.529 738.99 107.964 742.117 109.701C744.375 110.743 745.505 111.525 745.505 112.046C745.505 113.088 741.422 117.692 733.258 125.856C732.389 126.551 731.694 127.159 731.173 127.68C722.487 136.366 717.015 141.838 714.757 144.096C712.499 146.181 710.067 148.092 707.461 149.829C703.813 152.434 700.686 153.998 698.08 154.519C695.475 154.866 692.348 154.258 688.7 152.695C684.357 150.958 681.751 148.439 680.883 145.138C680.014 141.664 680.622 136.279 682.707 128.983C684.27 123.25 686.442 116.997 689.221 110.222C690.437 107.442 690.784 106.053 690.263 106.053C689.395 106.053 685.66 109.527 679.059 116.476C670.373 125.509 661.427 135.324 652.22 145.92C641.45 158.08 634.935 164.681 632.677 165.724C630.592 166.766 627.813 166.766 624.339 165.724Z" fill="url(#paint7_linear_1049_251)" shape-rendering="crispEdges"/>
<path d="M768.307 166.766C764.311 166.245 760.663 164.942 757.363 162.857C752.151 159.557 747.548 150.871 743.552 136.8C743.379 135.758 743.118 135.063 742.771 134.716C742.597 134.194 742.336 134.021 741.989 134.194C741.294 134.194 738.862 138.19 734.693 146.181C732.435 150.524 730.871 153.129 730.002 153.998C728.96 154.693 727.31 154.78 725.052 154.258C721.056 153.564 718.798 152.521 718.277 151.132C718.103 150.263 720.796 142.793 726.354 128.722C731.74 114.478 737.733 99.5384 744.334 83.9041C761.705 43.4286 772.476 22.0617 776.645 19.8034C778.382 18.9349 780.901 19.2823 784.201 20.8457C786.633 22.2355 787.849 23.3646 787.849 24.2332C787.849 24.4069 786.807 26.0572 784.723 29.184C780.901 35.0903 775.863 44.8183 769.609 58.3681C760.055 78.8664 755.017 90.3315 754.496 92.7635C754.323 93.6321 754.496 93.8927 755.017 93.5453C755.886 93.1978 757.884 91.4607 761.011 88.3338C770.565 79.3007 778.035 74.6104 783.42 74.2629C786.547 74.0892 789.587 74.6972 792.54 76.0869C795.493 77.4767 797.23 79.2138 797.751 81.2984C798.62 83.7304 798.012 87.031 795.927 91.2001C793.148 96.759 788.284 103.013 781.335 109.961C774.213 117.084 767.091 122.382 759.968 125.856C756.147 127.593 754.149 128.636 753.975 128.983C753.975 129.157 754.583 131.849 755.799 137.061C757.015 142.098 757.971 145.573 758.665 147.484C760.75 153.564 762.835 157.646 764.919 159.73C766.135 160.946 768.567 160.338 772.215 157.906C776.037 155.474 781.596 150.089 788.892 141.751C796.361 133.413 802.094 126.03 806.089 119.602C808.174 116.476 809.564 114.652 810.259 114.13C811.127 113.436 812.43 113.175 814.167 113.349C815.557 113.522 817.034 114.044 818.597 114.912C820.334 115.781 821.289 116.476 821.463 116.997C821.984 118.213 818.51 123.685 811.04 133.413C803.049 144.357 796.796 151.913 792.279 156.082C783.593 164.247 775.603 167.808 768.307 166.766ZM756.841 115.954C761.879 112.48 767.004 107.964 772.215 102.405C777.427 96.8458 781.075 92.0687 783.159 88.0733C784.549 85.1201 784.809 83.8172 783.941 84.1647C783.072 84.1647 781.596 85.0332 779.511 86.7704C772.215 92.6767 764.485 100.928 756.32 111.525C753.02 116.041 752.064 118.126 753.454 117.778C754.149 117.605 755.278 116.997 756.841 115.954Z" fill="url(#paint8_linear_1049_251)" shape-rendering="crispEdges"/>
<path d="M866.829 162.076C864.397 163.292 861.357 163.465 857.709 162.597C854.061 161.554 851.803 160.078 850.934 158.167C849.718 155.735 849.805 150.958 851.195 143.836C851.89 140.014 852.063 137.929 851.716 137.582C851.369 137.234 849.458 139.058 845.983 143.054C838.514 151.218 832.955 156.256 829.307 158.167C825.659 160.252 821.403 160.599 816.539 159.209C813.412 158.514 811.327 157.385 810.285 155.822C809.069 154.258 808.461 151.826 808.461 148.526C808.461 142.793 810.719 134.716 815.236 124.293C819.753 113.87 825.572 103.273 832.694 92.503C836.516 86.423 839.122 82.775 840.511 81.559C841.901 80.1692 843.812 79.6481 846.244 79.9955C846.591 79.9955 847.026 80.0824 847.547 80.2561C848.242 80.4298 848.763 80.6035 849.11 80.7772C849.631 80.7772 850.153 80.951 850.674 81.2984C851.195 81.4721 851.629 81.6458 851.977 81.8195C852.324 81.9932 852.585 82.167 852.758 82.3407C853.106 82.5144 853.279 82.6881 853.279 82.8618C853.453 83.383 852.411 85.1201 850.153 88.0733C846.505 93.111 842.335 99.799 837.645 108.137C832.955 116.302 829.394 123.25 826.962 128.983C824.009 136.279 822.185 142.359 821.49 147.223C821.142 149.655 821.229 150.871 821.75 150.871C822.445 151.045 825.051 148.786 829.567 144.096C840.511 132.978 853.801 116.91 869.435 95.8904C873.778 90.1578 876.383 87.2047 877.252 87.031C878.815 86.5098 880.9 86.6835 883.506 87.5521C886.111 88.4207 887.501 89.2892 887.675 90.1578C887.675 90.679 886.633 92.7635 884.548 96.4115C879.163 105.271 874.733 113.957 871.259 122.469C869.695 126.117 868.306 129.938 867.09 133.934C865.874 137.929 865.005 141.317 864.484 144.096C863.963 146.702 863.963 148.005 864.484 148.005C864.658 148.005 865.005 147.831 865.526 147.484C866.221 146.962 868.827 143.575 873.343 137.321C878.034 131.068 881.855 125.682 884.809 121.166C888.457 115.607 890.628 112.654 891.323 112.306C892.713 111.612 894.884 111.698 897.837 112.567C900.964 113.436 902.528 114.391 902.528 115.433C902.528 116.302 899.314 121.426 892.886 130.807C886.459 140.188 881.161 147.31 876.991 152.174C872.649 157.385 869.261 160.686 866.829 162.076Z" fill="url(#paint9_linear_1049_251)" shape-rendering="crispEdges"/>
<path d="M890.503 164.16C886.855 163.118 884.596 161.815 883.728 160.252C881.817 156.604 884.683 146.354 892.327 129.504C899.796 112.654 909.524 94.935 921.511 76.3475C931.065 61.2344 940.185 48.4663 948.871 38.0435C949.913 37.0012 950.608 36.3063 950.955 35.9589C951.303 35.6115 951.65 35.3509 951.997 35.1772C952.519 35.0035 953.213 34.9166 954.082 34.9166C957.904 34.9166 960.944 36.2195 963.202 38.8252C964.418 40.2149 964.244 41.2572 962.681 41.952C960.596 42.6469 953.821 51.2458 942.356 67.7487C932.976 81.1247 924.29 95.1955 916.299 109.961C908.308 124.727 902.489 137.148 898.841 147.223C898.146 149.308 897.712 150.871 897.538 151.913C897.364 152.782 897.364 153.39 897.538 153.737C897.885 153.911 898.32 153.824 898.841 153.477C899.536 153.129 900.578 152.434 901.968 151.392C908.048 146.528 917.168 137.929 929.328 125.596L941.314 113.609H943.659C946.265 113.609 948.436 114.13 950.173 115.173C951.911 116.041 952.605 117.084 952.258 118.3C951.911 118.994 947.307 123.858 938.448 132.892C921.597 149.568 909.698 159.644 902.749 163.118C898.58 165.029 894.498 165.376 890.503 164.16Z" fill="url(#paint10_linear_1049_251)" shape-rendering="crispEdges"/>
</g>
<defs>
<filter id="filter0_d_1049_251" x="0" y="0" width="968" height="251.32" filterUnits="userSpaceOnUse" color-interpolation-filters="sRGB">
<feFlood flood-opacity="0" result="BackgroundImageFix"/>
<feColorMatrix in="SourceAlpha" type="matrix" values="0 0 0 0 0 0 0 0 0 0 0 0 0 0 0 0 0 0 127 0" result="hardAlpha"/>
<feOffset dy="4"/>
<feGaussianBlur stdDeviation="2"/>
<feComposite in2="hardAlpha" operator="out"/>
<feColorMatrix type="matrix" values="0 0 0 0 0.0876465 0 0 0 0 0.0876465 0 0 0 0 0.0876465 0 0 0 0.25 0"/>
<feBlend mode="normal" in2="BackgroundImageFix" result="effect1_dropShadow_1049_251"/>
<feBlend mode="normal" in="SourceGraphic" in2="effect1_dropShadow_1049_251" result="shape"/>
</filter>
<linearGradient id="paint0_linear_1049_251" x1="107.823" y1="-16.9696" x2="933.016" y2="189.834" gradientUnits="userSpaceOnUse">
<stop stop-color="#DEDEDE"/>
<stop offset="1" stop-color="white" stop-opacity="0.7"/>
</linearGradient>
<linearGradient id="paint1_linear_1049_251" x1="107.823" y1="-16.9696" x2="933.016" y2="189.834" gradientUnits="userSpaceOnUse">
<stop stop-color="#DEDEDE"/>
<stop offset="1" stop-color="white" stop-opacity="0.7"/>
</linearGradient>
<linearGradient id="paint2_linear_1049_251" x1="107.823" y1="-16.9696" x2="933.016" y2="189.834" gradientUnits="userSpaceOnUse">
<stop stop-color="#DEDEDE"/>
<stop offset="1" stop-color="white" stop-opacity="0.7"/>
</linearGradient>
<linearGradient id="paint3_linear_1049_251" x1="107.823" y1="-16.9696" x2="933.016" y2="189.834" gradientUnits="userSpaceOnUse">
<stop stop-color="#DEDEDE"/>
<stop offset="1" stop-color="white" stop-opacity="0.7"/>
</linearGradient>
<linearGradient id="paint4_linear_1049_251" x1="107.823" y1="-16.9696" x2="933.016" y2="189.834" gradientUnits="userSpaceOnUse">
<stop stop-color="#DEDEDE"/>
<stop offset="1" stop-color="white" stop-opacity="0.7"/>
</linearGradient>
<linearGradient id="paint5_linear_1049_251" x1="107.823" y1="-16.9696" x2="933.016" y2="189.834" gradientUnits="userSpaceOnUse">
<stop stop-color="#DEDEDE"/>
<stop offset="1" stop-color="white" stop-opacity="0.7"/>
</linearGradient>
<linearGradient id="paint6_linear_1049_251" x1="107.823" y1="-16.9696" x2="933.016" y2="189.834" gradientUnits="userSpaceOnUse">
<stop stop-color="#DEDEDE"/>
<stop offset="1" stop-color="white" stop-opacity="0.7"/>
</linearGradient>
<linearGradient id="paint7_linear_1049_251" x1="107.823" y1="-16.9696" x2="933.016" y2="189.834" gradientUnits="userSpaceOnUse">
<stop stop-color="#DEDEDE"/>
<stop offset="1" stop-color="white" stop-opacity="0.7"/>
</linearGradient>
<linearGradient id="paint8_linear_1049_251" x1="107.823" y1="-16.9696" x2="933.016" y2="189.834" gradientUnits="userSpaceOnUse">
<stop stop-color="#DEDEDE"/>
<stop offset="1" stop-color="white" stop-opacity="0.7"/>
</linearGradient>
<linearGradient id="paint9_linear_1049_251" x1="107.823" y1="-16.9696" x2="933.016" y2="189.834" gradientUnits="userSpaceOnUse">
<stop stop-color="#DEDEDE"/>
<stop offset="1" stop-color="white" stop-opacity="0.7"/>
</linearGradient>
<linearGradient id="paint10_linear_1049_251" x1="107.823" y1="-16.9696" x2="933.016" y2="189.834" gradientUnits="userSpaceOnUse">
<stop stop-color="#DEDEDE"/>
<stop offset="1" stop-color="white" stop-opacity="0.7"/>
</linearGradient>
</defs>
</svg>
