<svg width="698" height="144" viewBox="0 0 698 144" fill="none" xmlns="http://www.w3.org/2000/svg">
<path d="M36.728 53C52.216 34.44 67.448 20.872 82.552 12.296C97.528 3.84799 109.816 0.00799561 119.288 0.903992C128.888 1.92799 133.112 7.30399 132.088 17.288C131.704 19.08 130.808 20.232 129.528 20.872C128.12 21.512 126.712 21.512 125.432 21C124.152 20.36 123.256 19.08 123 17.16V15.496C123 14.344 122.872 13.32 122.488 12.424C122.104 11.528 121.08 10.888 119.416 10.504C115.448 9.864 111.352 10.12 107 11.4C102.648 12.68 98.68 14.088 95.224 15.88C78.584 24.456 63.864 35.848 51.192 50.056L50.68 50.568C50.552 50.824 50.296 50.952 50.168 51.08C50.168 51.208 50.04 51.336 50.04 51.464C50.04 51.592 49.912 51.72 49.912 51.848V51.976C69.368 49.288 88.952 47.368 108.664 46.216C109.432 46.088 110.456 45.576 111.48 44.808C112.504 43.912 113.784 43.4 114.936 43.016C116.216 42.632 117.496 43.272 118.776 44.808C119.16 45.192 119.416 45.448 119.8 45.576C120.312 45.704 120.696 45.832 121.208 45.832C123.64 45.832 126.712 45.832 130.552 45.96C134.392 46.216 137.336 46.6 139.512 47.368C141.176 48.136 142.072 49.288 142.328 50.824C142.456 52.36 142.072 53.64 140.92 54.792C139.768 55.944 138.104 56.456 135.672 56.072C129.784 55.048 123.768 54.792 117.752 55.176C117.24 55.176 116.728 55.176 116.216 55.304C115.704 55.304 115.192 55.56 114.552 56.072C113.912 56.584 113.272 57.224 112.76 57.736L111.608 59.272C107.256 65.672 102.52 74.248 97.144 85C91.896 95.624 87.928 105.608 84.984 115.08C84.856 116.104 84.856 116.744 85.112 117.128C85.24 117.384 85.496 117.768 85.752 118.024C86.136 118.152 86.648 118.664 87.032 119.432C87.544 120.584 87.544 121.992 86.648 123.4C85.88 124.936 84.728 126.088 83.32 127.112C81.784 128.136 80.376 128.392 78.84 128.008C77.432 127.624 76.408 126.216 75.768 123.656C74.744 118.536 76.152 111.624 79.736 102.792C83.32 93.96 86.136 87.176 88.312 82.696C89.72 79.496 90.488 77.576 90.488 76.808L54.008 103.432C50.296 106.12 46.072 108.808 41.08 111.24C36.216 113.8 31.48 115.336 27 115.848C18.04 116.232 13.176 112.008 12.28 103.048C12.408 96.904 13.816 90.632 16.888 84.36C19.832 78.088 23.032 72.328 26.36 67.08C26.616 66.696 26.872 66.312 27 65.928C24.696 66.44 21.496 67.208 17.4 68.488C13.304 69.768 10.104 70.92 7.928 72.2C5.752 73.352 3.96 73.352 2.552 72.328C1.144 71.176 0.504 69.64 0.759999 67.72C1.016 65.8 2.808 64.136 5.88 62.856C10.488 61.064 14.712 59.656 18.68 58.632C22.648 57.48 27 56.456 31.608 55.432C32.248 55.304 32.888 55.176 33.528 54.92C34.808 54.664 35.832 54.024 36.728 53ZM21.752 103.56C22.392 106.12 24.312 107.144 27.384 106.504C30.584 105.992 33.784 104.84 37.112 103.048C40.44 101.384 42.744 99.976 44.152 99.08C53.24 93.064 62.968 86.152 73.336 78.472C83.704 70.792 92.92 63.496 100.856 56.456C100.344 56.072 97.4 56.072 92.024 56.456C86.776 56.968 80.376 57.608 73.208 58.504C66.04 59.4 59.512 60.168 53.496 61.064L42.104 62.6C40.824 62.856 39.928 63.496 39.16 64.52C38.648 65.416 37.88 66.568 37.112 67.72C33.656 72.712 30.072 78.6 26.36 85.512C22.776 92.424 21.112 98.44 21.752 103.56ZM147.314 100.744C143.73 99.592 141.81 97.544 141.426 94.344C141.17 91.144 141.682 87.688 143.09 83.848C144.37 80.136 145.906 76.808 147.57 74.12C147.058 74.632 146.29 75.4 145.394 76.552C143.09 79.112 140.018 82.44 136.306 86.28C132.466 90.12 128.498 93.576 124.402 96.648C120.818 99.208 118.002 100.36 116.082 100.232C114.162 100.104 112.754 99.336 111.858 97.928C110.194 96.008 110.322 93.064 112.114 89.096C114.034 85.384 117.49 80.904 122.226 75.784C127.09 70.536 132.21 66.184 137.458 62.728C142.706 59.272 147.058 58.12 150.386 59.528C150.898 59.784 151.41 59.784 151.922 59.528L153.458 58.504C154.098 57.864 154.866 57.352 155.89 56.968C156.786 56.84 157.938 57.096 159.218 57.864C160.37 58.632 161.394 59.656 162.162 60.936C162.93 62.088 163.058 63.24 162.546 64.392C162.034 65.288 161.394 66.568 160.37 68.232C158.706 71.048 157.042 74.248 155.25 77.704C153.458 81.288 152.306 84.36 151.666 87.176C151.154 89.864 151.794 91.4 153.842 91.784C156.53 91.912 160.37 90.76 165.106 88.2C169.97 85.64 174.834 82.568 179.826 78.856C184.818 75.272 188.786 71.816 191.858 68.616C193.138 67.336 194.418 66.952 195.698 67.208C196.85 67.464 197.618 68.232 197.874 69.64C198.002 70.92 197.234 72.584 195.442 74.504C189.042 81.16 180.85 87.304 171.122 93.192C161.394 99.08 153.458 101.512 147.314 100.744ZM218.268 88.072C220.444 85.384 222.492 82.312 224.54 78.6C226.588 75.016 228.124 71.816 229.02 69.256C230.172 65.544 229.916 63.88 228.38 64.392C224.796 65.416 220.316 68.36 214.94 73.096C209.436 77.832 204.444 82.696 199.964 87.816L192.668 94.728C190.748 96.264 188.7 96.776 186.524 96.264C184.22 95.624 182.556 94.6 181.276 92.936C180.124 91.272 179.868 89.224 180.764 86.792C182.044 83.848 184.22 79.624 187.42 74.12C190.62 68.616 194.204 63.624 198.172 59.016C199.324 57.992 200.476 57.736 201.884 58.12C203.292 58.632 204.444 59.4 205.212 60.552C205.852 61.704 205.852 62.856 204.956 64.008C203.42 65.672 201.756 67.72 199.964 70.152C198.044 72.584 196.252 75.144 194.588 77.576C192.284 81.288 191.26 83.208 191.644 83.08C192.156 82.952 193.564 81.672 196.124 79.24L196.892 78.472C200.22 75.272 204.188 71.688 208.924 67.72C213.66 63.752 218.14 60.424 222.364 57.736C227.356 54.92 231.58 54.536 234.78 56.584C237.98 58.504 239.26 61.96 238.876 66.696C238.364 70.024 236.572 74.76 233.116 80.904C236.444 78.472 241.308 75.784 247.708 72.968C254.236 70.152 259.612 68.488 264.092 67.976C265.372 67.976 266.14 68.488 266.652 69.64C267.164 70.792 267.164 71.944 266.78 73.096C266.396 74.376 265.5 75.144 264.22 75.272C260.508 75.912 255.388 77.96 248.988 81.288C242.588 84.744 236.572 88.456 230.94 92.296C225.308 96.264 221.724 99.464 220.06 101.64C217.628 105.608 213.788 111.624 208.54 119.56C203.164 127.496 198.172 134.408 193.436 140.168C191.388 142.472 188.956 143.496 186.012 143.24C183.196 142.984 181.02 141.832 179.484 139.784C178.076 137.736 178.332 135.176 180.252 131.976C189.724 119.048 197.916 109.32 204.956 102.664C209.18 98.44 213.66 93.448 218.268 88.072ZM257.158 104.328C256.006 105.992 254.47 106.888 252.55 106.888C250.758 106.888 249.094 106.12 247.942 104.84C246.662 103.432 246.406 101.512 247.174 99.08C249.35 93.064 251.91 86.92 254.726 80.776C257.542 74.504 261.51 66.952 266.63 58.12C267.91 55.944 269.19 54.664 270.47 54.28C271.622 53.896 272.646 54.152 273.67 54.792C274.822 55.688 275.462 56.712 275.718 58.248C275.974 59.656 275.206 61.192 273.414 62.856C272.518 63.752 271.366 65.672 269.702 68.488C268.166 71.432 266.63 74.248 265.222 77.064C263.814 79.88 263.046 81.672 262.918 82.44C263.942 81.16 264.966 79.752 266.118 78.216C268.55 75.016 271.11 71.816 273.67 68.488C276.358 65.288 278.662 62.728 280.838 60.808C282.758 59.272 284.678 58.888 286.598 59.528C288.518 60.168 289.67 61.576 290.054 63.752C290.182 65.032 290.182 66.44 290.054 67.976C289.926 69.128 289.798 70.152 289.926 71.176C289.926 72.072 290.182 72.84 290.694 73.224C291.974 74.12 294.278 73.992 297.35 72.968C300.55 72.072 303.622 70.664 306.566 68.872C307.718 68.232 308.614 68.36 309.254 69.256C310.022 70.28 310.278 71.432 310.022 72.84C309.766 74.248 308.742 75.528 306.95 76.552C302.214 78.984 297.478 80.648 292.998 81.416C288.39 82.312 285.318 82.184 283.654 80.904C282.63 79.88 282.118 78.728 281.99 77.32C281.862 75.784 281.862 74.504 282.118 73.352V71.56C281.99 71.304 281.734 71.304 281.35 71.56C277.894 74.888 273.67 79.88 268.806 86.792C263.942 93.576 259.974 99.464 257.158 104.328ZM308.573 62.216C309.597 61.064 310.877 60.808 312.669 61.192C314.333 61.576 315.613 62.472 316.637 63.752C317.661 65.16 317.661 66.568 316.637 68.232C313.821 71.816 311.261 75.528 308.829 79.368C306.397 83.08 304.861 86.28 304.477 88.84C303.965 91.4 305.245 92.552 308.317 92.296C312.925 91.656 318.173 89.736 323.805 86.536C329.437 83.336 334.557 80.008 339.293 76.552C344.029 73.096 347.229 70.536 349.021 69.128C349.533 68.744 349.789 68.488 349.917 68.36C350.941 67.72 351.965 67.464 352.861 67.848C353.885 68.232 354.397 68.872 354.653 69.896C354.909 70.92 354.397 71.944 353.245 73.224C351.197 75.144 347.485 78.344 341.853 82.824C336.221 87.304 330.077 91.4 323.293 95.24C316.509 99.08 310.493 101 305.117 101.128C299.741 101.256 296.413 97.928 295.005 91.144C294.877 86.28 296.541 80.904 299.997 75.144C303.453 69.384 306.269 65.032 308.573 62.216ZM316.125 54.408C316.765 52.232 317.661 49.8 319.069 47.24C320.349 44.808 321.885 42.888 323.421 41.736C324.189 41.224 325.469 40.84 327.133 40.84C328.797 40.712 330.333 40.968 331.613 41.48C333.021 41.992 333.533 42.888 333.149 44.296C332.509 45.832 331.101 47.88 328.925 50.184C326.621 52.616 324.317 54.664 321.885 56.328C319.453 58.12 317.661 58.76 316.509 58.504C315.741 58.12 315.613 56.712 316.125 54.408ZM357.723 49.928C358.875 48.648 360.155 48.136 361.691 48.392C363.227 48.776 364.379 49.544 365.147 50.824C366.043 52.104 366.043 53.384 365.147 54.792C362.203 58.888 357.211 67.464 350.299 80.648C352.987 76.936 356.827 71.944 361.819 65.544C366.683 59.272 370.907 54.664 374.107 51.72C375.515 50.696 376.795 50.312 378.203 50.696C379.483 50.952 380.507 51.592 381.275 52.616C382.171 53.512 382.427 54.536 382.171 55.432C381.403 58.12 380.123 61.96 378.075 67.208C376.411 71.56 375.003 75.528 373.851 78.984C373.211 80.904 372.827 82.184 372.827 82.696C372.827 83.208 373.083 83.208 373.595 82.696C374.107 82.184 374.747 81.416 375.643 80.264C375.899 79.752 376.283 79.368 376.667 78.856C378.203 76.808 379.867 74.76 381.403 72.456C384.219 68.744 386.779 65.288 389.339 62.216C390.747 60.68 392.155 59.912 393.691 59.912C395.099 59.784 396.379 60.296 397.403 61.192C398.299 62.088 398.683 63.24 398.555 64.648C397.659 71.816 398.811 76.296 402.139 77.832C405.339 79.496 409.435 79.496 414.299 78.088C419.163 76.68 423.515 75.144 427.483 73.352C428.507 72.84 429.531 72.456 430.427 72.072C431.835 71.56 432.859 71.688 433.755 72.456C434.651 73.224 435.035 74.12 435.035 75.272C435.035 76.424 434.523 77.32 433.371 78.088C426.971 81.672 420.571 84.232 414.171 85.512C407.899 86.92 402.395 86.536 397.787 84.616C395.739 83.72 394.075 82.312 392.539 80.136C391.003 78.088 390.107 75.784 389.723 73.48C388.571 74.76 387.163 76.552 385.499 78.984C382.811 83.08 379.739 86.92 376.283 90.504C372.955 94.216 369.627 95.752 366.555 94.984C363.995 93.832 362.715 91.656 362.971 88.456C363.099 85.256 363.739 82.056 364.891 78.856C365.659 76.68 366.299 74.76 367.067 72.84L368.219 69.512C368.475 68.616 368.475 68.36 368.219 68.744C365.403 71.688 361.819 76.424 357.339 82.696C352.859 89.096 349.147 94.472 346.203 98.952C345.691 99.72 345.179 100.36 344.795 100.872C343.003 103.304 341.211 104.328 339.291 104.2C337.371 103.944 335.707 103.176 334.555 101.768C333.275 100.488 332.891 99.08 333.275 97.928C337.755 86.92 342.235 77.064 346.715 68.36C351.323 59.656 354.907 53.512 357.723 49.928ZM418.758 100.744C414.662 99.464 412.87 96.904 413.382 93.064C413.766 89.096 415.302 85.512 417.734 81.928C423.366 73.608 430.406 66.312 438.598 60.296C445.894 55.304 451.27 53.64 454.726 54.92C458.182 56.328 459.078 59.016 457.542 62.984C455.494 66.824 452.422 69.896 448.198 72.328C443.974 74.888 439.878 76.936 435.654 78.6C433.734 79.368 431.942 80.264 430.278 80.904C429.254 81.544 428.102 82.44 427.078 83.592C425.926 84.872 424.902 86.152 424.134 87.56C423.238 88.84 422.854 89.992 422.726 91.016C422.598 91.912 423.11 92.296 424.262 92.296C430.79 91.4 440.134 88.072 452.55 82.312C464.838 76.552 474.822 71.048 482.374 65.672C484.166 64.776 485.702 64.776 486.982 65.544C488.262 66.184 488.902 67.464 488.902 69C488.774 70.664 487.494 72.328 485.062 74.12C480.582 77.192 473.926 80.904 465.222 85.512C456.646 89.992 447.942 93.832 439.11 97.16C430.406 100.36 423.622 101.512 418.758 100.744ZM486.109 61.576C487.133 60.296 488.413 59.784 489.949 60.168C491.485 60.552 492.765 61.448 493.789 62.728C494.685 64.136 494.813 65.416 494.045 66.696C493.149 67.976 492.253 69.384 491.357 70.536C490.333 72.072 489.437 73.352 488.669 74.376C488.029 75.528 487.645 76.296 487.645 76.808C488.925 75.528 490.973 73.608 494.045 70.92C496.989 68.232 500.061 65.544 503.133 63.112C506.205 60.552 508.509 58.888 509.917 58.248C511.069 57.864 512.349 58.12 513.629 58.888C515.037 59.656 516.061 60.68 516.957 62.088C517.853 63.368 518.237 64.776 517.981 66.056C517.725 67.08 517.213 68.36 516.445 70.024L513.629 75.4C512.221 78.088 511.069 80.392 510.173 82.44C509.149 84.488 509.021 85.768 509.533 86.024C511.453 86.536 514.141 85.896 517.725 84.104C521.309 82.312 524.765 80.264 528.093 77.96C531.549 75.656 533.853 73.992 535.261 72.968C535.261 72.968 535.389 72.84 535.517 72.84C536.925 71.816 538.205 71.688 539.229 72.2C540.253 72.84 540.765 73.736 540.893 75.016C540.893 76.296 540.253 77.448 538.845 78.6C532.957 83.208 526.557 87.304 519.389 91.144C512.221 94.856 506.461 96.008 502.237 94.216C499.677 92.552 499.037 89.864 500.061 86.024C501.085 82.184 502.365 78.6 504.029 75.272C504.669 73.864 505.181 72.712 505.565 71.688C505.693 70.792 504.797 71.304 502.621 73.096C500.573 74.888 498.013 77.448 494.941 80.52L485.981 89.608C482.653 93.064 480.349 95.496 479.069 96.776C477.917 97.544 476.637 97.8 475.101 97.288C473.693 96.776 472.413 95.88 471.517 94.6C470.621 93.192 470.493 91.656 471.133 89.864C475.101 81.032 480.093 71.688 486.109 61.576ZM570.534 29.96C569.894 31.24 569.254 32.008 568.87 32.392C568.358 32.776 567.846 33.032 567.462 33.16C567.078 33.16 566.694 33.416 566.31 33.672C565.926 33.928 565.414 34.568 564.774 35.464C563.75 37.256 561.702 40.584 558.758 45.448C555.814 50.44 552.998 55.304 550.438 60.168C547.75 64.904 546.342 67.976 546.214 69.256C547.494 68.232 549.414 66.824 552.102 65.032C554.79 63.112 557.222 61.704 559.526 60.808C561.446 60.168 563.11 60.552 564.39 61.704C565.798 62.856 566.438 64.264 566.566 65.928C566.566 67.592 565.798 68.872 564.006 69.64C557.99 71.688 552.87 74.376 548.774 77.832C546.982 79.624 547.622 80.648 550.694 80.776C553.766 80.904 557.35 80.648 561.446 80.008C565.542 79.368 570.022 78.344 575.014 77.064C580.006 75.784 584.87 74.248 589.606 72.456C591.27 72.072 592.55 72.328 593.574 73.096C594.47 73.992 594.982 75.016 594.854 76.296C594.598 77.576 593.83 78.472 592.166 79.24C587.046 81.416 580.134 83.592 571.814 85.768C563.366 87.816 556.07 88.968 550.054 89.096C544.038 89.224 540.07 87.688 538.15 84.616C535.718 90.12 532.902 96.776 529.702 104.584C526.63 112.392 524.07 119.048 522.278 124.68C521.766 125.96 520.614 126.6 519.078 126.6C517.414 126.728 515.878 126.344 514.598 125.448C513.19 124.552 512.678 123.4 513.062 121.864C514.982 115.336 517.158 109.576 519.334 104.456L519.718 103.56C532.902 70.152 550.438 38.664 572.07 9.09599C574.374 6.27999 576.422 4.744 578.214 4.616C580.134 4.48799 581.414 4.99999 582.31 6.408C583.078 7.81599 583.206 9.352 582.31 11.016C581.67 12.168 580.518 13.96 578.982 16.392C576.294 20.232 573.478 24.712 570.534 29.96ZM639.284 121.224C638.772 123.144 637.492 124.168 635.572 124.424C633.652 124.552 631.988 124.168 630.452 123.016C628.916 121.864 628.532 120.2 629.044 118.024C630.452 113.928 632.884 107.784 636.596 99.592C640.18 91.4 643.252 84.36 645.94 78.472C647.092 75.912 647.86 74.12 648.372 73.096C646.324 75.912 643.124 79.752 638.644 84.744C634.164 89.864 629.3 94.216 624.18 97.8C619.06 101.512 614.452 102.664 610.612 101.512C608.052 100.36 606.644 98.44 606.132 95.88C605.62 93.192 606.004 90.376 607.156 87.304C603.7 91.4 600.372 94.984 597.428 97.928C594.484 101 592.308 102.92 590.644 103.688C587.444 104.968 584.372 104.712 581.428 102.92C578.484 101.128 577.332 98.44 578.228 94.856C579.124 92.04 580.532 88.712 582.452 84.744C584.372 80.776 586.42 77.064 588.468 73.608C590.388 70.152 592.052 67.72 593.204 66.312C594.868 64.904 596.404 64.52 598.196 65.16C599.86 65.8 601.012 66.824 601.78 68.36C602.548 69.896 602.292 71.432 601.012 72.712C600.244 73.352 598.708 75.272 596.66 78.344C594.484 81.416 592.308 85.384 590.132 90.12C588.084 94.472 587.828 96.392 589.236 95.88C590.772 95.368 593.204 93.32 596.532 89.48C599.988 85.768 603.7 81.288 607.796 75.912C611.892 70.536 615.476 65.16 618.804 59.656C619.956 58.632 621.236 58.376 622.9 58.76C624.436 59.272 625.716 60.04 626.74 61.192C627.892 62.344 628.148 63.368 627.508 64.264L623.796 70.28C622.132 73.352 620.34 76.552 618.548 80.136C616.756 83.592 615.476 86.664 614.58 89.224C613.812 91.784 613.94 93.192 615.092 93.32C619.956 92.808 626.74 87.56 635.572 77.448C644.404 67.464 653.492 55.432 662.964 41.48C672.564 27.4 680.756 14.216 687.668 1.8C688.564 0.647995 689.844 0.135994 691.636 0.391991C693.428 0.647995 694.836 1.41599 695.988 2.69599C697.012 3.976 697.012 5.63999 695.86 7.688C683.7 26.376 672.052 46.6 660.916 68.744C649.652 90.76 642.484 108.168 639.284 121.224Z" fill="#fff"/>
</svg>
