<svg width="1282" height="1721" viewBox="0 0 1282 1721" fill="none" xmlns="http://www.w3.org/2000/svg">
<path d="M1 1721L1 0" stroke="#333333" stroke-opacity="0.35" stroke-width="2"/>
<path d="M65 1721L65 0" stroke="#333333" stroke-opacity="0.35" stroke-width="2"/>
<path d="M129 1721L129 0" stroke="#333333" stroke-opacity="0.35" stroke-width="2"/>
<path d="M193 1721L193 0" stroke="#333333" stroke-opacity="0.35" stroke-width="2"/>
<path d="M257 1721L257 0" stroke="#333333" stroke-opacity="0.35" stroke-width="2"/>
<path d="M321 1721L321 0" stroke="#333333" stroke-opacity="0.35" stroke-width="2"/>
<path d="M385 1721L385 0" stroke="#333333" stroke-opacity="0.35" stroke-width="2"/>
<path d="M449 1721L449 0" stroke="#333333" stroke-opacity="0.35" stroke-width="2"/>
<path d="M513 1721L513 0" stroke="#333333" stroke-opacity="0.35" stroke-width="2"/>
<path d="M577 1721L577 0" stroke="#333333" stroke-opacity="0.35" stroke-width="2"/>
<path d="M641 1721L641 0" stroke="#333333" stroke-opacity="0.35" stroke-width="2"/>
<path d="M705 1721L705 0" stroke="#333333" stroke-opacity="0.35" stroke-width="2"/>
<path d="M769 1721L769 0" stroke="#333333" stroke-opacity="0.35" stroke-width="2"/>
<path d="M833 1721L833 0" stroke="#333333" stroke-opacity="0.35" stroke-width="2"/>
<path d="M897 1721L897 0" stroke="#333333" stroke-opacity="0.35" stroke-width="2"/>
<path d="M961 1721L961 0" stroke="#333333" stroke-opacity="0.35" stroke-width="2"/>
<path d="M1025 1721V0" stroke="#333333" stroke-opacity="0.35" stroke-width="2"/>
<path d="M1089 1721V0" stroke="#333333" stroke-opacity="0.35" stroke-width="2"/>
<path d="M1153 1721V0" stroke="#333333" stroke-opacity="0.35" stroke-width="2"/>
<path d="M1217 1721V0" stroke="#333333" stroke-opacity="0.35" stroke-width="2"/>
<path d="M1281 1721V0" stroke="#333333" stroke-opacity="0.35" stroke-width="2"/>
</svg>
