<svg width="1046" height="192" viewBox="0 0 1046 192" fill="none" xmlns="http://www.w3.org/2000/svg">
<path d="M85.5679 192L0.82014 0.633984H22.6905L101.971 180.791H89.942L169.769 0.633984H190.272L105.525 192H85.5679ZM147.928 192L235.41 0.633984H255.367L342.848 192H321.525L241.151 12.3893H249.352L168.979 192H147.928ZM182.374 140.878L188.389 124.475H299.654L305.669 140.878H182.374ZM340.879 192V0.633984H357.555L489.598 166.849H480.85V0.633984H500.807V192H484.13L352.361 25.7849H361.109V192H340.879ZM499.023 192L586.505 0.633984H606.462L693.943 192H672.619L592.246 12.3893H600.447L520.073 192H499.023ZM533.469 140.878L539.483 124.475H650.749L656.763 140.878H533.469ZM691.974 192V0.633984H708.65L840.693 166.849H831.944V0.633984H851.901V192H835.225L703.456 25.7849H712.204V192H691.974ZM850.118 192L937.599 0.633984H957.556L1045.04 192H1023.71L943.34 12.3893H951.542L871.168 192H850.118ZM884.564 140.878L890.578 124.475H1001.84L1007.86 140.878H884.564Z" fill="url(#paint0_linear_125_191)"/>
<defs>
<linearGradient id="paint0_linear_125_191" x1="1046" y1="150.952" x2="21.1139" y2="-58.6693" gradientUnits="userSpaceOnUse">
<stop stop-color="#706338" stop-opacity="0.72"/>
<stop offset="0.461913" stop-color="#BFB286"/>
<stop offset="1" stop-color="#BFB286"/>
</linearGradient>
</defs>
</svg>
