<svg width="624" height="534" viewBox="0 0 624 534" fill="none" xmlns="http://www.w3.org/2000/svg">
<g opacity="0.1">
<path d="M450.491 437.438C450.442 437.634 450.591 437.824 450.794 437.824H501.665C501.783 437.824 501.891 437.757 501.944 437.652L532.822 376.155C532.926 375.949 532.775 375.706 532.544 375.706H466.232C466.089 375.706 465.964 375.803 465.929 375.941L450.491 437.438Z" fill="#747474"/>
<path d="M3.03333 3.44949C2.92964 3.24298 3.08044 3 3.31231 3H65.0597C65.1424 3 65.2218 3.03272 65.2803 3.09097L96.2882 33.9679C96.3467 34.0261 96.426 34.0588 96.5088 34.0588H158.568C158.686 34.0588 158.794 34.1253 158.847 34.2305L174.13 64.6682C174.234 64.8747 174.083 65.1176 173.851 65.1176H34.191C34.0729 65.1176 33.9649 65.0512 33.9121 64.946L3.03333 3.44949Z" fill="#747474"/>
<path d="M49.8193 96.626C49.7156 96.4194 49.8664 96.1765 50.0983 96.1765H111.846C111.928 96.1765 112.008 96.2092 112.066 96.2674L143.074 127.144C143.133 127.203 143.212 127.235 143.295 127.235H205.354C205.472 127.235 205.58 127.302 205.633 127.407L220.916 157.845C221.02 158.051 220.869 158.294 220.637 158.294H80.977C80.8589 158.294 80.7509 158.228 80.698 158.122L49.8193 96.626Z" fill="#747474"/>
<path d="M96.6053 189.802C96.5016 189.596 96.6524 189.353 96.8842 189.353H158.632C158.714 189.353 158.794 189.386 158.852 189.444L189.86 220.321C189.919 220.379 189.998 220.412 190.081 220.412H252.14C252.258 220.412 252.366 220.478 252.419 220.583L267.702 251.021C267.806 251.228 267.655 251.471 267.423 251.471H127.763C127.645 251.471 127.537 251.404 127.484 251.299L96.6053 189.802Z" fill="#747474"/>
<path d="M143.391 282.979C143.288 282.772 143.438 282.529 143.67 282.529H205.418C205.5 282.529 205.58 282.562 205.638 282.62L236.646 313.497C236.705 313.556 236.784 313.588 236.867 313.588H298.926C299.044 313.588 299.152 313.655 299.205 313.76L314.488 344.198C314.592 344.404 314.441 344.647 314.209 344.647H174.549C174.431 344.647 174.323 344.581 174.27 344.475L143.391 282.979Z" fill="#747474"/>
<path d="M190.177 376.155C190.074 375.949 190.224 375.706 190.456 375.706H252.204C252.286 375.706 252.366 375.739 252.424 375.797L283.432 406.674C283.491 406.732 283.57 406.765 283.653 406.765H345.712C345.83 406.765 345.938 406.831 345.991 406.936L377.095 468.882H345.905L314.805 437.914C314.747 437.856 314.668 437.824 314.585 437.824H221.335C221.217 437.824 221.109 437.757 221.056 437.652L190.177 376.155Z" fill="#747474"/>
<path d="M377.095 468.882H345.905H237.242C237.01 468.882 236.859 469.125 236.963 469.332L267.842 530.828C267.895 530.934 268.003 531 268.121 531H407.781C408.013 531 408.164 530.757 408.06 530.55L377.095 468.882Z" fill="#747474"/>
<path d="M434.554 499.941H393.195C392.963 499.941 392.813 500.184 392.916 500.391L408.2 530.828C408.253 530.934 408.361 531 408.479 531H454.879C454.997 531 455.105 530.934 455.158 530.828L486.037 469.332C486.141 469.125 485.99 468.882 485.758 468.882H442.839C442.696 468.882 442.571 468.979 442.537 469.118L434.857 499.706C434.822 499.844 434.698 499.941 434.554 499.941Z" fill="#747474"/>
<path d="M473.883 344.261C473.834 344.457 473.983 344.647 474.186 344.647H548.451C548.569 344.647 548.677 344.581 548.73 344.475L579.609 282.979C579.713 282.772 579.562 282.529 579.33 282.529H548.837C548.719 282.529 548.611 282.596 548.558 282.701L533.135 313.417C533.083 313.522 532.975 313.588 532.857 313.588H481.828C481.685 313.588 481.56 313.685 481.526 313.823L473.883 344.261Z" fill="#747474"/>
<path d="M497.276 251.085C497.227 251.281 497.376 251.471 497.579 251.471H595.238C595.356 251.471 595.464 251.404 595.517 251.299L626.396 189.802C626.499 189.596 626.348 189.353 626.117 189.353H595.623C595.505 189.353 595.397 189.419 595.344 189.525L579.922 220.24C579.869 220.345 579.761 220.412 579.642 220.412H505.221C505.078 220.412 504.953 220.509 504.919 220.647L497.276 251.085Z" fill="#747474"/>
<path d="M520.669 157.908C520.62 158.104 520.769 158.294 520.972 158.294H642.023C642.141 158.294 642.249 158.228 642.302 158.122L673.181 96.626C673.284 96.4195 673.134 96.1765 672.902 96.1765H642.409C642.291 96.1765 642.183 96.2429 642.13 96.3482L626.708 127.064C626.655 127.169 626.547 127.235 626.428 127.235H528.614C528.471 127.235 528.346 127.332 528.312 127.471L520.669 157.908Z" fill="#747474"/>
<path d="M536.264 64.7317C536.214 64.9277 536.363 65.1176 536.566 65.1176H688.809C688.927 65.1176 689.035 65.0512 689.088 64.946L719.967 3.44949C720.07 3.24298 719.92 3 719.688 3H689.195C689.076 3 688.968 3.06647 688.916 3.17169L673.493 33.8871C673.44 33.9924 673.332 34.0588 673.214 34.0588H544.209C544.066 34.0588 543.941 34.1558 543.906 34.2941L536.264 64.7317Z" fill="#747474"/>
<path d="M377.095 468.882L345.991 406.936C345.938 406.831 345.83 406.765 345.712 406.765H283.653C283.57 406.765 283.491 406.732 283.432 406.674L252.424 375.797C252.366 375.739 252.286 375.706 252.204 375.706H190.456C190.224 375.706 190.073 375.949 190.177 376.155L221.056 437.652C221.109 437.757 221.217 437.824 221.335 437.824H314.585C314.668 437.824 314.747 437.856 314.805 437.914L345.905 468.882M377.095 468.882H345.905M377.095 468.882L408.06 530.55C408.164 530.757 408.013 531 407.781 531H268.121C268.003 531 267.895 530.934 267.842 530.828L236.963 469.332C236.859 469.125 237.01 468.882 237.242 468.882H345.905M466.232 375.706H532.543C532.775 375.706 532.926 375.949 532.822 376.155L501.944 437.652C501.891 437.757 501.783 437.824 501.665 437.824H450.794C450.591 437.824 450.442 437.634 450.491 437.438L465.929 375.941C465.964 375.803 466.089 375.706 466.232 375.706ZM34.191 65.1176H173.851C174.083 65.1176 174.234 64.8747 174.13 64.6682L158.847 34.2305C158.794 34.1253 158.686 34.0588 158.568 34.0588H96.5088C96.426 34.0588 96.3467 34.0261 96.2882 33.9679L65.2803 3.09097C65.2218 3.03272 65.1424 3 65.0597 3H3.31231C3.08044 3 2.92964 3.24298 3.03333 3.44949L33.9121 64.946C33.9649 65.0512 34.0729 65.1176 34.191 65.1176ZM80.977 158.294H220.637C220.869 158.294 221.02 158.051 220.916 157.845L205.633 127.407C205.58 127.302 205.472 127.235 205.354 127.235H143.295C143.212 127.235 143.133 127.203 143.074 127.144L112.066 96.2674C112.008 96.2092 111.928 96.1765 111.846 96.1765H50.0983C49.8664 96.1765 49.7156 96.4194 49.8193 96.626L80.698 158.122C80.7509 158.228 80.8589 158.294 80.977 158.294ZM127.763 251.471H267.423C267.655 251.471 267.806 251.228 267.702 251.021L252.419 220.583C252.366 220.478 252.258 220.412 252.14 220.412H190.081C189.998 220.412 189.919 220.379 189.86 220.321L158.852 189.444C158.794 189.386 158.714 189.353 158.632 189.353H96.8842C96.6524 189.353 96.5016 189.596 96.6053 189.802L127.484 251.299C127.537 251.404 127.645 251.471 127.763 251.471ZM174.549 344.647H314.209C314.441 344.647 314.592 344.404 314.488 344.198L299.205 313.76C299.152 313.655 299.044 313.588 298.926 313.588H236.867C236.784 313.588 236.705 313.556 236.646 313.497L205.638 282.62C205.58 282.562 205.5 282.529 205.418 282.529H143.67C143.438 282.529 143.288 282.772 143.391 282.979L174.27 344.475C174.323 344.581 174.431 344.647 174.549 344.647ZM393.195 499.941H434.554C434.698 499.941 434.822 499.844 434.857 499.706L442.537 469.118C442.571 468.979 442.696 468.882 442.839 468.882H485.758C485.99 468.882 486.141 469.125 486.037 469.332L455.158 530.828C455.105 530.934 454.997 531 454.879 531H408.479C408.361 531 408.253 530.934 408.2 530.828L392.916 500.391C392.813 500.184 392.963 499.941 393.195 499.941ZM533.136 313.417L548.558 282.701C548.611 282.596 548.718 282.529 548.837 282.529H579.33C579.562 282.529 579.713 282.772 579.609 282.979L548.73 344.475C548.677 344.581 548.569 344.647 548.451 344.647H474.186C473.983 344.647 473.834 344.457 473.883 344.261L481.526 313.823C481.56 313.685 481.685 313.588 481.828 313.588H532.857C532.975 313.588 533.083 313.522 533.136 313.417ZM505.221 220.412H579.642C579.761 220.412 579.869 220.345 579.922 220.24L595.344 189.525C595.397 189.419 595.505 189.353 595.623 189.353H626.117C626.348 189.353 626.499 189.596 626.396 189.802L595.517 251.299C595.464 251.404 595.356 251.471 595.238 251.471H497.579C497.376 251.471 497.227 251.281 497.276 251.085L504.919 220.647C504.953 220.509 505.078 220.412 505.221 220.412ZM528.614 127.235H626.428C626.547 127.235 626.655 127.169 626.707 127.064L642.13 96.3482C642.183 96.2429 642.291 96.1765 642.409 96.1765H672.902C673.134 96.1765 673.284 96.4195 673.181 96.626L642.302 158.122C642.249 158.228 642.141 158.294 642.023 158.294H520.972C520.769 158.294 520.62 158.104 520.669 157.908L528.312 127.471C528.346 127.332 528.471 127.235 528.614 127.235ZM544.209 34.0588H673.214C673.332 34.0588 673.44 33.9924 673.493 33.8871L688.916 3.17169C688.968 3.06647 689.076 3 689.195 3H719.688C719.92 3 720.07 3.24298 719.967 3.44949L689.088 64.946C689.035 65.0512 688.927 65.1176 688.809 65.1176H536.566C536.363 65.1176 536.214 64.9278 536.264 64.7317L543.906 34.2941C543.941 34.1558 544.066 34.0588 544.209 34.0588Z" stroke="#747474" stroke-width="6"/>
</g>
</svg>
