<svg width="756" height="20" viewBox="0 0 756 20" fill="none" xmlns="http://www.w3.org/2000/svg">
<path d="M157.327 8.07692C168.105 7.82051 178.316 7.4359 188.527 7.17949C209.328 6.66667 230.128 6.15385 250.928 5.76923C277.402 5.12821 303.875 4.61538 330.159 4.10256C351.338 3.71795 372.516 3.33333 393.695 3.07692C444.75 2.30769 495.806 1.53846 546.861 0.897436C584.68 0.384615 622.688 0 660.696 0C678.093 0 695.49 0.128205 712.886 0.25641C724.421 0.384615 736.145 0.769231 747.68 1.15385C749.382 1.15385 751.084 1.28205 752.596 1.53846C754.676 1.92308 756 2.4359 756 3.46154V3.58974C756 4.48718 754.676 5.12821 752.218 5.38462C750.516 5.64103 748.814 5.64103 747.113 5.64103C720.45 5 693.788 4.74359 666.936 4.74359C643.867 4.74359 620.608 5 597.539 5.25641C531.923 6.02564 466.118 6.79487 400.502 7.82051C349.069 8.58974 297.446 9.74359 246.012 10.7692C211.786 11.5385 177.749 12.4359 143.712 13.4615C103.246 14.7436 62.7794 16.6667 22.5023 19.2308C18.3422 19.4872 13.993 19.7436 9.83292 19.8718C9.07654 19.8718 8.32016 20 7.56378 20C6.8074 20 6.05103 19.8718 5.29465 19.8718C2.26913 19.6154 0 18.8462 0 17.6923V17.5641C0 16.5385 1.32366 15.7692 3.78189 15.3846C5.29465 15.1282 6.8074 14.8718 8.50925 14.7436C45.0045 10.641 81.6888 6.79487 119.13 4.23077C126.126 3.71795 133.312 3.20513 140.497 3.20513C142.955 3.20513 145.603 3.33333 148.25 3.46154C149.574 3.58974 150.897 3.71795 152.032 3.84615C156.57 4.23077 158.461 4.8718 158.461 6.02564C158.461 6.53846 158.083 7.17949 157.327 8.07692ZM117.428 9.35897C127.639 9.10256 137.85 8.97436 147.872 8.07692C145.603 7.94872 143.334 7.82051 141.065 7.82051C133.123 7.82051 125.181 8.71795 117.428 9.35897Z" fill="white"/>
</svg>
