<svg width="586" height="433" viewBox="0 0 586 433" fill="none" xmlns="http://www.w3.org/2000/svg">
<g opacity="0.1">
<path d="M364.987 354.335C364.947 354.494 365.068 354.647 365.232 354.647H406.383C406.479 354.647 406.566 354.593 406.609 354.508L431.587 304.775C431.671 304.608 431.549 304.412 431.362 304.412H377.72C377.605 304.412 377.504 304.49 377.476 304.602L364.987 354.335Z" fill="#747474"/>
<path d="M3.02696 3.36351C2.94308 3.1965 3.06507 3 3.25263 3H53.2017C53.2686 3 53.3328 3.02646 53.3801 3.07357L78.4633 28.0441C78.5106 28.0912 78.5748 28.1176 78.6417 28.1176H128.843C128.939 28.1176 129.026 28.1714 129.069 28.2565L141.432 52.8718C141.516 53.0388 141.394 53.2353 141.206 53.2353H28.2312C28.1357 53.2353 28.0483 53.1815 28.0056 53.0964L3.02696 3.36351Z" fill="#747474"/>
<path d="M40.8733 78.7164C40.7895 78.5494 40.9115 78.3529 41.099 78.3529H91.0481C91.115 78.3529 91.1792 78.3794 91.2265 78.4265L116.31 103.397C116.357 103.444 116.421 103.471 116.488 103.471H166.689C166.785 103.471 166.872 103.524 166.915 103.609L179.278 128.225C179.362 128.392 179.24 128.588 179.053 128.588H66.0776C65.9821 128.588 65.8947 128.534 65.852 128.449L40.8733 78.7164Z" fill="#747474"/>
<path d="M78.7197 154.069C78.6359 153.902 78.7578 153.706 78.9454 153.706H128.895C128.961 153.706 129.026 153.732 129.073 153.779L154.156 178.75C154.203 178.797 154.268 178.824 154.334 178.824H204.536C204.631 178.824 204.719 178.877 204.762 178.962L217.125 203.578C217.209 203.745 217.087 203.941 216.899 203.941H103.924C103.828 203.941 103.741 203.887 103.698 203.802L78.7197 154.069Z" fill="#747474"/>
<path d="M116.566 229.422C116.482 229.255 116.604 229.059 116.792 229.059H166.741C166.808 229.059 166.872 229.085 166.919 229.132L192.002 254.103C192.05 254.15 192.114 254.176 192.181 254.176H242.382C242.478 254.176 242.565 254.23 242.608 254.315L254.971 278.931C255.055 279.098 254.933 279.294 254.745 279.294H141.77C141.675 279.294 141.587 279.24 141.545 279.155L116.566 229.422Z" fill="#747474"/>
<path d="M154.413 304.775C154.329 304.608 154.451 304.412 154.638 304.412H204.587C204.654 304.412 204.718 304.438 204.766 304.485L229.849 329.456C229.896 329.503 229.96 329.529 230.027 329.529H280.229C280.324 329.529 280.412 329.583 280.454 329.668L305.615 379.765H280.385L255.228 354.721C255.18 354.674 255.116 354.647 255.049 354.647H179.617C179.521 354.647 179.434 354.593 179.391 354.508L154.413 304.775Z" fill="#747474"/>
<path d="M305.615 379.765H280.385H192.485C192.297 379.765 192.175 379.961 192.259 380.128L217.238 429.861C217.28 429.946 217.368 430 217.463 430H330.438C330.626 430 330.748 429.803 330.664 429.636L305.615 379.765Z" fill="#747474"/>
<path d="M352.096 404.882H318.639C318.452 404.882 318.33 405.079 318.414 405.246L330.777 429.861C330.819 429.946 330.907 430 331.002 430H368.537C368.632 430 368.72 429.946 368.763 429.861L393.741 380.128C393.825 379.961 393.703 379.765 393.515 379.765H358.797C358.682 379.765 358.581 379.843 358.553 379.955L352.34 404.692C352.312 404.804 352.211 404.882 352.096 404.882Z" fill="#747474"/>
<path d="M383.91 278.982C383.87 279.141 383.99 279.294 384.155 279.294H444.23C444.325 279.294 444.413 279.24 444.455 279.155L469.434 229.422C469.518 229.255 469.396 229.059 469.208 229.059H444.542C444.446 229.059 444.359 229.113 444.316 229.198L431.84 254.038C431.798 254.123 431.71 254.176 431.615 254.176H390.337C390.221 254.176 390.12 254.255 390.092 254.367L383.91 278.982Z" fill="#747474"/>
<path d="M402.833 203.629C402.793 203.788 402.914 203.941 403.078 203.941H482.077C482.172 203.941 482.26 203.887 482.302 203.802L507.281 154.069C507.365 153.902 507.243 153.706 507.055 153.706H482.389C482.293 153.706 482.206 153.76 482.163 153.845L469.687 178.685C469.644 178.77 469.557 178.824 469.461 178.824H409.26C409.144 178.824 409.043 178.902 409.015 179.014L402.833 203.629Z" fill="#747474"/>
<path d="M421.756 128.276C421.716 128.435 421.837 128.588 422.001 128.588H519.922C520.018 128.588 520.105 128.534 520.148 128.449L545.127 78.7165C545.211 78.5494 545.089 78.3529 544.901 78.3529H520.235C520.139 78.3529 520.052 78.4067 520.009 78.4918L507.533 103.332C507.491 103.417 507.403 103.471 507.308 103.471H428.183C428.067 103.471 427.966 103.549 427.938 103.661L421.756 128.276Z" fill="#747474"/>
<path d="M434.371 52.9232C434.331 53.0817 434.452 53.2353 434.616 53.2353H557.769C557.864 53.2353 557.952 53.1815 557.995 53.0964L582.973 3.36351C583.057 3.1965 582.935 3 582.747 3H558.081C557.985 3 557.898 3.05375 557.855 3.13885L545.379 27.9788C545.336 28.0639 545.249 28.1176 545.153 28.1176H440.798C440.682 28.1176 440.581 28.1961 440.553 28.3079L434.371 52.9232Z" fill="#747474"/>
<path d="M305.615 379.765L280.454 329.668C280.412 329.583 280.324 329.529 280.229 329.529H230.027C229.96 329.529 229.896 329.503 229.849 329.456L204.766 304.485C204.718 304.438 204.654 304.412 204.587 304.412H154.638C154.451 304.412 154.329 304.608 154.413 304.775L179.391 354.508C179.434 354.593 179.521 354.647 179.617 354.647H255.049C255.116 354.647 255.18 354.674 255.228 354.721L280.385 379.765M305.615 379.765H280.385M305.615 379.765L330.664 429.636C330.748 429.803 330.626 430 330.438 430H217.463C217.368 430 217.28 429.946 217.238 429.861L192.259 380.128C192.175 379.961 192.297 379.765 192.485 379.765H280.385M377.72 304.412H431.362C431.549 304.412 431.671 304.608 431.587 304.775L406.609 354.508C406.566 354.593 406.479 354.647 406.383 354.647H365.232C365.068 354.647 364.947 354.494 364.987 354.335L377.476 304.602C377.504 304.49 377.605 304.412 377.72 304.412ZM28.2312 53.2353H141.206C141.394 53.2353 141.516 53.0388 141.432 52.8718L129.069 28.2565C129.026 28.1714 128.939 28.1176 128.843 28.1176H78.6417C78.5748 28.1176 78.5106 28.0912 78.4633 28.0441L53.3801 3.07357C53.3328 3.02646 53.2686 3 53.2017 3H3.25263C3.06507 3 2.94308 3.1965 3.02696 3.36351L28.0056 53.0964C28.0483 53.1815 28.1357 53.2353 28.2312 53.2353ZM66.0776 128.588H179.053C179.24 128.588 179.362 128.392 179.278 128.225L166.915 103.609C166.872 103.524 166.785 103.471 166.689 103.471H116.488C116.421 103.471 116.357 103.444 116.31 103.397L91.2265 78.4265C91.1792 78.3794 91.115 78.3529 91.0481 78.3529H41.099C40.9115 78.3529 40.7895 78.5494 40.8733 78.7164L65.852 128.449C65.8947 128.534 65.9821 128.588 66.0776 128.588ZM103.924 203.941H216.899C217.087 203.941 217.209 203.745 217.125 203.578L204.762 178.962C204.719 178.877 204.631 178.824 204.536 178.824H154.334C154.268 178.824 154.203 178.797 154.156 178.75L129.073 153.779C129.026 153.732 128.961 153.706 128.895 153.706H78.9454C78.7578 153.706 78.6359 153.902 78.7197 154.069L103.698 203.802C103.741 203.887 103.828 203.941 103.924 203.941ZM141.77 279.294H254.745C254.933 279.294 255.055 279.098 254.971 278.931L242.608 254.315C242.565 254.23 242.478 254.176 242.382 254.176H192.181C192.114 254.176 192.05 254.15 192.002 254.103L166.919 229.132C166.872 229.085 166.808 229.059 166.741 229.059H116.792C116.604 229.059 116.482 229.255 116.566 229.422L141.545 279.155C141.587 279.24 141.675 279.294 141.77 279.294ZM318.639 404.882H352.096C352.211 404.882 352.312 404.804 352.34 404.692L358.553 379.955C358.581 379.843 358.682 379.765 358.797 379.765H393.515C393.703 379.765 393.825 379.961 393.741 380.128L368.763 429.861C368.72 429.946 368.632 430 368.537 430H331.002C330.907 430 330.819 429.946 330.777 429.861L318.414 405.246C318.33 405.079 318.452 404.882 318.639 404.882ZM431.84 254.038L444.316 229.198C444.359 229.113 444.446 229.059 444.542 229.059H469.208C469.396 229.059 469.518 229.255 469.434 229.422L444.455 279.155C444.413 279.24 444.325 279.294 444.23 279.294H384.155C383.99 279.294 383.87 279.141 383.91 278.982L390.092 254.367C390.12 254.255 390.221 254.176 390.337 254.176H431.615C431.71 254.176 431.798 254.123 431.84 254.038ZM409.26 178.824H469.461C469.557 178.824 469.644 178.77 469.687 178.685L482.163 153.845C482.206 153.76 482.293 153.706 482.389 153.706H507.055C507.243 153.706 507.365 153.902 507.281 154.069L482.302 203.802C482.26 203.887 482.172 203.941 482.077 203.941H403.078C402.914 203.941 402.793 203.788 402.833 203.629L409.015 179.014C409.043 178.902 409.144 178.824 409.26 178.824ZM428.183 103.471H507.308C507.403 103.471 507.491 103.417 507.533 103.332L520.009 78.4918C520.052 78.4067 520.139 78.3529 520.235 78.3529H544.901C545.089 78.3529 545.211 78.5494 545.127 78.7165L520.148 128.449C520.105 128.534 520.018 128.588 519.922 128.588H422.001C421.837 128.588 421.716 128.435 421.756 128.276L427.938 103.661C427.966 103.549 428.067 103.471 428.183 103.471ZM440.798 28.1176H545.153C545.249 28.1176 545.336 28.0639 545.379 27.9788L557.855 3.13885C557.898 3.05375 557.985 3 558.081 3H582.747C582.935 3 583.057 3.1965 582.973 3.36351L557.995 53.0964C557.952 53.1815 557.864 53.2353 557.769 53.2353H434.616C434.452 53.2353 434.331 53.0817 434.371 52.9232L440.553 28.3079C440.581 28.1961 440.682 28.1176 440.798 28.1176Z" stroke="#747474" stroke-width="6"/>
</g>
</svg>
