<svg width="64" height="64" viewBox="0 0 64 64" fill="none" xmlns="http://www.w3.org/2000/svg">
<path d="M0 0H1.14286V55H0V0Z" fill="url(#paint0_linear_500_6844)"/>
<path d="M2.28571 0H3.42857V55H2.28571V0Z" fill="url(#paint1_linear_500_6844)"/>
<path d="M5.71429 0V55H4.57143V0H5.71429Z" fill="url(#paint2_linear_500_6844)"/>
<path d="M6.85714 0H8V55H6.85714V0Z" fill="url(#paint3_linear_500_6844)"/>
<path d="M56 9H57.1429V64H56V9Z" fill="url(#paint4_linear_500_6844)"/>
<path d="M58.2857 9H59.4286V64H58.2857V9Z" fill="url(#paint5_linear_500_6844)"/>
<path d="M61.7143 9V64H60.5714V9H61.7143Z" fill="url(#paint6_linear_500_6844)"/>
<path d="M62.8571 9H64V64H62.8571V9Z" fill="url(#paint7_linear_500_6844)"/>
<path d="M9 0V1.14286H64V0H9Z" fill="url(#paint8_linear_500_6844)"/>
<path d="M64 2.28571H9V3.42857H64V2.28571Z" fill="url(#paint9_linear_500_6844)"/>
<path d="M9 4.57143V5.71429H64V4.57143H9Z" fill="url(#paint10_linear_500_6844)"/>
<path d="M9 6.85714V8H64V6.85714H9Z" fill="url(#paint11_linear_500_6844)"/>
<path d="M0 57.1429V56H55V57.1429H0Z" fill="url(#paint12_linear_500_6844)"/>
<path d="M0 58.2857H55V59.4286H0V58.2857Z" fill="url(#paint13_linear_500_6844)"/>
<path d="M0 61.7143V60.5714H55V61.7143H0Z" fill="url(#paint14_linear_500_6844)"/>
<path d="M0 64V62.8571H55V64H0Z" fill="url(#paint15_linear_500_6844)"/>
<defs>
<linearGradient id="paint0_linear_500_6844" x1="1" y1="-1.74902e-06" x2="65" y2="68" gradientUnits="userSpaceOnUse">
<stop stop-color="white"/>
<stop offset="1" stop-color="white" stop-opacity="0"/>
</linearGradient>
<linearGradient id="paint1_linear_500_6844" x1="1" y1="-1.74902e-06" x2="65" y2="68" gradientUnits="userSpaceOnUse">
<stop stop-color="white"/>
<stop offset="1" stop-color="white" stop-opacity="0"/>
</linearGradient>
<linearGradient id="paint2_linear_500_6844" x1="1" y1="-1.74902e-06" x2="65" y2="68" gradientUnits="userSpaceOnUse">
<stop stop-color="white"/>
<stop offset="1" stop-color="white" stop-opacity="0"/>
</linearGradient>
<linearGradient id="paint3_linear_500_6844" x1="1" y1="-1.74902e-06" x2="65" y2="68" gradientUnits="userSpaceOnUse">
<stop stop-color="white"/>
<stop offset="1" stop-color="white" stop-opacity="0"/>
</linearGradient>
<linearGradient id="paint4_linear_500_6844" x1="1" y1="-1.74902e-06" x2="65" y2="68" gradientUnits="userSpaceOnUse">
<stop stop-color="white"/>
<stop offset="1" stop-color="white" stop-opacity="0"/>
</linearGradient>
<linearGradient id="paint5_linear_500_6844" x1="1" y1="-1.74902e-06" x2="65" y2="68" gradientUnits="userSpaceOnUse">
<stop stop-color="white"/>
<stop offset="1" stop-color="white" stop-opacity="0"/>
</linearGradient>
<linearGradient id="paint6_linear_500_6844" x1="1" y1="-1.74902e-06" x2="65" y2="68" gradientUnits="userSpaceOnUse">
<stop stop-color="white"/>
<stop offset="1" stop-color="white" stop-opacity="0"/>
</linearGradient>
<linearGradient id="paint7_linear_500_6844" x1="1" y1="-1.74902e-06" x2="65" y2="68" gradientUnits="userSpaceOnUse">
<stop stop-color="white"/>
<stop offset="1" stop-color="white" stop-opacity="0"/>
</linearGradient>
<linearGradient id="paint8_linear_500_6844" x1="1" y1="-1.74902e-06" x2="65" y2="68" gradientUnits="userSpaceOnUse">
<stop stop-color="white"/>
<stop offset="1" stop-color="white" stop-opacity="0"/>
</linearGradient>
<linearGradient id="paint9_linear_500_6844" x1="1" y1="-1.74902e-06" x2="65" y2="68" gradientUnits="userSpaceOnUse">
<stop stop-color="white"/>
<stop offset="1" stop-color="white" stop-opacity="0"/>
</linearGradient>
<linearGradient id="paint10_linear_500_6844" x1="1" y1="-1.74902e-06" x2="65" y2="68" gradientUnits="userSpaceOnUse">
<stop stop-color="white"/>
<stop offset="1" stop-color="white" stop-opacity="0"/>
</linearGradient>
<linearGradient id="paint11_linear_500_6844" x1="1" y1="-1.74902e-06" x2="65" y2="68" gradientUnits="userSpaceOnUse">
<stop stop-color="white"/>
<stop offset="1" stop-color="white" stop-opacity="0"/>
</linearGradient>
<linearGradient id="paint12_linear_500_6844" x1="1" y1="-1.74902e-06" x2="65" y2="68" gradientUnits="userSpaceOnUse">
<stop stop-color="white"/>
<stop offset="1" stop-color="white" stop-opacity="0"/>
</linearGradient>
<linearGradient id="paint13_linear_500_6844" x1="1" y1="-1.74902e-06" x2="65" y2="68" gradientUnits="userSpaceOnUse">
<stop stop-color="white"/>
<stop offset="1" stop-color="white" stop-opacity="0"/>
</linearGradient>
<linearGradient id="paint14_linear_500_6844" x1="1" y1="-1.74902e-06" x2="65" y2="68" gradientUnits="userSpaceOnUse">
<stop stop-color="white"/>
<stop offset="1" stop-color="white" stop-opacity="0"/>
</linearGradient>
<linearGradient id="paint15_linear_500_6844" x1="1" y1="-1.74902e-06" x2="65" y2="68" gradientUnits="userSpaceOnUse">
<stop stop-color="white"/>
<stop offset="1" stop-color="white" stop-opacity="0"/>
</linearGradient>
</defs>
</svg>
