<svg width="696" height="110" viewBox="0 0 696 110" fill="none" xmlns="http://www.w3.org/2000/svg">
<rect y="2" width="696" height="60" rx="16" fill="#171717"/>
<g filter="url(#filter0_d_1049_248)">
<path d="M21.431 76.144C20.919 75.9733 20.1937 75.5467 19.255 74.864C17.1217 73.4133 16.0977 71.7493 16.183 69.872C16.183 67.9947 17.2923 65.5627 19.511 62.576C21.303 60.1013 23.7777 57.584 26.935 55.024C30.1777 52.3787 33.5483 50.1173 37.047 48.24C38.4977 47.5573 39.2657 47.088 39.351 46.832C39.5217 46.6613 39.0097 45.1253 37.815 42.224C35.8523 37.104 35.0843 33.0507 35.511 30.064C35.9377 26.992 37.7297 24.2187 40.887 21.744C42.5083 20.5493 43.7457 19.952 44.599 19.952C45.5377 19.8667 46.5617 20.3787 47.671 21.488C48.0123 21.8293 48.3963 22.3413 48.823 23.024C49.2497 23.7067 49.4203 24.1333 49.335 24.304C49.335 24.4747 48.951 24.6453 48.183 24.816C47.7563 24.9013 47.2443 25.1573 46.647 25.584C46.135 25.9253 45.5803 26.3093 44.983 26.736C44.3857 27.1627 43.7883 27.632 43.191 28.144C42.679 28.656 42.295 29.1253 42.039 29.552C40.5883 31.5147 39.9057 33.648 39.991 35.952C39.991 36.8907 40.1617 38.0853 40.503 39.536C40.8443 40.9867 41.1857 42.2667 41.527 43.376C41.9537 44.4853 42.295 45.04 42.551 45.04C42.7217 45.1253 43.703 44.656 45.495 43.632C52.8337 39.6213 57.143 37.744 58.423 38C59.3617 38.1707 60.3003 38.9813 61.239 40.432C61.8363 41.5413 62.0497 42.2667 61.879 42.608C61.7083 42.9493 60.7697 43.4187 59.063 44.016C56.3323 45.04 53.431 46.2773 50.359 47.728C47.3723 49.1787 45.623 50.16 45.111 50.672C44.7697 51.0133 44.727 51.7387 44.983 52.848C46.007 57.712 44.8977 62.3627 41.655 66.8C39.7777 69.2747 37.303 71.4507 34.231 73.328C31.2443 75.2907 28.471 76.4427 25.911 76.784C24.2897 76.9547 22.7963 76.7413 21.431 76.144ZM24.247 71.92C27.7457 70.64 31.031 68.5493 34.103 65.648C35.9803 63.856 37.6017 61.808 38.967 59.504C39.479 58.5653 39.9057 57.4133 40.247 56.048C40.6737 54.5973 40.759 53.744 40.503 53.488C40.1617 53.1467 38.4123 54.128 35.255 56.432C32.0977 58.6507 29.5377 60.784 27.575 62.832C26.2097 64.2827 24.9723 65.8613 23.863 67.568C22.6683 69.2747 21.9857 70.5547 21.815 71.408C21.7297 72.0907 21.8577 72.4747 22.199 72.56C22.455 72.6453 23.1377 72.432 24.247 71.92ZM89.015 74.864C88.1617 74.608 87.351 74.096 86.583 73.328C85.815 72.56 85.303 71.792 85.047 71.024C84.535 69.0613 85.7723 63.6427 88.759 54.768C89.6123 52.208 89.9963 50.8853 89.911 50.8C89.911 50.7147 89.3137 51.184 88.119 52.208C83.3403 56.56 79.671 58.9067 77.111 59.248C75.831 59.4187 74.423 58.9493 72.887 57.84C71.4363 56.7307 70.6257 55.536 70.455 54.256C70.3697 53.744 70.2417 53.488 70.071 53.488C69.9857 53.488 69.5163 53.872 68.663 54.64C64.7377 58.0533 61.751 60.2293 59.703 61.168C57.7403 62.0213 55.8203 61.552 53.943 59.76C53.0897 58.9067 52.6203 58.0107 52.535 57.072C52.4497 56.1333 52.7057 54.7253 53.303 52.848C54.2417 50.1173 55.735 47.1733 57.783 44.016C62.2203 37.104 66.4017 32.7093 70.327 30.832C71.2657 30.4053 72.1617 30.192 73.015 30.192C73.9537 30.192 74.7643 30.3627 75.447 30.704C77.1537 31.5573 78.4337 32.752 79.287 34.288L79.799 35.44L81.079 34.288C82.2737 33.1787 83.2123 32.7093 83.895 32.88C84.7483 33.136 85.5163 33.648 86.199 34.416C86.967 35.184 87.3083 35.7813 87.223 36.208C87.0523 36.8907 85.4737 38.7253 82.487 41.712C80.7803 43.5893 79.5003 45.168 78.647 46.448C75.9163 51.312 74.807 54.128 75.319 54.896C76.0017 54.896 77.5377 54 79.927 52.208C83.1697 49.7333 86.839 46.2773 90.935 41.84C94.3483 38.0853 96.0977 35.952 96.183 35.44C96.2683 35.2693 96.1403 35.2267 95.799 35.312C95.6283 35.312 95.3723 35.312 95.031 35.312C94.0923 35.3973 93.495 35.5253 93.239 35.696C92.8123 36.0373 92.343 35.952 91.831 35.44C91.319 35.0133 90.8923 34.416 90.551 33.648C90.2097 32.88 90.039 32.2827 90.039 31.856C90.1243 31.344 90.3803 31.0027 90.807 30.832C91.4043 30.576 93.5377 30.2773 97.207 29.936L99.127 29.808L99.895 28.272C101.346 25.5413 102.839 22.9387 104.375 20.464C105.911 17.904 107.276 15.8133 108.471 14.192C109.666 12.5707 110.476 11.6747 110.903 11.504C112.098 10.992 113.378 11.632 114.743 13.424C115.17 14.0213 115.34 14.6187 115.255 15.216C115.17 15.728 114.743 16.752 113.975 18.288C112.268 21.7013 110.306 25.1147 108.087 28.528C107.404 29.552 107.063 30.1067 107.063 30.192C107.148 30.2773 107.788 30.3627 108.983 30.448C111.628 30.7893 113.378 31.1307 114.231 31.472C114.658 31.6427 115.042 31.984 115.383 32.496C115.81 32.9227 116.151 33.4347 116.407 34.032C116.748 34.544 116.962 35.056 117.047 35.568C117.047 36.1653 116.962 36.5493 116.791 36.72C116.62 36.8907 116.236 36.848 115.639 36.592C115.042 36.336 114.188 36.1227 113.079 35.952C109.836 35.3547 106.978 35.056 104.503 35.056H103.479L102.071 36.976C100.876 38.5973 99.3403 41.584 97.463 45.936C95.8417 49.8613 94.135 54.64 92.343 60.272C90.551 65.8187 89.8257 68.72 90.167 68.976C90.2523 69.0613 91.191 68.1653 92.983 66.288C94.8603 64.3253 97.207 61.7653 100.023 58.608C102.924 55.4507 105.783 52.208 108.599 48.88C111.159 45.9787 112.652 44.3573 113.079 44.016C113.591 43.5893 114.231 43.632 114.999 44.144C115.852 44.656 116.45 45.2107 116.791 45.808C117.218 46.4053 117.303 46.8747 117.047 47.216C114.658 50.2027 110.818 54.768 105.527 60.912C101.175 65.8613 97.847 69.4027 95.543 71.536C93.3243 73.6693 91.6177 74.864 90.423 75.12C90.0817 75.2053 89.6123 75.12 89.015 74.864ZM59.063 55.536C61.879 53.5733 65.975 50.0747 71.351 45.04C73.2283 43.1627 74.3803 42.096 74.807 41.84C75.4043 41.2427 75.6177 40.816 75.447 40.56C75.2763 40.304 75.2763 39.408 75.447 37.872C75.703 35.6533 75.6177 34.4587 75.191 34.288C75.1057 34.2027 74.679 34.3307 73.911 34.672C71.4363 35.8667 68.5777 38.512 65.335 42.608C62.1777 46.6187 59.831 50.5867 58.295 54.512C57.8683 55.536 57.6977 56.0907 57.783 56.176C57.8683 56.2613 58.295 56.048 59.063 55.536ZM134.876 47.856C135.047 48.2827 134.833 48.9227 134.236 49.776C132.615 51.824 129.628 55.1093 125.276 59.632C122.545 62.3627 120.412 64.1973 118.876 65.136C117.425 66.0747 116.06 66.3733 114.78 66.032C114.524 65.9467 114.225 65.8613 113.884 65.776C113.543 65.6053 113.201 65.4347 112.86 65.264C112.519 65.0933 112.22 64.9227 111.964 64.752C111.623 64.496 111.324 64.2827 111.068 64.112C110.812 63.9413 110.641 63.8133 110.556 63.728C110.215 63.3013 109.959 62.7893 109.788 62.192C109.361 60.4853 110.129 57.072 112.092 51.952C114.055 46.7467 116.444 41.8827 119.26 37.36C121.393 33.8613 122.801 32.0267 123.484 31.856C123.825 31.7707 124.295 31.8133 124.892 31.984C125.489 32.0693 126.044 32.2827 126.556 32.624C127.153 32.9653 127.665 33.3493 128.092 33.776C128.519 34.1173 128.732 34.4587 128.732 34.8C128.732 35.056 128.519 35.3547 128.092 35.696C127.068 36.5493 125.191 39.408 122.46 44.272C121.265 46.4907 119.943 49.3067 118.492 52.72C117.041 56.1333 116.316 58.224 116.316 58.992C116.316 59.6747 116.871 59.5893 117.98 58.736C118.577 58.1387 120.199 56.432 122.844 53.616C125.489 50.7147 127.281 48.6667 128.22 47.472C128.988 46.5333 129.457 45.9787 129.628 45.808C129.884 45.6373 130.268 45.5947 130.78 45.68C131.463 45.7653 132.231 46.064 133.084 46.576C134.023 47.0027 134.62 47.4293 134.876 47.856ZM170.543 33.904C171.226 34.928 171.439 35.6107 171.183 35.952C171.012 36.2933 170.116 36.7627 168.495 37.36C165.679 38.4693 162.778 39.7493 159.791 41.2C156.804 42.5653 155.012 43.5467 154.415 44.144C154.159 44.4 154.159 45.1253 154.415 46.32C155.439 51.184 154.287 55.792 150.959 60.144C147.972 64.1547 144.004 67.1413 139.055 69.104C139.226 69.616 139.439 69.9573 139.695 70.128C139.951 70.384 140.548 70.7253 141.487 71.152C144.218 72.5173 145.924 74.224 146.607 76.272C147.29 78.32 146.778 80.2827 145.071 82.16C144.474 82.8427 143.876 83.3547 143.279 83.696C142.34 84.2933 141.146 84.6347 139.695 84.72C138.244 84.8907 136.922 84.7627 135.727 84.336C134.02 83.7387 132.57 82.9707 131.375 82.032C130.18 81.0933 129.626 80.2827 129.711 79.6C129.711 79.2587 129.796 79.0453 129.967 78.96C130.052 78.96 130.394 78.96 130.991 78.96C132.356 78.96 133.679 79.5573 134.959 80.752C135.386 81.0933 135.727 81.264 135.983 81.264C136.324 81.264 136.922 81.0507 137.775 80.624C139.994 79.344 141.103 77.68 141.103 75.632C141.103 74.4373 140.548 73.7547 139.439 73.584C138.671 73.4133 137.732 73.0293 136.623 72.432C135.599 71.8347 134.959 71.3227 134.703 70.896C134.618 70.7253 134.532 70.4693 134.447 70.128C133.082 70.2133 131.887 70.0427 130.863 69.616C130.266 69.36 129.498 68.8907 128.559 68.208C126.511 66.7573 125.53 65.0933 125.615 63.216C125.615 61.3387 126.682 58.9493 128.815 56.048C130.692 53.488 133.21 50.928 136.367 48.368C139.61 45.808 142.98 43.5893 146.479 41.712C147.844 40.944 148.612 40.4747 148.783 40.304C148.868 40.048 148.356 38.4693 147.247 35.568C145.199 30.448 144.388 26.3947 144.815 23.408C145.327 20.336 147.162 17.5627 150.319 15.088C151.855 13.8933 153.092 13.296 154.031 13.296C154.97 13.2107 155.994 13.7227 157.103 14.832C157.444 15.1733 157.786 15.728 158.127 16.496C158.554 17.1787 158.767 17.6053 158.767 17.776C158.767 17.8613 158.34 18.032 157.487 18.288C156.719 18.4587 155.652 19.056 154.287 20.08C153.007 21.104 152.068 22.0427 151.471 22.896C150.02 24.8587 149.338 26.992 149.423 29.296C149.423 30.7467 149.764 32.624 150.447 34.928C151.13 37.232 151.642 38.4267 151.983 38.512C152.154 38.512 153.135 38.0427 154.927 37.104C162.266 33.0933 166.575 31.1733 167.855 31.344C168.708 31.5147 169.604 32.368 170.543 33.904ZM148.271 52.848C148.783 51.9093 149.252 50.7573 149.679 49.392C150.106 47.9413 150.191 47.1307 149.935 46.96C149.594 46.6187 147.844 47.5573 144.687 49.776C141.53 51.9947 138.97 54.128 137.007 56.176C136.068 57.1147 135.172 58.1387 134.319 59.248C133.466 60.3573 132.74 61.424 132.143 62.448C131.631 63.472 131.332 64.24 131.247 64.752C131.162 65.4347 131.247 65.8187 131.503 65.904C131.844 65.9893 132.57 65.8187 133.679 65.392C137.178 64.112 140.463 61.9787 143.535 58.992C145.412 57.2 146.991 55.152 148.271 52.848ZM184.001 47.856C184.172 48.2827 183.958 48.9227 183.361 49.776C181.74 51.824 178.753 55.1093 174.401 59.632C171.67 62.3627 169.537 64.1973 168.001 65.136C166.55 66.0747 165.185 66.3733 163.905 66.032C163.649 65.9467 163.35 65.8613 163.009 65.776C162.668 65.6053 162.326 65.4347 161.985 65.264C161.644 65.0933 161.345 64.9227 161.089 64.752C160.748 64.496 160.449 64.2827 160.193 64.112C159.937 63.9413 159.766 63.8133 159.681 63.728C159.34 63.3013 159.084 62.7893 158.913 62.192C158.486 60.4853 159.254 57.072 161.217 51.952C163.18 46.7467 165.569 41.8827 168.385 37.36C170.518 33.8613 171.926 32.0267 172.609 31.856C172.95 31.7707 173.42 31.8133 174.017 31.984C174.614 32.0693 175.169 32.2827 175.681 32.624C176.278 32.9653 176.79 33.3493 177.217 33.776C177.644 34.1173 177.857 34.4587 177.857 34.8C177.857 35.056 177.644 35.3547 177.217 35.696C176.193 36.5493 174.316 39.408 171.585 44.272C170.39 46.4907 169.068 49.3067 167.617 52.72C166.166 56.1333 165.441 58.224 165.441 58.992C165.441 59.6747 165.996 59.5893 167.105 58.736C167.702 58.1387 169.324 56.432 171.969 53.616C174.614 50.7147 176.406 48.6667 177.345 47.472C178.113 46.5333 178.582 45.9787 178.753 45.808C179.009 45.6373 179.393 45.5947 179.905 45.68C180.588 45.7653 181.356 46.064 182.209 46.576C183.148 47.0027 183.745 47.4293 184.001 47.856ZM238.174 75.76C235.955 75.1627 234.505 74.352 233.822 73.328C233.139 72.304 232.926 70.64 233.182 68.336C233.523 65.6053 234.291 62.1493 235.486 57.968C235.742 57.1147 235.913 56.4747 235.998 56.048C236.169 55.536 236.254 55.1093 236.254 54.768C236.339 54.4267 236.339 54.2133 236.254 54.128C236.254 54.0427 236.211 54 236.126 54C235.955 54 235.059 54.7253 233.438 56.176C230.11 59.248 227.337 61.2533 225.118 62.192C222.985 63.0453 220.809 63.088 218.59 62.32C216.627 61.6373 215.262 60.784 214.494 59.76C213.641 58.6507 213.214 57.072 213.214 55.024C213.214 52.72 213.811 49.8613 215.006 46.448C216.713 41.584 218.931 37.232 221.662 33.392C224.478 29.4667 227.209 26.8213 229.854 25.456C231.305 24.7733 232.585 24.432 233.694 24.432C234.889 24.432 236.169 24.7307 237.534 25.328C238.985 25.84 240.222 26.6507 241.246 27.76C242.355 28.784 243.081 29.7653 243.422 30.704C243.763 31.6427 244.062 32.112 244.318 32.112C244.574 32.112 244.83 31.7707 245.086 31.088C247.902 24.3467 250.846 18.288 253.918 12.912C257.673 6.42666 260.659 2.416 262.878 0.879997C263.561 0.367999 264.243 0.197332 264.926 0.367996C266.035 0.538661 267.059 0.965327 267.998 1.64799C269.022 2.24533 269.619 2.88533 269.79 3.56799C270.131 5.10399 268.595 8.90133 265.182 14.96C261.769 20.9333 257.673 27.12 252.894 33.52C250.59 36.592 249.182 38.4693 248.67 39.152C247.817 40.6027 246.323 44.4853 244.19 50.8C242.142 57.0293 240.691 61.9787 239.838 65.648C239.241 68.72 239.198 70.256 239.71 70.256C240.051 70.1707 240.649 69.7013 241.502 68.848C244.403 65.6907 251.358 57.1147 262.366 43.12C264.243 40.816 265.353 39.5787 265.694 39.408C266.291 39.2373 267.23 39.4507 268.51 40.048C269.875 40.6453 270.558 41.2 270.558 41.712C270.643 41.968 270.003 42.9493 268.638 44.656C267.443 46.192 264.883 49.4347 260.958 54.384C254.046 63.2587 249.31 68.976 246.75 71.536C244.702 73.584 243.081 74.864 241.886 75.376C240.777 75.9733 239.539 76.1013 238.174 75.76ZM222.686 57.84C225.673 55.8773 229.129 52.6773 233.054 48.24C239.113 41.6693 242.142 38.128 242.142 37.616C242.142 37.4453 241.929 37.0613 241.502 36.464C241.161 35.8667 240.819 34.8853 240.478 33.52C239.539 29.7653 238.217 27.888 236.51 27.888C236.169 27.888 235.657 28.1013 234.974 28.528C234.291 28.9547 233.523 29.5093 232.67 30.192C231.902 30.8747 231.219 31.5147 230.622 32.112C227.465 35.44 224.734 39.6213 222.43 44.656C220.211 49.776 219.102 53.8293 219.102 56.816C219.102 58.352 219.315 59.1627 219.742 59.248C220.169 59.3333 221.15 58.864 222.686 57.84ZM268.849 69.36C266.46 68.592 264.753 67.568 263.729 66.288C262.62 64.9227 262.022 63.1307 261.937 60.912C261.766 57.328 262.62 53.36 264.497 49.008C266.289 44.656 268.678 40.8587 271.665 37.616C277.041 31.8133 282.076 30.4907 286.769 33.648C287.793 34.2453 288.518 34.8853 288.945 35.568C289.457 36.2507 289.713 37.1467 289.713 38.256C289.713 39.28 289.457 40.3893 288.945 41.584C288.348 42.7787 287.366 44.016 286.001 45.296C284.721 46.4907 283.441 47.4293 282.161 48.112C280.881 48.7093 279.473 49.008 277.937 49.008C276.401 49.008 275.078 48.7947 273.969 48.368C273.03 47.9413 272.39 47.8133 272.049 47.984C271.793 48.0693 271.409 48.624 270.897 49.648C269.873 51.6107 269.062 53.872 268.465 56.432C267.868 58.992 267.654 61.0827 267.825 62.704C267.996 64.8373 268.465 66.2453 269.233 66.928C269.745 67.3547 270.94 67.184 272.817 66.416C274.694 65.5627 276.7 64.368 278.833 62.832C279.43 62.4053 280.241 61.7227 281.265 60.784C282.374 59.76 283.484 58.6933 284.593 57.584C285.702 56.4747 286.812 55.3653 287.921 54.256C289.03 53.1467 289.884 52.208 290.481 51.44C292.785 48.7093 294.193 47.0453 294.705 46.448C295.302 45.8507 295.814 45.552 296.241 45.552C296.582 45.552 296.966 45.68 297.393 45.936C297.905 46.1067 298.374 46.3627 298.801 46.704C299.313 47.0453 299.697 47.3867 299.953 47.728L300.337 48.368L299.697 49.52C299.27 50.288 297.521 52.336 294.449 55.664C291.377 58.992 289.116 61.2533 287.665 62.448C283.654 65.9467 280.241 68.208 277.425 69.232C274.609 70.256 271.75 70.2987 268.849 69.36ZM276.913 45.04C278.022 44.528 279.217 43.632 280.497 42.352C281.777 40.9867 282.716 39.7493 283.313 38.64C283.996 37.2747 284.166 36.464 283.825 36.208C283.484 35.952 282.63 36.2507 281.265 37.104C279.814 38.128 278.15 39.664 276.273 41.712C274.396 43.76 273.542 44.9973 273.713 45.424C273.969 46.1067 275.036 45.9787 276.913 45.04ZM296.25 69.232C295.226 68.8907 294.373 68.4213 293.69 67.824L292.666 66.928L292.794 64.368C292.794 60.3573 294.799 52.8907 298.81 41.968C300.517 37.36 301.541 34.9707 301.882 34.8C302.138 34.6293 302.479 34.5867 302.906 34.672C303.418 34.672 303.93 34.7573 304.442 34.928C304.954 35.0133 305.466 35.184 305.978 35.44C306.49 35.696 306.874 35.952 307.13 36.208C307.471 36.6347 307.557 36.976 307.386 37.232C306.789 38.512 305.039 43.2053 302.138 51.312C300.175 57.0293 299.194 60.4853 299.194 61.68C299.194 62.8747 300.773 61.296 303.93 56.944C305.722 54.5547 307.77 51.5253 310.074 47.856C311.781 45.2107 312.805 43.5467 313.146 42.864C313.573 42.096 314.085 40.944 314.682 39.408C315.365 37.36 316.261 35.2693 317.37 33.136C318.565 31.0027 319.503 29.7653 320.186 29.424C320.527 29.0827 321.125 29.04 321.978 29.296C323.599 29.6373 324.837 30.32 325.69 31.344C325.946 31.7707 325.989 32.3253 325.818 33.008C325.306 34.3733 323.727 37.3173 321.082 41.84C319.546 44.4853 318.778 47.3013 318.778 50.288C318.778 52.7627 319.119 54.128 319.802 54.384C320.485 54.64 322.234 53.616 325.05 51.312C326.159 50.3733 326.97 49.8613 327.482 49.776C328.079 49.6053 328.847 49.7333 329.786 50.16C331.407 50.928 332.218 51.6107 332.218 52.208C332.218 52.464 331.962 52.8907 331.45 53.488C330.938 54 330.298 54.5547 329.53 55.152C328.847 55.664 328.079 56.176 327.226 56.688C326.373 57.2 325.605 57.5413 324.922 57.712C323.557 58.224 322.021 58.2667 320.314 57.84C318.607 57.328 317.071 56.432 315.706 55.152C314.767 54.2133 314.17 53.744 313.914 53.744C313.743 53.744 312.89 54.8533 311.354 57.072C306.405 64.1547 302.821 68.2507 300.602 69.36C299.407 69.872 297.957 69.8293 296.25 69.232ZM369.052 72.304C367.345 71.7067 366.407 71.024 366.236 70.256C366.065 69.8293 366.236 69.1893 366.748 68.336L367.388 67.056L366.876 66.416C366.535 65.9893 366.321 65.6053 366.236 65.264C366.236 64.9227 366.407 64.4107 366.748 63.728C368.028 61.0827 370.716 56.304 374.812 49.392C375.836 47.6853 376.348 46.7893 376.348 46.704C376.348 46.6187 376.263 46.6187 376.092 46.704C375.921 46.7893 375.537 47.1307 374.94 47.728C374.428 48.3253 373.703 49.0933 372.764 50.032C371.911 50.9707 370.588 52.3787 368.796 54.256C362.993 60.3147 359.111 63.984 357.148 65.264C355.185 66.4587 353.052 66.544 350.748 65.52C348.871 64.6667 347.633 63.6 347.036 62.32C346.524 61.04 346.524 59.2053 347.036 56.816C347.292 55.6213 347.377 54.9813 347.292 54.896C347.207 54.8107 346.396 55.4507 344.86 56.816C339.399 61.936 335.473 64.4533 333.084 64.368C331.975 64.368 330.737 63.984 329.372 63.216C327.921 62.3627 326.983 61.5093 326.556 60.656C325.532 58.6933 326.343 55.024 328.988 49.648C331.633 44.272 334.961 39.536 338.972 35.44C342.897 31.5147 346.14 29.6373 348.7 29.808C350.065 29.9787 351.431 30.576 352.796 31.6C354.161 32.5387 355.057 33.6053 355.484 34.8C355.825 35.568 355.996 35.9947 355.996 36.08C356.081 36.08 356.295 35.952 356.636 35.696C356.977 35.3547 357.404 34.928 357.916 34.416C358.94 33.4773 359.708 32.88 360.22 32.624C360.732 32.368 361.287 32.3253 361.884 32.496C362.823 32.752 363.804 33.3067 364.828 34.16C365.852 34.928 366.364 35.568 366.364 36.08C366.364 36.336 366.108 36.72 365.596 37.232C364.999 37.8293 364.103 38.9387 362.908 40.56C361.799 42.1813 360.647 44.016 359.452 46.064C358.257 48.0267 357.319 49.776 356.636 51.312C354.161 56.432 353.308 58.992 354.076 58.992C354.417 58.992 359.879 53.4453 370.46 42.352C379.932 32.368 385.521 26.736 387.228 25.456C388.167 24.7733 389.02 24.4747 389.788 24.56C391.409 24.7307 392.86 25.456 394.14 26.736C394.652 27.3333 394.908 27.9733 394.908 28.656C394.823 30.0213 393.116 33.4347 389.788 38.896C385.948 45.04 384.071 48.1547 384.156 48.24C384.241 48.3253 385.137 47.5573 386.844 45.936C393.585 39.4507 398.321 35.4827 401.052 34.032C401.905 33.6053 402.716 33.4773 403.484 33.648C405.02 34.0747 406.343 34.8427 407.452 35.952C408.22 36.8053 408.391 37.7867 407.964 38.896C407.623 39.92 406.172 42.736 403.612 47.344C403.1 48.1973 402.631 49.008 402.204 49.776C401.863 50.4587 401.564 51.0133 401.308 51.44C401.137 51.8667 401.052 52.08 401.052 52.08C401.223 52.1653 401.82 51.7813 402.844 50.928C406.855 47.4293 410.695 44.4 414.364 41.84C415.9 40.7307 417.009 40.048 417.692 39.792C418.46 39.536 419.143 39.536 419.74 39.792C420.764 40.1333 421.745 40.7307 422.684 41.584C423.623 42.352 424.135 42.992 424.22 43.504C424.305 44.3573 423.409 46.4907 421.532 49.904C418.033 56.2187 416.369 59.6747 416.54 60.272C416.54 60.4427 417.137 59.9733 418.332 58.864C419.527 57.6693 421.063 56.1333 422.94 54.256C424.817 52.3787 426.695 50.416 428.572 48.368C431.9 44.6987 433.735 42.864 434.076 42.864C434.929 42.864 435.953 43.376 437.148 44.4C438.428 45.424 439.068 46.2773 439.068 46.96C439.068 47.472 436.636 50.3733 431.772 55.664C427.164 60.6987 423.324 64.4107 420.252 66.8C418.46 68.1653 416.967 69.0187 415.772 69.36C414.663 69.616 413.553 69.4453 412.444 68.848C411.42 68.336 410.481 67.696 409.628 66.928C408.86 66.0747 408.391 65.3067 408.22 64.624C407.793 63.1733 408.476 60.272 410.268 55.92C411.036 54.2133 411.377 53.3173 411.292 53.232C411.207 53.1467 408.476 55.3653 403.1 59.888C400.028 62.5333 397.937 64.0693 396.828 64.496C395.719 64.9227 394.439 64.7947 392.988 64.112C390.94 63.088 389.788 62.0213 389.532 60.912C389.276 59.8027 390.172 57.1573 392.22 52.976C393.671 50.16 394.311 48.7093 394.14 48.624C394.055 48.4533 392.519 49.904 389.532 52.976C386.631 55.9627 383.985 58.736 381.596 61.296C376.817 66.5013 374.087 69.7867 373.404 71.152C373.063 71.8347 372.764 72.2613 372.508 72.432C372.252 72.688 371.868 72.816 371.356 72.816C370.673 72.816 369.905 72.6453 369.052 72.304ZM336.156 55.28C337.863 53.8293 340.849 51.0133 345.116 46.832C349.468 42.6507 351.772 40.3467 352.028 39.92C352.455 39.152 352.369 38.2133 351.772 37.104C351.26 36.1653 350.705 35.696 350.108 35.696C349.596 35.6107 348.871 35.9947 347.932 36.848C345.287 38.9813 342.727 41.6693 340.252 44.912C337.863 48.1547 335.985 51.3973 334.62 54.64C333.937 56.2613 333.681 57.072 333.852 57.072C334.023 57.072 334.791 56.4747 336.156 55.28ZM473.224 69.36C470.835 68.592 469.128 67.568 468.104 66.288C466.995 64.9227 466.397 63.1307 466.312 60.912C466.141 57.328 466.995 53.36 468.872 49.008C470.664 44.656 473.053 40.8587 476.04 37.616C481.416 31.8133 486.451 30.4907 491.144 33.648C492.168 34.2453 492.893 34.8853 493.32 35.568C493.832 36.2507 494.088 37.1467 494.088 38.256C494.088 39.28 493.832 40.3893 493.32 41.584C492.723 42.7787 491.741 44.016 490.376 45.296C489.096 46.4907 487.816 47.4293 486.536 48.112C485.256 48.7093 483.848 49.008 482.312 49.008C480.776 49.008 479.453 48.7947 478.344 48.368C477.405 47.9413 476.765 47.8133 476.424 47.984C476.168 48.0693 475.784 48.624 475.272 49.648C474.248 51.6107 473.437 53.872 472.84 56.432C472.243 58.992 472.029 61.0827 472.2 62.704C472.371 64.8373 472.84 66.2453 473.608 66.928C474.12 67.3547 475.315 67.184 477.192 66.416C479.069 65.5627 481.075 64.368 483.208 62.832C483.805 62.4053 484.616 61.7227 485.64 60.784C486.749 59.76 487.859 58.6933 488.968 57.584C490.077 56.4747 491.187 55.3653 492.296 54.256C493.405 53.1467 494.259 52.208 494.856 51.44C497.16 48.7093 498.568 47.0453 499.08 46.448C499.677 45.8507 500.189 45.552 500.616 45.552C500.957 45.552 501.341 45.68 501.768 45.936C502.28 46.1067 502.749 46.3627 503.176 46.704C503.688 47.0453 504.072 47.3867 504.328 47.728L504.712 48.368L504.072 49.52C503.645 50.288 501.896 52.336 498.824 55.664C495.752 58.992 493.491 61.2533 492.04 62.448C488.029 65.9467 484.616 68.208 481.8 69.232C478.984 70.256 476.125 70.2987 473.224 69.36ZM481.288 45.04C482.397 44.528 483.592 43.632 484.872 42.352C486.152 40.9867 487.091 39.7493 487.688 38.64C488.371 37.2747 488.541 36.464 488.2 36.208C487.859 35.952 487.005 36.2507 485.64 37.104C484.189 38.128 482.525 39.664 480.648 41.712C478.771 43.76 477.917 44.9973 478.088 45.424C478.344 46.1067 479.411 45.9787 481.288 45.04ZM524.049 75.76C521.83 75.1627 520.38 74.352 519.697 73.328C519.014 72.304 518.801 70.64 519.057 68.336C519.398 65.6053 520.166 62.1493 521.361 57.968C521.617 57.1147 521.788 56.4747 521.873 56.048C522.044 55.536 522.129 55.1093 522.129 54.768C522.214 54.4267 522.214 54.2133 522.129 54.128C522.129 54.0427 522.086 54 522.001 54C521.83 54 520.934 54.7253 519.313 56.176C515.985 59.248 513.212 61.2533 510.993 62.192C508.86 63.0453 506.684 63.088 504.465 62.32C502.502 61.6373 501.137 60.784 500.369 59.76C499.516 58.6507 499.089 57.072 499.089 55.024C499.089 52.72 499.686 49.8613 500.881 46.448C502.588 41.584 504.806 37.232 507.537 33.392C510.353 29.4667 513.084 26.8213 515.729 25.456C517.18 24.7733 518.46 24.432 519.569 24.432C520.764 24.432 522.044 24.7307 523.409 25.328C524.86 25.84 526.097 26.6507 527.121 27.76C528.23 28.784 528.956 29.7653 529.297 30.704C529.638 31.6427 529.937 32.112 530.193 32.112C530.449 32.112 530.705 31.7707 530.961 31.088C533.777 24.3467 536.721 18.288 539.793 12.912C543.548 6.42666 546.534 2.416 548.753 0.879997C549.436 0.367999 550.118 0.197332 550.801 0.367996C551.91 0.538661 552.934 0.965327 553.873 1.64799C554.897 2.24533 555.494 2.88533 555.665 3.56799C556.006 5.10399 554.47 8.90133 551.057 14.96C547.644 20.9333 543.548 27.12 538.769 33.52C536.465 36.592 535.057 38.4693 534.545 39.152C533.692 40.6027 532.198 44.4853 530.065 50.8C528.017 57.0293 526.566 61.9787 525.713 65.648C525.116 68.72 525.073 70.256 525.585 70.256C525.926 70.1707 526.524 69.7013 527.377 68.848C530.278 65.6907 537.233 57.1147 548.241 43.12C550.118 40.816 551.228 39.5787 551.569 39.408C552.166 39.2373 553.105 39.4507 554.385 40.048C555.75 40.6453 556.433 41.2 556.433 41.712C556.518 41.968 555.878 42.9493 554.513 44.656C553.318 46.192 550.758 49.4347 546.833 54.384C539.921 63.2587 535.185 68.976 532.625 71.536C530.577 73.584 528.956 74.864 527.761 75.376C526.652 75.9733 525.414 76.1013 524.049 75.76ZM508.561 57.84C511.548 55.8773 515.004 52.6773 518.929 48.24C524.988 41.6693 528.017 38.128 528.017 37.616C528.017 37.4453 527.804 37.0613 527.377 36.464C527.036 35.8667 526.694 34.8853 526.353 33.52C525.414 29.7653 524.092 27.888 522.385 27.888C522.044 27.888 521.532 28.1013 520.849 28.528C520.166 28.9547 519.398 29.5093 518.545 30.192C517.777 30.8747 517.094 31.5147 516.497 32.112C513.34 35.44 510.609 39.6213 508.305 44.656C506.086 49.776 504.977 53.8293 504.977 56.816C504.977 58.352 505.19 59.1627 505.617 59.248C506.044 59.3333 507.025 58.864 508.561 57.84ZM548.964 69.872C548.367 69.7013 547.599 69.36 546.66 68.848C545.636 68.2507 544.996 67.7813 544.74 67.44C544.399 67.0133 544.143 66.544 543.972 66.032C543.545 64.3253 544.313 60.912 546.276 55.792C548.239 50.5867 550.628 45.68 553.444 41.072C555.663 37.6587 557.071 35.824 557.668 35.568C558.351 35.3973 559.375 35.696 560.74 36.464C562.191 37.1467 562.916 37.8293 562.916 38.512C562.916 38.8533 562.703 39.152 562.276 39.408C561.252 40.2613 559.375 43.12 556.644 47.984C555.876 49.4347 554.98 51.2693 553.956 53.488C553.017 55.6213 552.207 57.584 551.524 59.376C550.927 61.168 550.628 62.2773 550.628 62.704C550.628 63.472 551.14 63.3867 552.164 62.448C552.761 61.936 554.383 60.2293 557.028 57.328C559.673 54.4267 561.465 52.4213 562.404 51.312C563.257 50.288 563.769 49.7333 563.94 49.648C564.196 49.4773 564.537 49.392 564.964 49.392C565.647 49.4773 566.415 49.776 567.268 50.288C568.207 50.8 568.804 51.2267 569.06 51.568C569.316 51.9947 569.103 52.6347 568.42 53.488C566.884 55.6213 563.897 58.9493 559.46 63.472C556.815 66.2027 554.724 68.0373 553.188 68.976C551.652 69.9147 550.244 70.2133 548.964 69.872ZM567.652 25.072C566.116 24.2187 565.348 23.4933 565.348 22.896C565.348 22.8107 565.604 22.4267 566.116 21.744C566.628 20.976 567.183 20.208 567.78 19.44C568.377 18.672 568.847 18.1173 569.188 17.776C569.785 17.1787 570.34 16.9227 570.852 17.008C571.62 17.008 572.559 17.3493 573.668 18.032C574.777 18.6293 575.332 19.184 575.332 19.696C575.332 19.952 575.033 20.3787 574.436 20.976C573.924 21.488 573.327 22.256 572.644 23.28C571.961 24.2187 571.449 24.8587 571.108 25.2C570.425 25.968 569.273 25.9253 567.652 25.072ZM566.658 100.976C564.781 100.293 563.842 99.4827 563.842 98.544C563.842 97.6907 564.482 95.984 565.762 93.424C567.383 90.1813 570.455 85.488 574.978 79.344C576.343 77.552 577.623 75.1627 578.818 72.176C579.586 70.2133 580.866 66.5867 582.658 61.296C584.535 55.92 585.474 53.0613 585.474 52.72C585.474 52.0373 584.151 53.1467 581.506 56.048C577.922 59.888 575.021 62.5333 572.802 63.984C570.413 65.52 567.895 65.6907 565.25 64.496C563.629 63.728 562.562 62.7893 562.05 61.68C561.538 60.4853 561.41 58.7787 561.666 56.56C562.093 53.0613 563.373 48.752 565.506 43.632C567.725 38.4267 570.071 34.16 572.546 30.832C573.997 28.9547 575.277 28.016 576.386 28.016C578.263 28.016 579.842 28.656 581.122 29.936C581.634 30.6187 581.549 31.0453 580.866 31.216C579.927 31.472 578.69 32.8373 577.154 35.312C574.85 38.7253 572.802 42.5227 571.01 46.704C569.303 50.8853 568.151 54.512 567.554 57.584C567.298 59.4613 567.341 60.4427 567.682 60.528C568.109 60.6133 569.218 59.8453 571.01 58.224C573.741 55.7493 577.069 52.208 580.994 47.6C584.919 42.992 588.375 38.512 591.362 34.16C591.959 33.3067 592.343 32.7947 592.514 32.624C592.77 32.4533 593.154 32.368 593.666 32.368C594.946 32.368 596.183 32.88 597.378 33.904C597.975 34.3307 598.231 34.8 598.146 35.312C598.146 35.7387 597.762 36.848 596.994 38.64C596.226 40.5173 594.818 44.5707 592.77 50.8C590.722 57.0293 589.698 60.3573 589.698 60.784C589.698 61.1253 589.783 61.296 589.954 61.296C590.125 61.296 591.618 59.888 594.434 57.072C598.445 53.232 603.053 49.3067 608.258 45.296C610.903 43.3333 612.567 42.224 613.25 41.968C613.933 41.712 614.914 41.9253 616.194 42.608C617.901 43.5467 618.541 44.272 618.114 44.784C617.943 45.04 616.237 46.4053 612.994 48.88C609.837 51.2693 607.447 53.1467 605.826 54.512C604.119 55.8773 601.389 58.4373 597.634 62.192C593.965 65.8613 591.234 68.7627 589.442 70.896C586.455 74.3947 584.535 76.7413 583.682 77.936C582.914 79.1307 581.933 80.9653 580.738 83.44C579.373 86.512 578.221 89.0293 577.282 90.992C576.429 92.6133 575.319 94.4053 573.954 96.368C572.674 98.416 571.693 99.7387 571.01 100.336C569.986 101.36 568.535 101.573 566.658 100.976ZM616.188 69.744C614.481 69.0613 613.287 68.2507 612.604 67.312C611.239 65.6907 610.855 63.088 611.452 59.504C612.049 55.8347 613.543 51.6533 615.932 46.96C618.321 42.096 620.924 38.2133 623.74 35.312C625.191 33.776 626.385 32.7947 627.324 32.368C628.263 31.856 629.287 31.7707 630.396 32.112C631.249 32.2827 632.188 32.4533 633.212 32.624C636.455 33.2213 638.631 34.544 639.74 36.592C640.593 38.384 641.02 40.5173 641.02 42.992C640.935 44.6133 640.977 45.4667 641.148 45.552C641.404 45.6373 642.129 45.168 643.324 44.144C644.519 43.0347 645.841 41.7547 647.292 40.304C648.743 38.768 649.895 37.4453 650.748 36.336C651.772 34.8853 652.583 33.648 653.18 32.624C653.777 31.5147 653.948 30.8747 653.692 30.704C653.265 30.448 652.668 30.1067 651.9 29.68C650.449 28.8267 649.809 27.888 649.98 26.864C650.236 25.7547 651.26 24.8587 653.052 24.176C653.991 23.8347 654.887 23.7493 655.74 23.92C657.873 24.3467 659.409 25.072 660.348 26.096C660.945 26.7787 661.244 27.6747 661.244 28.784C661.244 29.6373 661.244 30.1493 661.244 30.32C661.329 30.4907 661.585 30.704 662.012 30.96C662.609 31.3013 663.207 31.856 663.804 32.624C664.487 33.392 664.913 34.032 665.084 34.544C665.255 35.1413 665.34 36.0373 665.34 37.232C665.169 39.28 663.591 43.4187 660.604 49.648C655.74 59.888 653.991 65.008 655.356 65.008C655.697 65.008 657.276 63.472 660.092 60.4C662.908 57.328 665.724 54.0853 668.54 50.672C669.991 48.7947 670.844 47.8133 671.1 47.728C671.868 47.1307 673.105 47.3013 674.812 48.24C675.409 48.496 675.793 48.7093 675.964 48.88C676.135 48.9653 676.305 49.136 676.476 49.392C676.647 49.5627 676.604 49.8187 676.348 50.16C676.092 50.5013 675.836 50.8853 675.58 51.312C675.324 51.6533 674.855 52.2507 674.172 53.104C667.004 62.064 662.012 67.3973 659.196 69.104C657.404 70.2133 655.441 70.384 653.308 69.616C651.601 69.104 650.364 68.4213 649.596 67.568C648.828 66.6293 648.529 65.2213 648.7 63.344C648.871 61.4667 649.468 59.2053 650.492 56.56C651.601 53.9147 653.265 50.2453 655.484 45.552C658.812 38.64 659.964 35.3547 658.94 35.696C658.769 35.7813 657.959 36.72 656.508 38.512C655.228 40.2187 653.479 42.1387 651.26 44.272C649.127 46.4053 647.249 48.0693 645.628 49.264C644.092 50.3733 642.428 51.3973 640.636 52.336L637.82 53.616L636.668 55.664C634.791 58.992 632.401 62.064 629.5 64.88C626.855 67.5253 624.551 69.1893 622.588 69.872C620.625 70.5547 618.492 70.512 616.188 69.744ZM619.772 66.032C623.015 63.8987 626.087 60.656 628.988 56.304C629.841 55.1093 630.183 54.384 630.012 54.128C629.841 53.7867 629.671 53.616 629.5 53.616C629.415 53.616 629.159 53.5307 628.732 53.36C628.305 53.1893 627.836 52.976 627.324 52.72C626.812 52.464 626.343 52.208 625.916 51.952C625.489 51.6107 625.191 51.3547 625.02 51.184C624.508 50.672 624.252 50.2453 624.252 49.904C624.252 49.4773 624.423 49.2213 624.764 49.136C625.191 48.9653 625.873 49.0507 626.812 49.392C627.836 49.648 628.647 50.032 629.244 50.544C630.012 50.9707 630.695 51.1413 631.292 51.056C631.633 50.9707 631.889 50.8427 632.06 50.672C632.316 50.416 632.615 49.9467 632.956 49.264C634.833 45.424 635.431 41.7547 634.748 38.256C634.321 36.1227 633.767 35.056 633.084 35.056C632.828 35.056 632.145 35.5253 631.036 36.464C630.012 37.3173 629.073 38.2133 628.22 39.152C625.831 42.0533 623.612 45.552 621.564 49.648C619.516 53.744 618.193 57.456 617.596 60.784C617.255 62.4053 617.127 63.856 617.212 65.136C617.383 66.3307 617.681 66.928 618.108 66.928L619.772 66.032Z" fill="white"/>
</g>
<defs>
<filter id="filter0_d_1049_248" x="12.0547" y="0.111938" width="668.678" height="109.76" filterUnits="userSpaceOnUse" color-interpolation-filters="sRGB">
<feFlood flood-opacity="0" result="BackgroundImageFix"/>
<feColorMatrix in="SourceAlpha" type="matrix" values="0 0 0 0 0 0 0 0 0 0 0 0 0 0 0 0 0 0 127 0" result="hardAlpha"/>
<feOffset dy="4"/>
<feGaussianBlur stdDeviation="2"/>
<feComposite in2="hardAlpha" operator="out"/>
<feColorMatrix type="matrix" values="0 0 0 0 0 0 0 0 0 0 0 0 0 0 0 0 0 0 1 0"/>
<feBlend mode="normal" in2="BackgroundImageFix" result="effect1_dropShadow_1049_248"/>
<feBlend mode="normal" in="SourceGraphic" in2="effect1_dropShadow_1049_248" result="shape"/>
</filter>
</defs>
</svg>
