<svg width="14" height="14" viewBox="0 0 14 14" fill="none" xmlns="http://www.w3.org/2000/svg">
<g clip-path="url(#clip0_1602_24)">
<path d="M10.8932 5.53087L10.8933 5.53082C11.3244 4.9918 11.2371 4.20524 10.698 3.77394C10.1589 3.34263 9.37228 3.43007 8.94103 3.96913L5.69787 8.02307L4.66711 7.25C4.11482 6.83578 3.33132 6.94772 2.91711 7.5L2.91711 7.50001C2.50291 8.05228 2.61482 8.83578 3.16711 9.25L5.16708 10.75C5.7073 11.1552 6.47149 11.058 6.89319 10.5309L6.8932 10.5308L10.8932 5.53087ZM0.5 3.5C0.5 1.84314 1.84314 0.5 3.5 0.5H10.5C12.1569 0.5 13.5 1.84314 13.5 3.5V10.5C13.5 12.1569 12.1569 13.5 10.5 13.5H3.5C1.84314 13.5 0.5 12.1569 0.5 10.5V3.5Z" fill="#03A800" stroke="black"/>
</g>
<defs>
<clipPath id="clip0_1602_24">
<rect width="14" height="14" fill="white"/>
</clipPath>
</defs>
</svg>
