<svg width="57" height="44" viewBox="0 0 57 44" fill="none" xmlns="http://www.w3.org/2000/svg">
<path d="M35.4505 35.5575C35.4466 35.5731 35.4583 35.5882 35.4741 35.5882H39.4473C39.4565 35.5882 39.465 35.583 39.4691 35.5746L41.8808 30.6828C41.8889 30.6664 41.8772 30.6471 41.859 30.6471H36.6799C36.6687 30.6471 36.659 30.6548 36.6563 30.6658L35.4505 35.5575Z" fill="#706338"/>
<path d="M0.502603 1.03575C0.494504 1.01933 0.506283 1 0.524392 1H5.34706C5.35352 1 5.35972 1.0026 5.36429 1.00724L7.78611 3.46335C7.79068 3.46799 7.79687 3.47059 7.80333 3.47059H12.6504C12.6596 3.47059 12.668 3.47588 12.6722 3.48425L13.8658 5.90542C13.8739 5.92185 13.8622 5.94118 13.844 5.94118H2.93612C2.92689 5.94118 2.91846 5.93589 2.91433 5.92752L0.502603 1.03575Z" fill="#706338"/>
<path d="M4.15674 8.44752C4.14864 8.43109 4.16042 8.41176 4.17853 8.41176H9.0012C9.00766 8.41176 9.01385 8.41437 9.01842 8.419L11.4402 10.8751C11.4448 10.8798 11.451 10.8824 11.4575 10.8824H16.3045C16.3137 10.8824 16.3222 10.8876 16.3263 10.896L17.52 13.3172C17.5281 13.3336 17.5163 13.3529 17.4982 13.3529H6.59025C6.58103 13.3529 6.57259 13.3477 6.56847 13.3393L4.15674 8.44752Z" fill="#706338"/>
<path d="M7.81087 15.8593C7.80277 15.8429 7.81455 15.8235 7.83266 15.8235H12.6553C12.6618 15.8235 12.668 15.8261 12.6726 15.8308L15.0944 18.2869C15.0989 18.2915 15.1051 18.2941 15.1116 18.2941H19.9586C19.9679 18.2941 19.9763 18.2994 19.9804 18.3078L21.1741 20.729C21.1822 20.7454 21.1704 20.7647 21.1523 20.7647H10.2444C10.2352 20.7647 10.2267 20.7594 10.2226 20.751L7.81087 15.8593Z" fill="#706338"/>
<path d="M11.465 23.271C11.4569 23.2546 11.4687 23.2353 11.4868 23.2353H16.3095C16.3159 23.2353 16.3221 23.2379 16.3267 23.2425L18.7485 25.6986C18.7531 25.7033 18.7593 25.7059 18.7657 25.7059H23.6128C23.622 25.7059 23.6304 25.7112 23.6346 25.7195L24.8282 28.1407C24.8363 28.1571 24.8246 28.1765 24.8065 28.1765H13.8985C13.8893 28.1765 13.8809 28.1712 13.8767 28.1628L11.465 23.271Z" fill="#706338"/>
<path d="M15.1191 30.6828C15.111 30.6664 15.1228 30.6471 15.1409 30.6471H19.9636C19.9701 30.6471 19.9763 30.6497 19.9808 30.6543L22.4026 33.1104C22.4072 33.115 22.4134 33.1176 22.4199 33.1176H27.2669C27.2761 33.1176 27.2846 33.1229 27.2887 33.1313L29.718 38.0588H27.282L24.853 35.5955C24.8484 35.5908 24.8422 35.5882 24.8358 35.5882H17.5527C17.5434 35.5882 17.535 35.583 17.5309 35.5746L15.1191 30.6828Z" fill="#706338"/>
<path d="M29.718 38.0588H27.282H18.7951C18.777 38.0588 18.7652 38.0782 18.7733 38.0946L21.185 42.9863C21.1891 42.9947 21.1976 43 21.2068 43H32.1147C32.1328 43 32.1446 42.9807 32.1365 42.9642L29.718 38.0588Z" fill="#706338"/>
<path d="M34.2058 40.5294H30.9755C30.9574 40.5294 30.9456 40.5487 30.9537 40.5652L32.1474 42.9863C32.1515 42.9947 32.16 43 32.1692 43H35.7932C35.8024 43 35.8109 42.9947 35.815 42.9863L38.2267 38.0946C38.2348 38.0782 38.2231 38.0588 38.2049 38.0588H34.8529C34.8417 38.0588 34.8319 38.0665 34.8292 38.0775L34.2294 40.5107C34.2267 40.5217 34.217 40.5294 34.2058 40.5294Z" fill="#706338"/>
<path d="M37.2775 28.1458C37.2737 28.1614 37.2853 28.1765 37.3011 28.1765H43.1015C43.1107 28.1765 43.1191 28.1712 43.1233 28.1628L45.535 23.271C45.5431 23.2546 45.5313 23.2353 45.5132 23.2353H43.1316C43.1224 23.2353 43.1139 23.2406 43.1098 23.249L41.9053 25.6922C41.9012 25.7006 41.8927 25.7059 41.8835 25.7059H37.898C37.8868 25.7059 37.8771 25.7136 37.8744 25.7246L37.2775 28.1458Z" fill="#706338"/>
<path d="M39.1046 20.734C39.1007 20.7496 39.1123 20.7647 39.1282 20.7647H46.7557C46.7649 20.7647 46.7733 20.7594 46.7775 20.751L49.1892 15.8593C49.1973 15.8429 49.1855 15.8235 49.1674 15.8235H46.7858C46.7766 15.8235 46.7681 15.8288 46.764 15.8372L45.5594 18.2805C45.5553 18.2888 45.5469 18.2941 45.5376 18.2941H39.7251C39.7139 18.2941 39.7042 18.3018 39.7015 18.3128L39.1046 20.734Z" fill="#706338"/>
<path d="M40.9316 13.3222C40.9278 13.3378 40.9394 13.3529 40.9553 13.3529H50.4097C50.419 13.3529 50.4274 13.3477 50.4315 13.3393L52.8433 8.44752C52.8514 8.43109 52.8396 8.41176 52.8215 8.41176H50.4399C50.4307 8.41176 50.4223 8.41705 50.4181 8.42542L49.2136 10.8687C49.2094 10.8771 49.201 10.8824 49.1918 10.8824H41.5522C41.541 10.8824 41.5312 10.8901 41.5285 10.9011L40.9316 13.3222Z" fill="#706338"/>
<path d="M42.1496 5.91048C42.1458 5.92607 42.1574 5.94118 42.1732 5.94118H54.0639C54.0731 5.94118 54.0816 5.93589 54.0857 5.92752L56.4974 1.03575C56.5055 1.01933 56.4937 1 56.4756 1H54.094C54.0848 1 54.0763 1.00529 54.0722 1.01366L52.8676 3.45693C52.8635 3.4653 52.8551 3.47059 52.8458 3.47059H42.7701C42.759 3.47059 42.7492 3.4783 42.7465 3.4893L42.1496 5.91048Z" fill="#706338"/>
<path d="M29.718 38.0588L27.2887 33.1313C27.2846 33.1229 27.2761 33.1176 27.2669 33.1176H22.4199C22.4134 33.1176 22.4072 33.115 22.4026 33.1104L19.9808 30.6543C19.9763 30.6497 19.9701 30.6471 19.9636 30.6471H15.1409C15.1228 30.6471 15.111 30.6664 15.1191 30.6828L17.5309 35.5746C17.535 35.5829 17.5434 35.5882 17.5527 35.5882H24.8358C24.8422 35.5882 24.8484 35.5908 24.853 35.5955L27.282 38.0588M29.718 38.0588H27.282M29.718 38.0588L32.1365 42.9642C32.1446 42.9807 32.1328 43 32.1147 43H21.2068C21.1976 43 21.1891 42.9947 21.185 42.9863L18.7733 38.0946C18.7652 38.0782 18.777 38.0588 18.7951 38.0588H27.282M36.6799 30.6471H41.859C41.8772 30.6471 41.8889 30.6664 41.8808 30.6828L39.4691 35.5746C39.465 35.5829 39.4565 35.5882 39.4473 35.5882H35.4741C35.4583 35.5882 35.4466 35.5731 35.4505 35.5575L36.6563 30.6658C36.659 30.6548 36.6687 30.6471 36.6799 30.6471ZM2.93612 5.94118H13.844C13.8622 5.94118 13.8739 5.92185 13.8658 5.90542L12.6722 3.48425C12.668 3.47588 12.6596 3.47059 12.6504 3.47059H7.80333C7.79687 3.47059 7.79068 3.46799 7.78611 3.46335L5.36429 1.00724C5.35972 1.0026 5.35352 1 5.34706 1H0.524392C0.506283 1 0.494504 1.01933 0.502603 1.03575L2.91433 5.92752C2.91846 5.93589 2.92689 5.94118 2.93612 5.94118ZM6.59025 13.3529H17.4982C17.5163 13.3529 17.5281 13.3336 17.52 13.3172L16.3263 10.896C16.3222 10.8876 16.3137 10.8824 16.3045 10.8824H11.4575C11.451 10.8824 11.4448 10.8797 11.4402 10.8751L9.01842 8.419C9.01385 8.41437 9.00766 8.41176 9.0012 8.41176H4.17853C4.16042 8.41176 4.14864 8.43109 4.15674 8.44752L6.56847 13.3393C6.57259 13.3477 6.58103 13.3529 6.59025 13.3529ZM10.2444 20.7647H21.1523C21.1704 20.7647 21.1822 20.7454 21.1741 20.729L19.9804 18.3078C19.9763 18.2994 19.9679 18.2941 19.9586 18.2941H15.1116C15.1051 18.2941 15.0989 18.2915 15.0944 18.2869L12.6726 15.8308C12.668 15.8261 12.6618 15.8235 12.6553 15.8235H7.83266C7.81455 15.8235 7.80277 15.8429 7.81087 15.8593L10.2226 20.751C10.2267 20.7594 10.2352 20.7647 10.2444 20.7647ZM13.8985 28.1765H24.8065C24.8246 28.1765 24.8363 28.1571 24.8282 28.1407L23.6346 25.7195C23.6304 25.7112 23.622 25.7059 23.6128 25.7059H18.7657C18.7593 25.7059 18.7531 25.7033 18.7485 25.6986L16.3267 23.2425C16.3221 23.2379 16.3159 23.2353 16.3095 23.2353H11.4868C11.4687 23.2353 11.4569 23.2546 11.465 23.271L13.8767 28.1628C13.8809 28.1712 13.8893 28.1765 13.8985 28.1765ZM30.9755 40.5294H34.2058C34.217 40.5294 34.2267 40.5217 34.2294 40.5107L34.8292 38.0775C34.8319 38.0665 34.8417 38.0588 34.8529 38.0588H38.2049C38.2231 38.0588 38.2348 38.0782 38.2267 38.0946L35.815 42.9863C35.8109 42.9947 35.8024 43 35.7932 43H32.1692C32.16 43 32.1515 42.9947 32.1474 42.9863L30.9537 40.5652C30.9456 40.5487 30.9574 40.5294 30.9755 40.5294ZM41.9053 25.6922L43.1098 23.249C43.1139 23.2406 43.1224 23.2353 43.1316 23.2353H45.5132C45.5313 23.2353 45.5431 23.2546 45.535 23.271L43.1233 28.1628C43.1191 28.1712 43.1107 28.1765 43.1015 28.1765H37.3011C37.2853 28.1765 37.2736 28.1614 37.2775 28.1458L37.8744 25.7246C37.8771 25.7136 37.8868 25.7059 37.898 25.7059H41.8835C41.8927 25.7059 41.9012 25.7006 41.9053 25.6922ZM39.7251 18.2941H45.5376C45.5469 18.2941 45.5553 18.2888 45.5594 18.2805L46.764 15.8372C46.7681 15.8288 46.7766 15.8235 46.7858 15.8235H49.1674C49.1855 15.8235 49.1973 15.8429 49.1892 15.8593L46.7775 20.751C46.7733 20.7594 46.7649 20.7647 46.7557 20.7647H39.1282C39.1123 20.7647 39.1007 20.7496 39.1046 20.734L39.7015 18.3128C39.7042 18.3018 39.7139 18.2941 39.7251 18.2941ZM41.5522 10.8824H49.1918C49.201 10.8824 49.2094 10.8771 49.2136 10.8687L50.4181 8.42542C50.4223 8.41705 50.4307 8.41176 50.4399 8.41176H52.8215C52.8396 8.41176 52.8514 8.43109 52.8433 8.44752L50.4315 13.3393C50.4274 13.3477 50.419 13.3529 50.4097 13.3529H40.9553C40.9394 13.3529 40.9278 13.3378 40.9316 13.3222L41.5285 10.9011C41.5312 10.8901 41.541 10.8824 41.5522 10.8824ZM42.7701 3.47059H52.8458C52.8551 3.47059 52.8635 3.4653 52.8676 3.45693L54.0722 1.01366C54.0763 1.00529 54.0848 1 54.094 1H56.4756C56.4937 1 56.5055 1.01933 56.4974 1.03575L54.0857 5.92752C54.0816 5.93589 54.0731 5.94118 54.0639 5.94118H42.1732C42.1574 5.94118 42.1458 5.92607 42.1496 5.91048L42.7465 3.4893C42.7492 3.4783 42.759 3.47059 42.7701 3.47059Z" stroke="#706338" stroke-width="0.2"/>
</svg>
