<svg width="736" height="422" viewBox="0 0 736 422" fill="none" xmlns="http://www.w3.org/2000/svg">
<g filter="url(#filter0_d_901_93)">
<path d="M95 7.91215e-05V148H70.8974V7.91215e-05H95Z" stroke="#EEEEEE" stroke-opacity="0.5" shape-rendering="crispEdges"/>
<path d="M62.9487 7.91215e-05V148H38.8462V7.91215e-05H62.9487Z" stroke="#EEEEEE" stroke-opacity="0.5" shape-rendering="crispEdges"/>
<path d="M29.1026 7.91215e-05V148H5V0L29.1026 7.91215e-05Z" stroke="#EEEEEE" stroke-opacity="0.5" shape-rendering="crispEdges"/>
<path d="M307 0.000121355V227H282.897V0.000121355H307Z" stroke="#EEEEEE" stroke-opacity="0.5" shape-rendering="crispEdges"/>
<path d="M274.949 0.000121355V227H250.846V0.000121355H274.949Z" stroke="#EEEEEE" stroke-opacity="0.5" shape-rendering="crispEdges"/>
<path d="M241.103 0.000121355V227H217V0L241.103 0.000121355Z" stroke="#EEEEEE" stroke-opacity="0.5" shape-rendering="crispEdges"/>
<path d="M201 9.94365e-05V186H176.897V9.94365e-05H201Z" stroke="#EEEEEE" stroke-opacity="0.5" shape-rendering="crispEdges"/>
<path d="M168.949 9.94365e-05V186H144.846V9.94365e-05H168.949Z" stroke="#EEEEEE" stroke-opacity="0.5" shape-rendering="crispEdges"/>
<path d="M135.103 9.94365e-05V186H111V0L135.103 9.94365e-05Z" stroke="#EEEEEE" stroke-opacity="0.5" shape-rendering="crispEdges"/>
<path d="M413 0.000144878V271H388.897V0.000144878H413Z" stroke="#EEEEEE" stroke-opacity="0.5" shape-rendering="crispEdges"/>
<path d="M380.949 0.000144878V271H356.846V0.000144878H380.949Z" stroke="#EEEEEE" stroke-opacity="0.5" shape-rendering="crispEdges"/>
<path d="M347.103 0.000144878V271H323V0L347.103 0.000144878Z" stroke="#EEEEEE" stroke-opacity="0.5" shape-rendering="crispEdges"/>
<path d="M519 0.000167866V314H494.897V0.000167866H519Z" stroke="#EEEEEE" stroke-opacity="0.5" shape-rendering="crispEdges"/>
<path d="M486.949 0.000167866V314H462.846V0.000167866H486.949Z" stroke="#EEEEEE" stroke-opacity="0.5" shape-rendering="crispEdges"/>
<path d="M453.103 0.000167866V314H429V0L453.103 0.000167866Z" stroke="#EEEEEE" stroke-opacity="0.5" shape-rendering="crispEdges"/>
<path d="M625 0.000195131V365H600.897V0.000195131H625Z" stroke="#EEEEEE" stroke-opacity="0.5" shape-rendering="crispEdges"/>
<path d="M592.949 0.000195131V365H568.846V0.000195131H592.949Z" stroke="#EEEEEE" stroke-opacity="0.5" shape-rendering="crispEdges"/>
<path d="M559.103 0.000195131V365H535V0L559.103 0.000195131Z" stroke="#EEEEEE" stroke-opacity="0.5" shape-rendering="crispEdges"/>
<path d="M731 0.000220792V413H706.897V0.000220792H731Z" stroke="#EEEEEE" stroke-opacity="0.5" shape-rendering="crispEdges"/>
<path d="M698.949 0.000220792V413H674.846V0.000220792H698.949Z" stroke="#EEEEEE" stroke-opacity="0.5" shape-rendering="crispEdges"/>
<path d="M665.103 0.000220792V413H641V0L665.103 0.000220792Z" stroke="#EEEEEE" stroke-opacity="0.5" shape-rendering="crispEdges"/>
</g>
<defs>
<filter id="filter0_d_901_93" x="0.5" y="-0.5" width="735" height="422" filterUnits="userSpaceOnUse" color-interpolation-filters="sRGB">
<feFlood flood-opacity="0" result="BackgroundImageFix"/>
<feColorMatrix in="SourceAlpha" type="matrix" values="0 0 0 0 0 0 0 0 0 0 0 0 0 0 0 0 0 0 127 0" result="hardAlpha"/>
<feOffset dy="4"/>
<feGaussianBlur stdDeviation="2"/>
<feComposite in2="hardAlpha" operator="out"/>
<feColorMatrix type="matrix" values="0 0 0 0 0 0 0 0 0 0 0 0 0 0 0 0 0 0 0.25 0"/>
<feBlend mode="normal" in2="BackgroundImageFix" result="effect1_dropShadow_901_93"/>
<feBlend mode="normal" in="SourceGraphic" in2="effect1_dropShadow_901_93" result="shape"/>
</filter>
</defs>
</svg>
