<svg width="342" height="372" viewBox="0 0 342 372" fill="none" xmlns="http://www.w3.org/2000/svg">
<path d="M339.499 146.431V369.5H2.50074V146.431V146.423L2.50069 146.415C2.46899 141.503 3.53057 136.647 5.60626 132.205L3.3414 131.147L5.60626 132.205C7.68047 127.767 10.714 123.857 14.4818 120.762C14.4844 120.76 14.4871 120.758 14.4897 120.756L152.828 9.08215L152.841 9.07172L152.853 9.06111C157.97 4.81739 164.384 2.5 171 2.5C177.616 2.5 184.03 4.81739 189.147 9.06111L189.159 9.07172L189.172 9.08215L327.51 120.756C327.513 120.758 327.516 120.76 327.519 120.762C331.286 123.857 334.32 127.767 336.394 132.205C338.469 136.647 339.531 141.503 339.499 146.415L339.499 146.423V146.431ZM137.409 340.627V343.127H139.909H202.091H204.591V340.627V262.196V259.696H202.091H139.909H137.409V262.196V340.627ZM313.413 343.127L313.409 340.623L313.098 146.5C313.144 145.578 312.992 144.657 312.652 143.799C312.3 142.912 311.756 142.114 311.057 141.464L310.993 141.404L310.924 141.349L172.57 29.6622L171.002 28.396L169.432 29.6605L30.767 141.347L30.6975 141.403L30.6322 141.464C29.9332 142.114 29.3888 142.912 29.0372 143.799C28.6968 144.658 28.5451 145.58 28.5915 146.502V340.627V343.127H31.0915H108.818H111.318V340.627V233.323H230.682V340.627V343.127H233.182H310.909H313.413ZM33.5915 146.351L33.5863 146.27C33.5725 146.055 33.6066 145.84 33.6854 145.642C33.7557 145.464 33.8598 145.304 33.9903 145.171L170.998 34.819L307.698 145.17C307.829 145.304 307.933 145.464 308.004 145.642C308.083 145.841 308.117 146.055 308.103 146.27L308.097 146.353L308.098 146.435L308.405 338.127H235.682V230.823V228.323H233.182H108.818H106.318V230.823V338.127H33.5915V146.431V146.351Z" stroke="#585858" stroke-opacity="0.19" stroke-width="5"/>
</svg>
