<svg width="40" height="40" viewBox="0 0 40 40" fill="none" xmlns="http://www.w3.org/2000/svg">
<mask id="path-1-inside-1_976_83" fill="white">
<path d="M20 -7.15256e-07C31.0457 -7.15256e-07 40 8.9543 40 20C40 31.0457 31.0457 40 20 40C8.95431 40 0 31.0457 0 20C0 8.9543 8.95431 -7.15256e-07 20 -7.15256e-07Z"/>
</mask>
<path d="M13.8462 19.5H13.3462V20.5H13.8462V19.5ZM26.5074 20.3536C26.7027 20.1583 26.7027 19.8417 26.5074 19.6464L23.3254 16.4645C23.1302 16.2692 22.8136 16.2692 22.6183 16.4645C22.4231 16.6597 22.4231 16.9763 22.6183 17.1716L25.4467 20L22.6183 22.8284C22.4231 23.0237 22.4231 23.3403 22.6183 23.5355C22.8136 23.7308 23.1302 23.7308 23.3254 23.5355L26.5074 20.3536ZM13.8462 20.5H26.1538V19.5H13.8462V20.5ZM20 0.999999C30.4934 0.999999 39 9.50659 39 20H41C41 8.40202 31.598 -1 20 -1V0.999999ZM39 20C39 30.4934 30.4934 39 20 39V41C31.598 41 41 31.598 41 20H39ZM20 39C9.50659 39 1 30.4934 1 20H-1C-1 31.598 8.40202 41 20 41V39ZM1 20C1 9.50659 9.50659 0.999999 20 0.999999V-1C8.40202 -1 -1 8.40202 -1 20H1Z" fill="#E4E4E4" mask="url(#path-1-inside-1_976_83)"/>
</svg>
