<svg width="92" height="92" viewBox="0 0 92 92" fill="none" xmlns="http://www.w3.org/2000/svg">
<mask id="path-1-inside-1_583_84" fill="white">
<path d="M92 46C92 71.4051 71.4051 92 46 92C20.5949 92 0 71.4051 0 46C0 20.5949 20.5949 0 46 0C71.4051 0 92 20.5949 92 46Z"/>
</mask>
<path d="M47 31.8462V30.8462H45V31.8462H47ZM45.2929 60.861C45.6834 61.2515 46.3166 61.2515 46.7071 60.861L53.0711 54.497C53.4616 54.1065 53.4616 53.4733 53.0711 53.0828C52.6805 52.6923 52.0474 52.6923 51.6569 53.0828L46 58.7396L40.3431 53.0828C39.9526 52.6923 39.3195 52.6923 38.9289 53.0828C38.5384 53.4733 38.5384 54.1065 38.9289 54.497L45.2929 60.861ZM45 31.8462V60.1538H47V31.8462H45ZM90 46C90 70.3005 70.3005 90 46 90V94C72.5097 94 94 72.5097 94 46H90ZM46 90C21.6995 90 2 70.3005 2 46H-2C-2 72.5097 19.4903 94 46 94V90ZM2 46C2 21.6995 21.6995 2 46 2V-2C19.4903 -2 -2 19.4903 -2 46H2ZM46 2C70.3005 2 90 21.6995 90 46H94C94 19.4903 72.5097 -2 46 -2V2Z" fill="#E4E4E4" mask="url(#path-1-inside-1_583_84)"/>
</svg>
