<svg width="151" height="106" viewBox="0 0 151 106" fill="none" xmlns="http://www.w3.org/2000/svg">
<path fill-rule="evenodd" clip-rule="evenodd" d="M147.862 106H61.7284C60.2721 106 59.0901 104.836 59.0901 103.402V85.4483H3.13824C1.68193 85.4483 0.5 84.2847 0.5 82.8508V64.7097C0.5 54.278 9.91325 45.6126 22.0914 44.1788C23.4633 43.9294 26.5236 43.971 28.0433 43.971L28.4654 41.4981C24.6874 38.485 22.5135 34.038 22.5135 29.2586V5.29896C22.5135 2.41051 24.9618 0 27.8955 0H44.6325C51.7241 0 57.5283 5.65223 57.5283 12.6344V29.2586C57.5283 34.038 55.3544 38.4642 51.5975 41.4981L51.9985 43.971C53.5604 43.971 56.5574 43.9294 57.9504 44.1788C69.1788 45.4879 78.0433 52.9481 79.3729 62.2576C81.5891 61.7797 83.7419 61.5718 86.1268 61.5511H92.2687L92.8596 59.4523C87.3088 56.0027 83.9107 50.0596 83.9107 43.5969V14.089C83.9107 10.8473 86.6334 8.16663 89.9892 8.16663H110.525C118.883 8.16663 125.679 14.9202 125.679 23.17V43.5969C125.679 50.0388 122.281 55.982 116.773 59.4315L117.343 61.5511H123.632C133.636 61.5926 143.725 66.3513 148.284 74.9959C149.74 77.7804 150.5 80.752 150.5 83.8067V103.402C150.5 104.836 149.318 106 147.862 106ZM27.79 13.5072H52.2518V12.6344C52.2518 8.54068 48.8326 5.19506 44.6325 5.19506H27.8955C27.8744 5.21584 27.8111 5.2574 27.79 5.29896V13.5072ZM32.5177 38.0071C32.6866 38.0902 32.8343 38.1941 32.9821 38.298C34.6072 39.2539 36.4856 39.8149 38.5118 39.8149H41.53C47.3763 39.8149 52.2518 35.1394 52.2518 29.2586V18.7022H27.79V29.2586C27.79 32.8951 29.6684 36.1161 32.5177 38.0071ZM33.362 44.1788L33.1509 45.4672L40.0103 50.7038L46.912 45.4672L46.7009 44.1788C43.725 45.1762 41.53 45.01 38.5118 45.01C36.7389 45.01 35.0082 44.7191 33.362 44.1788ZM29.394 49.166H26.7136L31.6524 60.0133L36.2535 54.4027L29.394 49.166ZM21.0994 49.5816C13.248 51.0155 5.77649 56.7716 5.77649 64.7097V80.2533H59.4278C60.8419 73.0218 66.5194 66.9539 74.2442 63.8161C73.6954 56.2937 66.4772 50.9739 58.9635 49.5816L51.492 65.9773C50.6688 67.7436 48.2417 68.0345 47.0175 66.5591L39.9892 58.0808L33.0454 66.5383C31.8001 68.0553 29.394 67.7228 28.592 65.9773L21.0994 49.5816ZM53.3704 49.166H50.6688L43.7672 54.4027L48.4105 60.0133L53.3704 49.166ZM64.4088 82.5807C64.4721 83.0586 64.3666 83.2456 64.3666 83.8067V100.805H96.9964L98.9382 84.3678L98.5794 83.8275L97.0808 85.6146C95.8567 87.0692 93.4506 86.7991 92.6486 85.012L84.3117 66.8085C79.0986 67.141 74.2864 68.9281 70.5507 71.9412C66.9204 74.8712 64.7887 78.6116 64.4088 82.5807ZM89.1872 24.7908H90.8335C93.0074 24.7908 94.7381 24.0635 95.9833 22.6297C99.0226 19.1386 100.795 19.1386 103.814 22.6297C105.08 24.0843 106.747 24.7908 108.9 24.7908H120.403V23.17C120.403 17.7671 115.971 13.3617 110.525 13.3617H89.9892C89.5249 13.3617 89.1872 13.7565 89.1872 14.089V24.7908ZM90.8335 29.9859H89.1872V43.5969C89.1872 48.8336 92.2265 53.3844 96.6798 55.6287C96.9753 55.7118 97.2286 55.8365 97.4607 55.982C99.1703 56.7093 101.028 57.1249 102.991 57.1249H106.663C114.071 57.1249 120.403 51.1817 120.403 43.5969V29.9859H108.9C104.362 29.9859 101.534 27.9494 99.8879 26.1C98.2628 27.9494 95.4135 29.9859 90.8335 29.9859ZM97.7351 61.5926L97.2919 63.1719L104.806 68.9488L112.319 63.1511L111.897 61.5926C108.752 62.4862 106.178 62.3199 102.991 62.3199C101.197 62.3199 99.4236 62.0706 97.7351 61.5926ZM93.3662 66.7461H90.0737L95.709 79.0688L101.07 72.6685L93.3662 66.7461ZM102.083 79.6299L104.806 83.6612L107.549 79.5883L104.827 76.3466L102.083 79.6299ZM111.053 83.7859L110.652 84.3678L112.594 100.805H145.224V83.8067C145.224 79.3805 143.029 75.1621 139.039 71.9412C135.325 68.9281 130.492 67.141 125.299 66.8085L117.005 85.012C116.224 86.7783 113.818 87.09 112.573 85.5938L111.053 83.7859ZM119.538 66.7461H116.224L108.584 72.6477L113.944 79.0688L119.538 66.7461ZM102.294 100.805H107.275L106.093 90.6642C105.291 91.1006 104.299 91.0798 103.518 90.6226L102.294 100.805Z" fill="#736338" fill-opacity="1"/>
</svg>
